G04 (created by PCBNEW-RS274X (2011-07-12 BZR 3047)-stable) date Fri 07 Oct 2011 22:01:21 BST*
G01*
G70*
G90*
%MOIN*%
G04 Gerber Fmt 3.4, Leading zero omitted, Abs format*
%FSLAX34Y34*%
G04 APERTURE LIST*
%ADD10C,0.006000*%
%ADD11C,0.012000*%
%ADD12C,0.003900*%
%ADD13C,0.005100*%
%ADD14C,0.008000*%
%ADD15C,0.015000*%
%ADD16C,0.005000*%
%ADD17C,0.004700*%
%ADD18C,0.010700*%
%ADD19C,0.010000*%
%ADD20C,0.004900*%
%ADD21R,0.055200X0.055200*%
%ADD22C,0.068000*%
%ADD23C,0.173400*%
%ADD24R,0.068000X0.068000*%
%ADD25R,0.067100X0.067100*%
%ADD26C,0.067100*%
%ADD27R,0.063100X0.043400*%
%ADD28R,0.090700X0.086700*%
%ADD29R,0.086700X0.025700*%
%ADD30R,0.025700X0.086700*%
%ADD31R,0.067100X0.059200*%
%ADD32R,0.059200X0.067100*%
%ADD33R,0.055200X0.035600*%
%ADD34R,0.106400X0.055200*%
%ADD35C,0.070000*%
%ADD36R,0.070000X0.070000*%
G04 APERTURE END LIST*
G54D10*
G54D11*
X47414Y-30390D02*
X47757Y-30390D01*
X47586Y-31190D02*
X47586Y-30390D01*
X48043Y-31190D02*
X47985Y-31152D01*
X47957Y-31114D01*
X47928Y-31037D01*
X47928Y-30809D01*
X47957Y-30733D01*
X47985Y-30695D01*
X48043Y-30656D01*
X48128Y-30656D01*
X48185Y-30695D01*
X48214Y-30733D01*
X48243Y-30809D01*
X48243Y-31037D01*
X48214Y-31114D01*
X48185Y-31152D01*
X48128Y-31190D01*
X48043Y-31190D01*
X48757Y-31190D02*
X48757Y-30390D01*
X48757Y-31152D02*
X48700Y-31190D01*
X48586Y-31190D01*
X48528Y-31152D01*
X48500Y-31114D01*
X48471Y-31037D01*
X48471Y-30809D01*
X48500Y-30733D01*
X48528Y-30695D01*
X48586Y-30656D01*
X48700Y-30656D01*
X48757Y-30695D01*
X49129Y-31190D02*
X49071Y-31152D01*
X49043Y-31114D01*
X49014Y-31037D01*
X49014Y-30809D01*
X49043Y-30733D01*
X49071Y-30695D01*
X49129Y-30656D01*
X49214Y-30656D01*
X49271Y-30695D01*
X49300Y-30733D01*
X49329Y-30809D01*
X49329Y-31037D01*
X49300Y-31114D01*
X49271Y-31152D01*
X49214Y-31190D01*
X49129Y-31190D01*
X49586Y-31114D02*
X49614Y-31152D01*
X49586Y-31190D01*
X49557Y-31152D01*
X49586Y-31114D01*
X49586Y-31190D01*
X49586Y-30695D02*
X49614Y-30733D01*
X49586Y-30771D01*
X49557Y-30733D01*
X49586Y-30695D01*
X49586Y-30771D01*
X48257Y-32354D02*
X48285Y-32392D01*
X48257Y-32430D01*
X48228Y-32392D01*
X48257Y-32354D01*
X48257Y-32430D01*
X48543Y-32354D02*
X48571Y-32392D01*
X48543Y-32430D01*
X48514Y-32392D01*
X48543Y-32354D01*
X48543Y-32430D01*
X48829Y-32354D02*
X48857Y-32392D01*
X48829Y-32430D01*
X48800Y-32392D01*
X48829Y-32354D01*
X48829Y-32430D01*
X60369Y-49458D02*
X60026Y-49458D01*
X60198Y-49458D02*
X60198Y-48658D01*
X60141Y-48772D01*
X60083Y-48848D01*
X60026Y-48886D01*
X64430Y-46324D02*
X64430Y-45524D01*
X64658Y-45524D01*
X64716Y-45562D01*
X64744Y-45600D01*
X64773Y-45676D01*
X64773Y-45790D01*
X64744Y-45867D01*
X64716Y-45905D01*
X64658Y-45943D01*
X64430Y-45943D01*
X65116Y-46324D02*
X65058Y-46286D01*
X65030Y-46248D01*
X65001Y-46171D01*
X65001Y-45943D01*
X65030Y-45867D01*
X65058Y-45829D01*
X65116Y-45790D01*
X65201Y-45790D01*
X65258Y-45829D01*
X65287Y-45867D01*
X65316Y-45943D01*
X65316Y-46171D01*
X65287Y-46248D01*
X65258Y-46286D01*
X65201Y-46324D01*
X65116Y-46324D01*
X65516Y-45790D02*
X65630Y-46324D01*
X65744Y-45943D01*
X65859Y-46324D01*
X65973Y-45790D01*
X66430Y-46286D02*
X66373Y-46324D01*
X66259Y-46324D01*
X66202Y-46286D01*
X66173Y-46210D01*
X66173Y-45905D01*
X66202Y-45829D01*
X66259Y-45790D01*
X66373Y-45790D01*
X66430Y-45829D01*
X66459Y-45905D01*
X66459Y-45981D01*
X66173Y-46057D01*
X66716Y-46324D02*
X66716Y-45790D01*
X66716Y-45943D02*
X66744Y-45867D01*
X66773Y-45829D01*
X66830Y-45790D01*
X66887Y-45790D01*
X67087Y-46324D02*
X67087Y-45524D01*
X67287Y-46095D01*
X67487Y-45524D01*
X67487Y-46324D01*
X68001Y-46286D02*
X67944Y-46324D01*
X67830Y-46324D01*
X67773Y-46286D01*
X67744Y-46210D01*
X67744Y-45905D01*
X67773Y-45829D01*
X67830Y-45790D01*
X67944Y-45790D01*
X68001Y-45829D01*
X68030Y-45905D01*
X68030Y-45981D01*
X67744Y-46057D01*
X68201Y-45790D02*
X68430Y-45790D01*
X68287Y-45524D02*
X68287Y-46210D01*
X68315Y-46286D01*
X68373Y-46324D01*
X68430Y-46324D01*
X68858Y-46286D02*
X68801Y-46324D01*
X68687Y-46324D01*
X68630Y-46286D01*
X68601Y-46210D01*
X68601Y-45905D01*
X68630Y-45829D01*
X68687Y-45790D01*
X68801Y-45790D01*
X68858Y-45829D01*
X68887Y-45905D01*
X68887Y-45981D01*
X68601Y-46057D01*
X69144Y-46324D02*
X69144Y-45790D01*
X69144Y-45943D02*
X69172Y-45867D01*
X69201Y-45829D01*
X69258Y-45790D01*
X69315Y-45790D01*
X69915Y-45790D02*
X70058Y-46324D01*
X70200Y-45790D01*
X70543Y-45524D02*
X70600Y-45524D01*
X70657Y-45562D01*
X70686Y-45600D01*
X70715Y-45676D01*
X70743Y-45829D01*
X70743Y-46019D01*
X70715Y-46171D01*
X70686Y-46248D01*
X70657Y-46286D01*
X70600Y-46324D01*
X70543Y-46324D01*
X70486Y-46286D01*
X70457Y-46248D01*
X70429Y-46171D01*
X70400Y-46019D01*
X70400Y-45829D01*
X70429Y-45676D01*
X70457Y-45600D01*
X70486Y-45562D01*
X70543Y-45524D01*
X71000Y-46248D02*
X71028Y-46286D01*
X71000Y-46324D01*
X70971Y-46286D01*
X71000Y-46248D01*
X71000Y-46324D01*
X71257Y-45600D02*
X71286Y-45562D01*
X71343Y-45524D01*
X71486Y-45524D01*
X71543Y-45562D01*
X71572Y-45600D01*
X71600Y-45676D01*
X71600Y-45752D01*
X71572Y-45867D01*
X71229Y-46324D01*
X71600Y-46324D01*
G54D12*
X56836Y-45685D02*
X56835Y-45692D01*
X56832Y-45700D01*
X56829Y-45707D01*
X56824Y-45713D01*
X56818Y-45718D01*
X56811Y-45721D01*
X56804Y-45724D01*
X56796Y-45724D01*
X56789Y-45724D01*
X56782Y-45722D01*
X56775Y-45718D01*
X56769Y-45713D01*
X56763Y-45707D01*
X56760Y-45700D01*
X56757Y-45693D01*
X56757Y-45685D01*
X56757Y-45678D01*
X56759Y-45671D01*
X56763Y-45664D01*
X56768Y-45658D01*
X56774Y-45653D01*
X56780Y-45649D01*
X56788Y-45646D01*
X56796Y-45646D01*
X56802Y-45646D01*
X56810Y-45648D01*
X56817Y-45652D01*
X56823Y-45657D01*
X56828Y-45662D01*
X56832Y-45669D01*
X56835Y-45677D01*
X56835Y-45684D01*
X56836Y-45685D01*
G54D13*
X56177Y-46315D02*
X56748Y-46315D01*
X56177Y-45685D02*
X56748Y-45685D01*
X55252Y-45685D02*
X55252Y-46315D01*
X55252Y-46315D02*
X55803Y-46315D01*
X55252Y-45685D02*
X55803Y-45685D01*
X56748Y-46315D02*
X56748Y-45685D01*
G54D12*
X58836Y-45685D02*
X58835Y-45692D01*
X58832Y-45700D01*
X58829Y-45707D01*
X58824Y-45713D01*
X58818Y-45718D01*
X58811Y-45721D01*
X58804Y-45724D01*
X58796Y-45724D01*
X58789Y-45724D01*
X58782Y-45722D01*
X58775Y-45718D01*
X58769Y-45713D01*
X58763Y-45707D01*
X58760Y-45700D01*
X58757Y-45693D01*
X58757Y-45685D01*
X58757Y-45678D01*
X58759Y-45671D01*
X58763Y-45664D01*
X58768Y-45658D01*
X58774Y-45653D01*
X58780Y-45649D01*
X58788Y-45646D01*
X58796Y-45646D01*
X58802Y-45646D01*
X58810Y-45648D01*
X58817Y-45652D01*
X58823Y-45657D01*
X58828Y-45662D01*
X58832Y-45669D01*
X58835Y-45677D01*
X58835Y-45684D01*
X58836Y-45685D01*
G54D13*
X58177Y-46315D02*
X58748Y-46315D01*
X58177Y-45685D02*
X58748Y-45685D01*
X57252Y-45685D02*
X57252Y-46315D01*
X57252Y-46315D02*
X57803Y-46315D01*
X57252Y-45685D02*
X57803Y-45685D01*
X58748Y-46315D02*
X58748Y-45685D01*
G54D10*
X52500Y-45500D02*
X51500Y-45500D01*
X51500Y-45500D02*
X51500Y-44500D01*
X51500Y-44500D02*
X52500Y-44500D01*
X52500Y-44500D02*
X52500Y-45500D01*
X52472Y-42626D02*
X51472Y-42626D01*
X51472Y-42626D02*
X51472Y-41626D01*
X51472Y-41626D02*
X52472Y-41626D01*
X52472Y-41626D02*
X52472Y-42626D01*
X54500Y-30750D02*
X54500Y-31750D01*
X54500Y-31750D02*
X53500Y-31750D01*
X53500Y-31750D02*
X53500Y-30750D01*
X53500Y-30750D02*
X54500Y-30750D01*
X71500Y-44500D02*
X71500Y-43500D01*
X71500Y-43500D02*
X72500Y-43500D01*
X72500Y-43500D02*
X72500Y-44500D01*
X72500Y-44500D02*
X71500Y-44500D01*
X69500Y-44500D02*
X69500Y-43500D01*
X69500Y-43500D02*
X70500Y-43500D01*
X70500Y-43500D02*
X70500Y-44500D01*
X70500Y-44500D02*
X69500Y-44500D01*
X67500Y-44500D02*
X67500Y-43500D01*
X67500Y-43500D02*
X68500Y-43500D01*
X68500Y-43500D02*
X68500Y-44500D01*
X68500Y-44500D02*
X67500Y-44500D01*
X56500Y-30750D02*
X56500Y-31750D01*
X56500Y-31750D02*
X55500Y-31750D01*
X55500Y-31750D02*
X55500Y-30750D01*
X55500Y-30750D02*
X56500Y-30750D01*
X63500Y-44500D02*
X63500Y-43500D01*
X63500Y-43500D02*
X64500Y-43500D01*
X64500Y-43500D02*
X64500Y-44500D01*
X64500Y-44500D02*
X63500Y-44500D01*
G54D11*
X62500Y-31750D02*
X62500Y-30750D01*
X57500Y-30750D02*
X57500Y-31750D01*
X62500Y-31750D02*
X57500Y-31750D01*
X57500Y-30750D02*
X62500Y-30750D01*
G54D10*
X65500Y-44500D02*
X65500Y-43500D01*
X65500Y-43500D02*
X66500Y-43500D01*
X66500Y-43500D02*
X66500Y-44500D01*
X66500Y-44500D02*
X65500Y-44500D01*
G54D11*
X67300Y-49500D02*
X67300Y-47500D01*
X65000Y-47500D02*
X65000Y-49500D01*
X66000Y-49500D02*
X66000Y-47500D01*
X65000Y-47500D02*
X66100Y-47500D01*
X66000Y-47500D02*
X70550Y-47500D01*
X70550Y-47500D02*
X70550Y-49500D01*
X70550Y-49500D02*
X65500Y-49500D01*
X65050Y-49500D02*
X65000Y-49500D01*
X66000Y-49500D02*
X65000Y-49500D01*
G54D10*
X55500Y-47500D02*
X56500Y-47500D01*
X56500Y-47500D02*
X56500Y-49500D01*
X56500Y-49500D02*
X55500Y-49500D01*
X55500Y-49500D02*
X55500Y-47500D01*
X57500Y-47500D02*
X58500Y-47500D01*
X58500Y-47500D02*
X58500Y-49500D01*
X58500Y-49500D02*
X57500Y-49500D01*
X57500Y-49500D02*
X57500Y-47500D01*
G54D14*
X63500Y-49500D02*
X60500Y-49500D01*
X60500Y-47500D02*
X63500Y-47500D01*
X63500Y-47500D02*
X63500Y-49500D01*
X60500Y-49500D02*
X60500Y-47500D01*
G54D15*
X51988Y-36406D02*
X53012Y-36406D01*
X51988Y-34949D02*
X51988Y-34594D01*
X51988Y-34594D02*
X53012Y-34594D01*
X51988Y-36406D02*
X51988Y-36051D01*
G54D13*
X59299Y-36701D02*
X59299Y-39299D01*
X59299Y-39299D02*
X56701Y-39299D01*
X56701Y-39299D02*
X56701Y-36898D01*
X56701Y-36898D02*
X56898Y-36701D01*
X56898Y-36701D02*
X59299Y-36701D01*
X57228Y-37031D02*
X57224Y-37067D01*
X57213Y-37102D01*
X57196Y-37135D01*
X57173Y-37163D01*
X57145Y-37186D01*
X57112Y-37204D01*
X57077Y-37215D01*
X57041Y-37218D01*
X57005Y-37215D01*
X56970Y-37205D01*
X56938Y-37188D01*
X56909Y-37165D01*
X56885Y-37137D01*
X56868Y-37105D01*
X56857Y-37070D01*
X56853Y-37033D01*
X56856Y-36998D01*
X56866Y-36962D01*
X56882Y-36930D01*
X56905Y-36901D01*
X56933Y-36877D01*
X56965Y-36859D01*
X57000Y-36848D01*
X57037Y-36844D01*
X57072Y-36846D01*
X57107Y-36856D01*
X57140Y-36873D01*
X57169Y-36895D01*
X57193Y-36923D01*
X57211Y-36955D01*
X57223Y-36990D01*
X57227Y-37026D01*
X57228Y-37031D01*
G54D16*
X61889Y-41728D02*
X61888Y-41737D01*
X61885Y-41747D01*
X61880Y-41755D01*
X61874Y-41763D01*
X61866Y-41769D01*
X61858Y-41774D01*
X61849Y-41776D01*
X61839Y-41777D01*
X61830Y-41777D01*
X61821Y-41774D01*
X61812Y-41769D01*
X61805Y-41763D01*
X61798Y-41756D01*
X61794Y-41747D01*
X61791Y-41738D01*
X61790Y-41728D01*
X61790Y-41719D01*
X61793Y-41710D01*
X61797Y-41701D01*
X61804Y-41694D01*
X61811Y-41687D01*
X61819Y-41683D01*
X61829Y-41680D01*
X61838Y-41679D01*
X61847Y-41679D01*
X61857Y-41682D01*
X61865Y-41686D01*
X61873Y-41692D01*
X61879Y-41700D01*
X61884Y-41708D01*
X61887Y-41717D01*
X61888Y-41727D01*
X61889Y-41728D01*
X61839Y-41278D02*
X61839Y-41678D01*
X61839Y-41678D02*
X61161Y-41678D01*
X61161Y-41679D02*
X61161Y-41279D01*
X61161Y-40722D02*
X61161Y-40322D01*
X61161Y-40322D02*
X61839Y-40322D01*
X61839Y-40321D02*
X61839Y-40721D01*
X56211Y-32772D02*
X56210Y-32781D01*
X56207Y-32791D01*
X56202Y-32799D01*
X56196Y-32807D01*
X56188Y-32813D01*
X56180Y-32818D01*
X56171Y-32820D01*
X56161Y-32821D01*
X56152Y-32821D01*
X56143Y-32818D01*
X56134Y-32813D01*
X56127Y-32807D01*
X56120Y-32800D01*
X56116Y-32791D01*
X56113Y-32782D01*
X56112Y-32772D01*
X56112Y-32763D01*
X56115Y-32754D01*
X56119Y-32745D01*
X56126Y-32738D01*
X56133Y-32731D01*
X56141Y-32727D01*
X56151Y-32724D01*
X56160Y-32723D01*
X56169Y-32723D01*
X56179Y-32726D01*
X56187Y-32730D01*
X56195Y-32736D01*
X56201Y-32744D01*
X56206Y-32752D01*
X56209Y-32761D01*
X56210Y-32771D01*
X56211Y-32772D01*
X56161Y-33222D02*
X56161Y-32822D01*
X56161Y-32822D02*
X56839Y-32822D01*
X56839Y-32821D02*
X56839Y-33221D01*
X56839Y-33778D02*
X56839Y-34178D01*
X56839Y-34178D02*
X56161Y-34178D01*
X56161Y-34179D02*
X56161Y-33779D01*
X57322Y-44839D02*
X57321Y-44848D01*
X57318Y-44858D01*
X57313Y-44866D01*
X57307Y-44874D01*
X57299Y-44880D01*
X57291Y-44885D01*
X57282Y-44887D01*
X57272Y-44888D01*
X57263Y-44888D01*
X57254Y-44885D01*
X57245Y-44880D01*
X57238Y-44874D01*
X57231Y-44867D01*
X57227Y-44858D01*
X57224Y-44849D01*
X57223Y-44839D01*
X57223Y-44830D01*
X57226Y-44821D01*
X57230Y-44812D01*
X57237Y-44805D01*
X57244Y-44798D01*
X57252Y-44794D01*
X57262Y-44791D01*
X57271Y-44790D01*
X57280Y-44790D01*
X57290Y-44793D01*
X57298Y-44797D01*
X57306Y-44803D01*
X57312Y-44811D01*
X57317Y-44819D01*
X57320Y-44828D01*
X57321Y-44838D01*
X57322Y-44839D01*
X57722Y-44839D02*
X57322Y-44839D01*
X57322Y-44839D02*
X57322Y-44161D01*
X57321Y-44161D02*
X57721Y-44161D01*
X58278Y-44161D02*
X58678Y-44161D01*
X58678Y-44161D02*
X58678Y-44839D01*
X58679Y-44839D02*
X58279Y-44839D01*
X55322Y-44839D02*
X55321Y-44848D01*
X55318Y-44858D01*
X55313Y-44866D01*
X55307Y-44874D01*
X55299Y-44880D01*
X55291Y-44885D01*
X55282Y-44887D01*
X55272Y-44888D01*
X55263Y-44888D01*
X55254Y-44885D01*
X55245Y-44880D01*
X55238Y-44874D01*
X55231Y-44867D01*
X55227Y-44858D01*
X55224Y-44849D01*
X55223Y-44839D01*
X55223Y-44830D01*
X55226Y-44821D01*
X55230Y-44812D01*
X55237Y-44805D01*
X55244Y-44798D01*
X55252Y-44794D01*
X55262Y-44791D01*
X55271Y-44790D01*
X55280Y-44790D01*
X55290Y-44793D01*
X55298Y-44797D01*
X55306Y-44803D01*
X55312Y-44811D01*
X55317Y-44819D01*
X55320Y-44828D01*
X55321Y-44838D01*
X55322Y-44839D01*
X55722Y-44839D02*
X55322Y-44839D01*
X55322Y-44839D02*
X55322Y-44161D01*
X55321Y-44161D02*
X55721Y-44161D01*
X56278Y-44161D02*
X56678Y-44161D01*
X56678Y-44161D02*
X56678Y-44839D01*
X56679Y-44839D02*
X56279Y-44839D01*
X59211Y-32772D02*
X59210Y-32781D01*
X59207Y-32791D01*
X59202Y-32799D01*
X59196Y-32807D01*
X59188Y-32813D01*
X59180Y-32818D01*
X59171Y-32820D01*
X59161Y-32821D01*
X59152Y-32821D01*
X59143Y-32818D01*
X59134Y-32813D01*
X59127Y-32807D01*
X59120Y-32800D01*
X59116Y-32791D01*
X59113Y-32782D01*
X59112Y-32772D01*
X59112Y-32763D01*
X59115Y-32754D01*
X59119Y-32745D01*
X59126Y-32738D01*
X59133Y-32731D01*
X59141Y-32727D01*
X59151Y-32724D01*
X59160Y-32723D01*
X59169Y-32723D01*
X59179Y-32726D01*
X59187Y-32730D01*
X59195Y-32736D01*
X59201Y-32744D01*
X59206Y-32752D01*
X59209Y-32761D01*
X59210Y-32771D01*
X59211Y-32772D01*
X59161Y-33222D02*
X59161Y-32822D01*
X59161Y-32822D02*
X59839Y-32822D01*
X59839Y-32821D02*
X59839Y-33221D01*
X59839Y-33778D02*
X59839Y-34178D01*
X59839Y-34178D02*
X59161Y-34178D01*
X59161Y-34179D02*
X59161Y-33779D01*
X60711Y-32772D02*
X60710Y-32781D01*
X60707Y-32791D01*
X60702Y-32799D01*
X60696Y-32807D01*
X60688Y-32813D01*
X60680Y-32818D01*
X60671Y-32820D01*
X60661Y-32821D01*
X60652Y-32821D01*
X60643Y-32818D01*
X60634Y-32813D01*
X60627Y-32807D01*
X60620Y-32800D01*
X60616Y-32791D01*
X60613Y-32782D01*
X60612Y-32772D01*
X60612Y-32763D01*
X60615Y-32754D01*
X60619Y-32745D01*
X60626Y-32738D01*
X60633Y-32731D01*
X60641Y-32727D01*
X60651Y-32724D01*
X60660Y-32723D01*
X60669Y-32723D01*
X60679Y-32726D01*
X60687Y-32730D01*
X60695Y-32736D01*
X60701Y-32744D01*
X60706Y-32752D01*
X60709Y-32761D01*
X60710Y-32771D01*
X60711Y-32772D01*
X60661Y-33222D02*
X60661Y-32822D01*
X60661Y-32822D02*
X61339Y-32822D01*
X61339Y-32821D02*
X61339Y-33221D01*
X61339Y-33778D02*
X61339Y-34178D01*
X61339Y-34178D02*
X60661Y-34178D01*
X60661Y-34179D02*
X60661Y-33779D01*
X54711Y-32772D02*
X54710Y-32781D01*
X54707Y-32791D01*
X54702Y-32799D01*
X54696Y-32807D01*
X54688Y-32813D01*
X54680Y-32818D01*
X54671Y-32820D01*
X54661Y-32821D01*
X54652Y-32821D01*
X54643Y-32818D01*
X54634Y-32813D01*
X54627Y-32807D01*
X54620Y-32800D01*
X54616Y-32791D01*
X54613Y-32782D01*
X54612Y-32772D01*
X54612Y-32763D01*
X54615Y-32754D01*
X54619Y-32745D01*
X54626Y-32738D01*
X54633Y-32731D01*
X54641Y-32727D01*
X54651Y-32724D01*
X54660Y-32723D01*
X54669Y-32723D01*
X54679Y-32726D01*
X54687Y-32730D01*
X54695Y-32736D01*
X54701Y-32744D01*
X54706Y-32752D01*
X54709Y-32761D01*
X54710Y-32771D01*
X54711Y-32772D01*
X54661Y-33222D02*
X54661Y-32822D01*
X54661Y-32822D02*
X55339Y-32822D01*
X55339Y-32821D02*
X55339Y-33221D01*
X55339Y-33778D02*
X55339Y-34178D01*
X55339Y-34178D02*
X54661Y-34178D01*
X54661Y-34179D02*
X54661Y-33779D01*
X57711Y-32772D02*
X57710Y-32781D01*
X57707Y-32791D01*
X57702Y-32799D01*
X57696Y-32807D01*
X57688Y-32813D01*
X57680Y-32818D01*
X57671Y-32820D01*
X57661Y-32821D01*
X57652Y-32821D01*
X57643Y-32818D01*
X57634Y-32813D01*
X57627Y-32807D01*
X57620Y-32800D01*
X57616Y-32791D01*
X57613Y-32782D01*
X57612Y-32772D01*
X57612Y-32763D01*
X57615Y-32754D01*
X57619Y-32745D01*
X57626Y-32738D01*
X57633Y-32731D01*
X57641Y-32727D01*
X57651Y-32724D01*
X57660Y-32723D01*
X57669Y-32723D01*
X57679Y-32726D01*
X57687Y-32730D01*
X57695Y-32736D01*
X57701Y-32744D01*
X57706Y-32752D01*
X57709Y-32761D01*
X57710Y-32771D01*
X57711Y-32772D01*
X57661Y-33222D02*
X57661Y-32822D01*
X57661Y-32822D02*
X58339Y-32822D01*
X58339Y-32821D02*
X58339Y-33221D01*
X58339Y-33778D02*
X58339Y-34178D01*
X58339Y-34178D02*
X57661Y-34178D01*
X57661Y-34179D02*
X57661Y-33779D01*
X61889Y-39728D02*
X61888Y-39737D01*
X61885Y-39747D01*
X61880Y-39755D01*
X61874Y-39763D01*
X61866Y-39769D01*
X61858Y-39774D01*
X61849Y-39776D01*
X61839Y-39777D01*
X61830Y-39777D01*
X61821Y-39774D01*
X61812Y-39769D01*
X61805Y-39763D01*
X61798Y-39756D01*
X61794Y-39747D01*
X61791Y-39738D01*
X61790Y-39728D01*
X61790Y-39719D01*
X61793Y-39710D01*
X61797Y-39701D01*
X61804Y-39694D01*
X61811Y-39687D01*
X61819Y-39683D01*
X61829Y-39680D01*
X61838Y-39679D01*
X61847Y-39679D01*
X61857Y-39682D01*
X61865Y-39686D01*
X61873Y-39692D01*
X61879Y-39700D01*
X61884Y-39708D01*
X61887Y-39717D01*
X61888Y-39727D01*
X61889Y-39728D01*
X61839Y-39278D02*
X61839Y-39678D01*
X61839Y-39678D02*
X61161Y-39678D01*
X61161Y-39679D02*
X61161Y-39279D01*
X61161Y-38722D02*
X61161Y-38322D01*
X61161Y-38322D02*
X61839Y-38322D01*
X61839Y-38321D02*
X61839Y-38721D01*
X54889Y-37728D02*
X54888Y-37737D01*
X54885Y-37747D01*
X54880Y-37755D01*
X54874Y-37763D01*
X54866Y-37769D01*
X54858Y-37774D01*
X54849Y-37776D01*
X54839Y-37777D01*
X54830Y-37777D01*
X54821Y-37774D01*
X54812Y-37769D01*
X54805Y-37763D01*
X54798Y-37756D01*
X54794Y-37747D01*
X54791Y-37738D01*
X54790Y-37728D01*
X54790Y-37719D01*
X54793Y-37710D01*
X54797Y-37701D01*
X54804Y-37694D01*
X54811Y-37687D01*
X54819Y-37683D01*
X54829Y-37680D01*
X54838Y-37679D01*
X54847Y-37679D01*
X54857Y-37682D01*
X54865Y-37686D01*
X54873Y-37692D01*
X54879Y-37700D01*
X54884Y-37708D01*
X54887Y-37717D01*
X54888Y-37727D01*
X54889Y-37728D01*
X54839Y-37278D02*
X54839Y-37678D01*
X54839Y-37678D02*
X54161Y-37678D01*
X54161Y-37679D02*
X54161Y-37279D01*
X54161Y-36722D02*
X54161Y-36322D01*
X54161Y-36322D02*
X54839Y-36322D01*
X54839Y-36321D02*
X54839Y-36721D01*
X58778Y-42661D02*
X58777Y-42670D01*
X58774Y-42680D01*
X58769Y-42688D01*
X58763Y-42696D01*
X58755Y-42702D01*
X58747Y-42707D01*
X58738Y-42709D01*
X58728Y-42710D01*
X58719Y-42710D01*
X58710Y-42707D01*
X58701Y-42702D01*
X58694Y-42696D01*
X58687Y-42689D01*
X58683Y-42680D01*
X58680Y-42671D01*
X58679Y-42661D01*
X58679Y-42652D01*
X58682Y-42643D01*
X58686Y-42634D01*
X58693Y-42627D01*
X58700Y-42620D01*
X58708Y-42616D01*
X58718Y-42613D01*
X58727Y-42612D01*
X58736Y-42612D01*
X58746Y-42615D01*
X58754Y-42619D01*
X58762Y-42625D01*
X58768Y-42633D01*
X58773Y-42641D01*
X58776Y-42650D01*
X58777Y-42660D01*
X58778Y-42661D01*
X58278Y-42661D02*
X58678Y-42661D01*
X58678Y-42661D02*
X58678Y-43339D01*
X58679Y-43339D02*
X58279Y-43339D01*
X57722Y-43339D02*
X57322Y-43339D01*
X57322Y-43339D02*
X57322Y-42661D01*
X57321Y-42661D02*
X57721Y-42661D01*
X54889Y-39728D02*
X54888Y-39737D01*
X54885Y-39747D01*
X54880Y-39755D01*
X54874Y-39763D01*
X54866Y-39769D01*
X54858Y-39774D01*
X54849Y-39776D01*
X54839Y-39777D01*
X54830Y-39777D01*
X54821Y-39774D01*
X54812Y-39769D01*
X54805Y-39763D01*
X54798Y-39756D01*
X54794Y-39747D01*
X54791Y-39738D01*
X54790Y-39728D01*
X54790Y-39719D01*
X54793Y-39710D01*
X54797Y-39701D01*
X54804Y-39694D01*
X54811Y-39687D01*
X54819Y-39683D01*
X54829Y-39680D01*
X54838Y-39679D01*
X54847Y-39679D01*
X54857Y-39682D01*
X54865Y-39686D01*
X54873Y-39692D01*
X54879Y-39700D01*
X54884Y-39708D01*
X54887Y-39717D01*
X54888Y-39727D01*
X54889Y-39728D01*
X54839Y-39278D02*
X54839Y-39678D01*
X54839Y-39678D02*
X54161Y-39678D01*
X54161Y-39679D02*
X54161Y-39279D01*
X54161Y-38722D02*
X54161Y-38322D01*
X54161Y-38322D02*
X54839Y-38322D01*
X54839Y-38321D02*
X54839Y-38721D01*
X56778Y-42661D02*
X56777Y-42670D01*
X56774Y-42680D01*
X56769Y-42688D01*
X56763Y-42696D01*
X56755Y-42702D01*
X56747Y-42707D01*
X56738Y-42709D01*
X56728Y-42710D01*
X56719Y-42710D01*
X56710Y-42707D01*
X56701Y-42702D01*
X56694Y-42696D01*
X56687Y-42689D01*
X56683Y-42680D01*
X56680Y-42671D01*
X56679Y-42661D01*
X56679Y-42652D01*
X56682Y-42643D01*
X56686Y-42634D01*
X56693Y-42627D01*
X56700Y-42620D01*
X56708Y-42616D01*
X56718Y-42613D01*
X56727Y-42612D01*
X56736Y-42612D01*
X56746Y-42615D01*
X56754Y-42619D01*
X56762Y-42625D01*
X56768Y-42633D01*
X56773Y-42641D01*
X56776Y-42650D01*
X56777Y-42660D01*
X56778Y-42661D01*
X56278Y-42661D02*
X56678Y-42661D01*
X56678Y-42661D02*
X56678Y-43339D01*
X56679Y-43339D02*
X56279Y-43339D01*
X55722Y-43339D02*
X55322Y-43339D01*
X55322Y-43339D02*
X55322Y-42661D01*
X55321Y-42661D02*
X55721Y-42661D01*
X61889Y-37728D02*
X61888Y-37737D01*
X61885Y-37747D01*
X61880Y-37755D01*
X61874Y-37763D01*
X61866Y-37769D01*
X61858Y-37774D01*
X61849Y-37776D01*
X61839Y-37777D01*
X61830Y-37777D01*
X61821Y-37774D01*
X61812Y-37769D01*
X61805Y-37763D01*
X61798Y-37756D01*
X61794Y-37747D01*
X61791Y-37738D01*
X61790Y-37728D01*
X61790Y-37719D01*
X61793Y-37710D01*
X61797Y-37701D01*
X61804Y-37694D01*
X61811Y-37687D01*
X61819Y-37683D01*
X61829Y-37680D01*
X61838Y-37679D01*
X61847Y-37679D01*
X61857Y-37682D01*
X61865Y-37686D01*
X61873Y-37692D01*
X61879Y-37700D01*
X61884Y-37708D01*
X61887Y-37717D01*
X61888Y-37727D01*
X61889Y-37728D01*
X61839Y-37278D02*
X61839Y-37678D01*
X61839Y-37678D02*
X61161Y-37678D01*
X61161Y-37679D02*
X61161Y-37279D01*
X61161Y-36722D02*
X61161Y-36322D01*
X61161Y-36322D02*
X61839Y-36322D01*
X61839Y-36321D02*
X61839Y-36721D01*
X53278Y-33161D02*
X53277Y-33170D01*
X53274Y-33180D01*
X53269Y-33188D01*
X53263Y-33196D01*
X53255Y-33202D01*
X53247Y-33207D01*
X53238Y-33209D01*
X53228Y-33210D01*
X53219Y-33210D01*
X53210Y-33207D01*
X53201Y-33202D01*
X53194Y-33196D01*
X53187Y-33189D01*
X53183Y-33180D01*
X53180Y-33171D01*
X53179Y-33161D01*
X53179Y-33152D01*
X53182Y-33143D01*
X53186Y-33134D01*
X53193Y-33127D01*
X53200Y-33120D01*
X53208Y-33116D01*
X53218Y-33113D01*
X53227Y-33112D01*
X53236Y-33112D01*
X53246Y-33115D01*
X53254Y-33119D01*
X53262Y-33125D01*
X53268Y-33133D01*
X53273Y-33141D01*
X53276Y-33150D01*
X53277Y-33160D01*
X53278Y-33161D01*
X52778Y-33161D02*
X53178Y-33161D01*
X53178Y-33161D02*
X53178Y-33839D01*
X53179Y-33839D02*
X52779Y-33839D01*
X52222Y-33839D02*
X51822Y-33839D01*
X51822Y-33839D02*
X51822Y-33161D01*
X51821Y-33161D02*
X52221Y-33161D01*
X53278Y-37161D02*
X53277Y-37170D01*
X53274Y-37180D01*
X53269Y-37188D01*
X53263Y-37196D01*
X53255Y-37202D01*
X53247Y-37207D01*
X53238Y-37209D01*
X53228Y-37210D01*
X53219Y-37210D01*
X53210Y-37207D01*
X53201Y-37202D01*
X53194Y-37196D01*
X53187Y-37189D01*
X53183Y-37180D01*
X53180Y-37171D01*
X53179Y-37161D01*
X53179Y-37152D01*
X53182Y-37143D01*
X53186Y-37134D01*
X53193Y-37127D01*
X53200Y-37120D01*
X53208Y-37116D01*
X53218Y-37113D01*
X53227Y-37112D01*
X53236Y-37112D01*
X53246Y-37115D01*
X53254Y-37119D01*
X53262Y-37125D01*
X53268Y-37133D01*
X53273Y-37141D01*
X53276Y-37150D01*
X53277Y-37160D01*
X53278Y-37161D01*
X52778Y-37161D02*
X53178Y-37161D01*
X53178Y-37161D02*
X53178Y-37839D01*
X53179Y-37839D02*
X52779Y-37839D01*
X52222Y-37839D02*
X51822Y-37839D01*
X51822Y-37839D02*
X51822Y-37161D01*
X51821Y-37161D02*
X52221Y-37161D01*
G54D17*
X51646Y-39224D02*
X52354Y-39224D01*
X52354Y-39224D02*
X52354Y-39776D01*
X52354Y-39776D02*
X51646Y-39776D01*
X51646Y-39776D02*
X51646Y-39224D01*
X52197Y-39224D02*
X52197Y-39776D01*
G54D16*
X53950Y-41300D02*
X53950Y-41900D01*
X53950Y-41900D02*
X55050Y-41900D01*
X55050Y-41900D02*
X55050Y-41300D01*
X55050Y-40700D02*
X55050Y-40100D01*
X55050Y-40100D02*
X53950Y-40100D01*
X53950Y-40100D02*
X53950Y-40700D01*
G54D15*
X62876Y-33101D02*
X66025Y-30739D01*
X66025Y-30739D02*
X69962Y-30739D01*
X69962Y-30739D02*
X73112Y-33101D01*
X73112Y-33101D02*
X73112Y-42962D01*
X73112Y-42962D02*
X62876Y-42962D01*
X62876Y-42962D02*
X62876Y-33101D01*
G54D16*
X55778Y-45590D02*
X55778Y-45290D01*
X55850Y-45290D01*
X55893Y-45305D01*
X55921Y-45333D01*
X55936Y-45362D01*
X55950Y-45419D01*
X55950Y-45462D01*
X55936Y-45519D01*
X55921Y-45548D01*
X55893Y-45576D01*
X55850Y-45590D01*
X55778Y-45590D01*
X56064Y-45319D02*
X56078Y-45305D01*
X56107Y-45290D01*
X56178Y-45290D01*
X56207Y-45305D01*
X56221Y-45319D01*
X56236Y-45348D01*
X56236Y-45376D01*
X56221Y-45419D01*
X56050Y-45590D01*
X56236Y-45590D01*
X55807Y-46712D02*
X55664Y-46712D01*
X55664Y-46412D01*
X55907Y-46555D02*
X56007Y-46555D01*
X56050Y-46712D02*
X55907Y-46712D01*
X55907Y-46412D01*
X56050Y-46412D01*
X56178Y-46712D02*
X56178Y-46412D01*
X56250Y-46412D01*
X56293Y-46427D01*
X56321Y-46455D01*
X56336Y-46484D01*
X56350Y-46541D01*
X56350Y-46584D01*
X56336Y-46641D01*
X56321Y-46670D01*
X56293Y-46698D01*
X56250Y-46712D01*
X56178Y-46712D01*
X57778Y-45590D02*
X57778Y-45290D01*
X57850Y-45290D01*
X57893Y-45305D01*
X57921Y-45333D01*
X57936Y-45362D01*
X57950Y-45419D01*
X57950Y-45462D01*
X57936Y-45519D01*
X57921Y-45548D01*
X57893Y-45576D01*
X57850Y-45590D01*
X57778Y-45590D01*
X58050Y-45290D02*
X58236Y-45290D01*
X58136Y-45405D01*
X58178Y-45405D01*
X58207Y-45419D01*
X58221Y-45433D01*
X58236Y-45462D01*
X58236Y-45533D01*
X58221Y-45562D01*
X58207Y-45576D01*
X58178Y-45590D01*
X58093Y-45590D01*
X58064Y-45576D01*
X58050Y-45562D01*
X57807Y-46712D02*
X57664Y-46712D01*
X57664Y-46412D01*
X57907Y-46555D02*
X58007Y-46555D01*
X58050Y-46712D02*
X57907Y-46712D01*
X57907Y-46412D01*
X58050Y-46412D01*
X58178Y-46712D02*
X58178Y-46412D01*
X58250Y-46412D01*
X58293Y-46427D01*
X58321Y-46455D01*
X58336Y-46484D01*
X58350Y-46541D01*
X58350Y-46584D01*
X58336Y-46641D01*
X58321Y-46670D01*
X58293Y-46698D01*
X58250Y-46712D01*
X58178Y-46712D01*
G54D10*
X51371Y-45222D02*
X51071Y-45222D01*
X51071Y-45107D01*
X51086Y-45079D01*
X51100Y-45064D01*
X51129Y-45050D01*
X51171Y-45050D01*
X51200Y-45064D01*
X51214Y-45079D01*
X51229Y-45107D01*
X51229Y-45222D01*
X51371Y-44764D02*
X51371Y-44936D01*
X51371Y-44850D02*
X51071Y-44850D01*
X51114Y-44879D01*
X51143Y-44907D01*
X51157Y-44936D01*
X51343Y-42348D02*
X51043Y-42348D01*
X51043Y-42233D01*
X51058Y-42205D01*
X51072Y-42190D01*
X51101Y-42176D01*
X51143Y-42176D01*
X51172Y-42190D01*
X51186Y-42205D01*
X51201Y-42233D01*
X51201Y-42348D01*
X51072Y-42062D02*
X51058Y-42048D01*
X51043Y-42019D01*
X51043Y-41948D01*
X51058Y-41919D01*
X51072Y-41905D01*
X51101Y-41890D01*
X51129Y-41890D01*
X51172Y-41905D01*
X51343Y-42076D01*
X51343Y-41890D01*
X53778Y-32121D02*
X53778Y-31821D01*
X53893Y-31821D01*
X53921Y-31836D01*
X53936Y-31850D01*
X53950Y-31879D01*
X53950Y-31921D01*
X53936Y-31950D01*
X53921Y-31964D01*
X53893Y-31979D01*
X53778Y-31979D01*
X54050Y-31821D02*
X54236Y-31821D01*
X54136Y-31936D01*
X54178Y-31936D01*
X54207Y-31950D01*
X54221Y-31964D01*
X54236Y-31993D01*
X54236Y-32064D01*
X54221Y-32093D01*
X54207Y-32107D01*
X54178Y-32121D01*
X54093Y-32121D01*
X54064Y-32107D01*
X54050Y-32093D01*
X71778Y-43371D02*
X71778Y-43071D01*
X71893Y-43071D01*
X71921Y-43086D01*
X71936Y-43100D01*
X71950Y-43129D01*
X71950Y-43171D01*
X71936Y-43200D01*
X71921Y-43214D01*
X71893Y-43229D01*
X71778Y-43229D01*
X72207Y-43171D02*
X72207Y-43371D01*
X72136Y-43057D02*
X72064Y-43271D01*
X72250Y-43271D01*
X69778Y-43371D02*
X69778Y-43071D01*
X69893Y-43071D01*
X69921Y-43086D01*
X69936Y-43100D01*
X69950Y-43129D01*
X69950Y-43171D01*
X69936Y-43200D01*
X69921Y-43214D01*
X69893Y-43229D01*
X69778Y-43229D01*
X70207Y-43071D02*
X70150Y-43071D01*
X70121Y-43086D01*
X70107Y-43100D01*
X70078Y-43143D01*
X70064Y-43200D01*
X70064Y-43314D01*
X70078Y-43343D01*
X70093Y-43357D01*
X70121Y-43371D01*
X70178Y-43371D01*
X70207Y-43357D01*
X70221Y-43343D01*
X70236Y-43314D01*
X70236Y-43243D01*
X70221Y-43214D01*
X70207Y-43200D01*
X70178Y-43186D01*
X70121Y-43186D01*
X70093Y-43200D01*
X70078Y-43214D01*
X70064Y-43243D01*
X67778Y-43371D02*
X67778Y-43071D01*
X67893Y-43071D01*
X67921Y-43086D01*
X67936Y-43100D01*
X67950Y-43129D01*
X67950Y-43171D01*
X67936Y-43200D01*
X67921Y-43214D01*
X67893Y-43229D01*
X67778Y-43229D01*
X68050Y-43071D02*
X68250Y-43071D01*
X68121Y-43371D01*
X55778Y-32121D02*
X55778Y-31821D01*
X55893Y-31821D01*
X55921Y-31836D01*
X55936Y-31850D01*
X55950Y-31879D01*
X55950Y-31921D01*
X55936Y-31950D01*
X55921Y-31964D01*
X55893Y-31979D01*
X55778Y-31979D01*
X56093Y-32121D02*
X56150Y-32121D01*
X56178Y-32107D01*
X56193Y-32093D01*
X56221Y-32050D01*
X56236Y-31993D01*
X56236Y-31879D01*
X56221Y-31850D01*
X56207Y-31836D01*
X56178Y-31821D01*
X56121Y-31821D01*
X56093Y-31836D01*
X56078Y-31850D01*
X56064Y-31879D01*
X56064Y-31950D01*
X56078Y-31979D01*
X56093Y-31993D01*
X56121Y-32007D01*
X56178Y-32007D01*
X56207Y-31993D01*
X56221Y-31979D01*
X56236Y-31950D01*
X63635Y-43371D02*
X63635Y-43071D01*
X63750Y-43071D01*
X63778Y-43086D01*
X63793Y-43100D01*
X63807Y-43129D01*
X63807Y-43171D01*
X63793Y-43200D01*
X63778Y-43214D01*
X63750Y-43229D01*
X63635Y-43229D01*
X64093Y-43371D02*
X63921Y-43371D01*
X64007Y-43371D02*
X64007Y-43071D01*
X63978Y-43114D01*
X63950Y-43143D01*
X63921Y-43157D01*
X64279Y-43071D02*
X64307Y-43071D01*
X64336Y-43086D01*
X64350Y-43100D01*
X64364Y-43129D01*
X64379Y-43186D01*
X64379Y-43257D01*
X64364Y-43314D01*
X64350Y-43343D01*
X64336Y-43357D01*
X64307Y-43371D01*
X64279Y-43371D01*
X64250Y-43357D01*
X64236Y-43343D01*
X64221Y-43314D01*
X64207Y-43257D01*
X64207Y-43186D01*
X64221Y-43129D01*
X64236Y-43100D01*
X64250Y-43086D01*
X64279Y-43071D01*
G54D14*
X59705Y-32412D02*
X59705Y-32012D01*
X59858Y-32012D01*
X59896Y-32031D01*
X59915Y-32050D01*
X59934Y-32088D01*
X59934Y-32145D01*
X59915Y-32183D01*
X59896Y-32202D01*
X59858Y-32221D01*
X59705Y-32221D01*
X60162Y-32183D02*
X60124Y-32164D01*
X60105Y-32145D01*
X60086Y-32107D01*
X60086Y-32088D01*
X60105Y-32050D01*
X60124Y-32031D01*
X60162Y-32012D01*
X60239Y-32012D01*
X60277Y-32031D01*
X60296Y-32050D01*
X60315Y-32088D01*
X60315Y-32107D01*
X60296Y-32145D01*
X60277Y-32164D01*
X60239Y-32183D01*
X60162Y-32183D01*
X60124Y-32202D01*
X60105Y-32221D01*
X60086Y-32260D01*
X60086Y-32336D01*
X60105Y-32374D01*
X60124Y-32393D01*
X60162Y-32412D01*
X60239Y-32412D01*
X60277Y-32393D01*
X60296Y-32374D01*
X60315Y-32336D01*
X60315Y-32260D01*
X60296Y-32221D01*
X60277Y-32202D01*
X60239Y-32183D01*
G54D10*
X65778Y-43371D02*
X65778Y-43071D01*
X65893Y-43071D01*
X65921Y-43086D01*
X65936Y-43100D01*
X65950Y-43129D01*
X65950Y-43171D01*
X65936Y-43200D01*
X65921Y-43214D01*
X65893Y-43229D01*
X65778Y-43229D01*
X66221Y-43071D02*
X66078Y-43071D01*
X66064Y-43214D01*
X66078Y-43200D01*
X66107Y-43186D01*
X66178Y-43186D01*
X66207Y-43200D01*
X66221Y-43214D01*
X66236Y-43243D01*
X66236Y-43314D01*
X66221Y-43343D01*
X66207Y-43357D01*
X66178Y-43371D01*
X66107Y-43371D01*
X66078Y-43357D01*
X66064Y-43343D01*
X51740Y-32877D02*
X51740Y-32577D01*
X51740Y-32720D02*
X51912Y-32720D01*
X51912Y-32877D02*
X51912Y-32577D01*
X52212Y-32877D02*
X52040Y-32877D01*
X52126Y-32877D02*
X52126Y-32577D01*
X52097Y-32620D01*
X52069Y-32649D01*
X52040Y-32663D01*
X72606Y-32877D02*
X72606Y-32577D01*
X72606Y-32720D02*
X72778Y-32720D01*
X72778Y-32877D02*
X72778Y-32577D01*
X72906Y-32606D02*
X72920Y-32592D01*
X72949Y-32577D01*
X73020Y-32577D01*
X73049Y-32592D01*
X73063Y-32606D01*
X73078Y-32635D01*
X73078Y-32663D01*
X73063Y-32706D01*
X72892Y-32877D01*
X73078Y-32877D01*
X51740Y-47562D02*
X51740Y-47262D01*
X51740Y-47405D02*
X51912Y-47405D01*
X51912Y-47562D02*
X51912Y-47262D01*
X52026Y-47262D02*
X52212Y-47262D01*
X52112Y-47377D01*
X52154Y-47377D01*
X52183Y-47391D01*
X52197Y-47405D01*
X52212Y-47434D01*
X52212Y-47505D01*
X52197Y-47534D01*
X52183Y-47548D01*
X52154Y-47562D01*
X52069Y-47562D01*
X52040Y-47548D01*
X52026Y-47534D01*
X72606Y-47562D02*
X72606Y-47262D01*
X72606Y-47405D02*
X72778Y-47405D01*
X72778Y-47562D02*
X72778Y-47262D01*
X73049Y-47362D02*
X73049Y-47562D01*
X72978Y-47248D02*
X72906Y-47462D01*
X73092Y-47462D01*
G54D18*
X64840Y-48541D02*
X64808Y-48582D01*
X64743Y-48622D01*
X64645Y-48683D01*
X64613Y-48724D01*
X64613Y-48765D01*
X64775Y-48745D02*
X64743Y-48785D01*
X64678Y-48826D01*
X64548Y-48846D01*
X64321Y-48846D01*
X64191Y-48826D01*
X64127Y-48785D01*
X64094Y-48745D01*
X64094Y-48663D01*
X64127Y-48622D01*
X64191Y-48582D01*
X64321Y-48561D01*
X64548Y-48561D01*
X64678Y-48582D01*
X64743Y-48622D01*
X64775Y-48663D01*
X64775Y-48745D01*
X64775Y-48154D02*
X64775Y-48398D01*
X64775Y-48276D02*
X64094Y-48276D01*
X64191Y-48317D01*
X64256Y-48358D01*
X64289Y-48398D01*
G54D19*
X66628Y-48143D02*
X66705Y-48143D01*
X66743Y-48171D01*
X66781Y-48229D01*
X66800Y-48343D01*
X66800Y-48543D01*
X66781Y-48657D01*
X66743Y-48714D01*
X66705Y-48743D01*
X66628Y-48743D01*
X66590Y-48714D01*
X66552Y-48657D01*
X66533Y-48543D01*
X66533Y-48343D01*
X66552Y-48229D01*
X66590Y-48171D01*
X66628Y-48143D01*
X66971Y-48743D02*
X66971Y-48143D01*
X67124Y-48143D01*
X67162Y-48171D01*
X67181Y-48200D01*
X67200Y-48257D01*
X67200Y-48343D01*
X67181Y-48400D01*
X67162Y-48429D01*
X67124Y-48457D01*
X66971Y-48457D01*
X67314Y-48143D02*
X67543Y-48143D01*
X67428Y-48743D02*
X67428Y-48143D01*
X67752Y-48143D02*
X67829Y-48143D01*
X67867Y-48171D01*
X67905Y-48229D01*
X67924Y-48343D01*
X67924Y-48543D01*
X67905Y-48657D01*
X67867Y-48714D01*
X67829Y-48743D01*
X67752Y-48743D01*
X67714Y-48714D01*
X67676Y-48657D01*
X67657Y-48543D01*
X67657Y-48343D01*
X67676Y-48229D01*
X67714Y-48171D01*
X67752Y-48143D01*
X68000Y-48800D02*
X68305Y-48800D01*
X68400Y-48743D02*
X68400Y-48143D01*
X68629Y-48743D01*
X68629Y-48143D01*
X68819Y-48743D02*
X68819Y-48143D01*
X68972Y-48143D01*
X69010Y-48171D01*
X69029Y-48200D01*
X69048Y-48257D01*
X69048Y-48343D01*
X69029Y-48400D01*
X69010Y-48429D01*
X68972Y-48457D01*
X68819Y-48457D01*
X69219Y-48743D02*
X69219Y-48143D01*
X69448Y-48743D01*
X69448Y-48143D01*
G54D10*
X56621Y-48800D02*
X56836Y-48800D01*
X56879Y-48814D01*
X56907Y-48843D01*
X56921Y-48886D01*
X56921Y-48914D01*
X56921Y-48657D02*
X56621Y-48657D01*
X56621Y-48542D01*
X56636Y-48514D01*
X56650Y-48499D01*
X56679Y-48485D01*
X56721Y-48485D01*
X56750Y-48499D01*
X56764Y-48514D01*
X56779Y-48542D01*
X56779Y-48657D01*
X56921Y-48199D02*
X56921Y-48371D01*
X56921Y-48285D02*
X56621Y-48285D01*
X56664Y-48314D01*
X56693Y-48342D01*
X56707Y-48371D01*
X58621Y-48800D02*
X58836Y-48800D01*
X58879Y-48814D01*
X58907Y-48843D01*
X58921Y-48886D01*
X58921Y-48914D01*
X58921Y-48657D02*
X58621Y-48657D01*
X58621Y-48542D01*
X58636Y-48514D01*
X58650Y-48499D01*
X58679Y-48485D01*
X58721Y-48485D01*
X58750Y-48499D01*
X58764Y-48514D01*
X58779Y-48542D01*
X58779Y-48657D01*
X58650Y-48371D02*
X58636Y-48357D01*
X58621Y-48328D01*
X58621Y-48257D01*
X58636Y-48228D01*
X58650Y-48214D01*
X58679Y-48199D01*
X58707Y-48199D01*
X58750Y-48214D01*
X58921Y-48385D01*
X58921Y-48199D01*
G54D14*
X61419Y-47162D02*
X61419Y-46762D01*
X61590Y-47143D02*
X61647Y-47162D01*
X61743Y-47162D01*
X61781Y-47143D01*
X61800Y-47124D01*
X61819Y-47086D01*
X61819Y-47048D01*
X61800Y-47010D01*
X61781Y-46990D01*
X61743Y-46971D01*
X61666Y-46952D01*
X61628Y-46933D01*
X61609Y-46914D01*
X61590Y-46876D01*
X61590Y-46838D01*
X61609Y-46800D01*
X61628Y-46781D01*
X61666Y-46762D01*
X61762Y-46762D01*
X61819Y-46781D01*
X61990Y-47162D02*
X61990Y-46762D01*
X62143Y-46762D01*
X62181Y-46781D01*
X62200Y-46800D01*
X62219Y-46838D01*
X62219Y-46895D01*
X62200Y-46933D01*
X62181Y-46952D01*
X62143Y-46971D01*
X61990Y-46971D01*
X62600Y-47162D02*
X62371Y-47162D01*
X62485Y-47162D02*
X62485Y-46762D01*
X62447Y-46819D01*
X62409Y-46857D01*
X62371Y-46876D01*
G54D20*
X53576Y-35722D02*
X53799Y-35722D01*
X53825Y-35709D01*
X53839Y-35696D01*
X53852Y-35670D01*
X53852Y-35617D01*
X53839Y-35591D01*
X53825Y-35578D01*
X53799Y-35565D01*
X53576Y-35565D01*
X53852Y-35289D02*
X53852Y-35446D01*
X53852Y-35368D02*
X53576Y-35368D01*
X53615Y-35394D01*
X53641Y-35420D01*
X53655Y-35446D01*
G54D14*
X57695Y-35002D02*
X57695Y-35407D01*
X57714Y-35455D01*
X57733Y-35479D01*
X57771Y-35502D01*
X57848Y-35502D01*
X57886Y-35479D01*
X57905Y-35455D01*
X57924Y-35407D01*
X57924Y-35002D01*
X58095Y-35050D02*
X58114Y-35026D01*
X58152Y-35002D01*
X58248Y-35002D01*
X58286Y-35026D01*
X58305Y-35050D01*
X58324Y-35098D01*
X58324Y-35145D01*
X58305Y-35217D01*
X58076Y-35502D01*
X58324Y-35502D01*
X56062Y-40860D02*
X56253Y-40860D01*
X56024Y-41002D02*
X56157Y-40502D01*
X56291Y-41002D01*
X56367Y-40502D02*
X56596Y-40502D01*
X56481Y-41002D02*
X56481Y-40502D01*
X56729Y-41002D02*
X56729Y-40502D01*
X56863Y-40860D01*
X56996Y-40502D01*
X56996Y-41002D01*
X57186Y-40740D02*
X57320Y-40740D01*
X57377Y-41002D02*
X57186Y-41002D01*
X57186Y-40502D01*
X57377Y-40502D01*
X57758Y-40526D02*
X57720Y-40502D01*
X57663Y-40502D01*
X57605Y-40526D01*
X57567Y-40574D01*
X57548Y-40621D01*
X57529Y-40717D01*
X57529Y-40788D01*
X57548Y-40883D01*
X57567Y-40931D01*
X57605Y-40979D01*
X57663Y-41002D01*
X57701Y-41002D01*
X57758Y-40979D01*
X57777Y-40955D01*
X57777Y-40788D01*
X57701Y-40788D01*
X57929Y-40860D02*
X58120Y-40860D01*
X57891Y-41002D02*
X58024Y-40502D01*
X58158Y-41002D01*
X58348Y-40717D02*
X58310Y-40693D01*
X58291Y-40669D01*
X58272Y-40621D01*
X58272Y-40598D01*
X58291Y-40550D01*
X58310Y-40526D01*
X58348Y-40502D01*
X58425Y-40502D01*
X58463Y-40526D01*
X58482Y-40550D01*
X58501Y-40598D01*
X58501Y-40621D01*
X58482Y-40669D01*
X58463Y-40693D01*
X58425Y-40717D01*
X58348Y-40717D01*
X58310Y-40740D01*
X58291Y-40764D01*
X58272Y-40812D01*
X58272Y-40907D01*
X58291Y-40955D01*
X58310Y-40979D01*
X58348Y-41002D01*
X58425Y-41002D01*
X58463Y-40979D01*
X58482Y-40955D01*
X58501Y-40907D01*
X58501Y-40812D01*
X58482Y-40764D01*
X58463Y-40740D01*
X58425Y-40717D01*
X58729Y-40717D02*
X58691Y-40693D01*
X58672Y-40669D01*
X58653Y-40621D01*
X58653Y-40598D01*
X58672Y-40550D01*
X58691Y-40526D01*
X58729Y-40502D01*
X58806Y-40502D01*
X58844Y-40526D01*
X58863Y-40550D01*
X58882Y-40598D01*
X58882Y-40621D01*
X58863Y-40669D01*
X58844Y-40693D01*
X58806Y-40717D01*
X58729Y-40717D01*
X58691Y-40740D01*
X58672Y-40764D01*
X58653Y-40812D01*
X58653Y-40907D01*
X58672Y-40955D01*
X58691Y-40979D01*
X58729Y-41002D01*
X58806Y-41002D01*
X58844Y-40979D01*
X58863Y-40955D01*
X58882Y-40907D01*
X58882Y-40812D01*
X58863Y-40764D01*
X58844Y-40740D01*
X58806Y-40717D01*
X59053Y-40812D02*
X59358Y-40812D01*
X59529Y-40860D02*
X59720Y-40860D01*
X59491Y-41002D02*
X59624Y-40502D01*
X59758Y-41002D01*
X59891Y-40502D02*
X59891Y-40907D01*
X59910Y-40955D01*
X59929Y-40979D01*
X59967Y-41002D01*
X60044Y-41002D01*
X60082Y-40979D01*
X60101Y-40955D01*
X60120Y-40907D01*
X60120Y-40502D01*
G54D16*
X61089Y-41041D02*
X61089Y-41160D01*
X60839Y-41160D01*
X61089Y-40828D02*
X61089Y-40970D01*
X61089Y-40899D02*
X60839Y-40899D01*
X60875Y-40923D01*
X60899Y-40947D01*
X60911Y-40970D01*
X57113Y-33542D02*
X56994Y-33625D01*
X57113Y-33684D02*
X56863Y-33684D01*
X56863Y-33589D01*
X56875Y-33565D01*
X56887Y-33554D01*
X56911Y-33542D01*
X56947Y-33542D01*
X56970Y-33554D01*
X56982Y-33565D01*
X56994Y-33589D01*
X56994Y-33684D01*
X56863Y-33327D02*
X56863Y-33375D01*
X56875Y-33399D01*
X56887Y-33411D01*
X56923Y-33434D01*
X56970Y-33446D01*
X57066Y-33446D01*
X57089Y-33434D01*
X57101Y-33423D01*
X57113Y-33399D01*
X57113Y-33351D01*
X57101Y-33327D01*
X57089Y-33315D01*
X57066Y-33304D01*
X57006Y-33304D01*
X56982Y-33315D01*
X56970Y-33327D01*
X56958Y-33351D01*
X56958Y-33399D01*
X56970Y-33423D01*
X56982Y-33434D01*
X57006Y-33446D01*
X57958Y-44089D02*
X57875Y-43970D01*
X57816Y-44089D02*
X57816Y-43839D01*
X57911Y-43839D01*
X57935Y-43851D01*
X57946Y-43863D01*
X57958Y-43887D01*
X57958Y-43923D01*
X57946Y-43946D01*
X57935Y-43958D01*
X57911Y-43970D01*
X57816Y-43970D01*
X58185Y-43839D02*
X58066Y-43839D01*
X58054Y-43958D01*
X58066Y-43946D01*
X58089Y-43934D01*
X58149Y-43934D01*
X58173Y-43946D01*
X58185Y-43958D01*
X58196Y-43982D01*
X58196Y-44042D01*
X58185Y-44065D01*
X58173Y-44077D01*
X58149Y-44089D01*
X58089Y-44089D01*
X58066Y-44077D01*
X58054Y-44065D01*
X55958Y-44089D02*
X55875Y-43970D01*
X55816Y-44089D02*
X55816Y-43839D01*
X55911Y-43839D01*
X55935Y-43851D01*
X55946Y-43863D01*
X55958Y-43887D01*
X55958Y-43923D01*
X55946Y-43946D01*
X55935Y-43958D01*
X55911Y-43970D01*
X55816Y-43970D01*
X56173Y-43923D02*
X56173Y-44089D01*
X56113Y-43827D02*
X56054Y-44006D01*
X56208Y-44006D01*
X60113Y-33542D02*
X59994Y-33625D01*
X60113Y-33684D02*
X59863Y-33684D01*
X59863Y-33589D01*
X59875Y-33565D01*
X59887Y-33554D01*
X59911Y-33542D01*
X59947Y-33542D01*
X59970Y-33554D01*
X59982Y-33565D01*
X59994Y-33589D01*
X59994Y-33684D01*
X59863Y-33458D02*
X59863Y-33304D01*
X59958Y-33387D01*
X59958Y-33351D01*
X59970Y-33327D01*
X59982Y-33315D01*
X60006Y-33304D01*
X60066Y-33304D01*
X60089Y-33315D01*
X60101Y-33327D01*
X60113Y-33351D01*
X60113Y-33423D01*
X60101Y-33446D01*
X60089Y-33458D01*
X61613Y-33542D02*
X61494Y-33625D01*
X61613Y-33684D02*
X61363Y-33684D01*
X61363Y-33589D01*
X61375Y-33565D01*
X61387Y-33554D01*
X61411Y-33542D01*
X61447Y-33542D01*
X61470Y-33554D01*
X61482Y-33565D01*
X61494Y-33589D01*
X61494Y-33684D01*
X61387Y-33446D02*
X61375Y-33434D01*
X61363Y-33411D01*
X61363Y-33351D01*
X61375Y-33327D01*
X61387Y-33315D01*
X61411Y-33304D01*
X61435Y-33304D01*
X61470Y-33315D01*
X61613Y-33458D01*
X61613Y-33304D01*
X55613Y-33542D02*
X55494Y-33625D01*
X55613Y-33684D02*
X55363Y-33684D01*
X55363Y-33589D01*
X55375Y-33565D01*
X55387Y-33554D01*
X55411Y-33542D01*
X55447Y-33542D01*
X55470Y-33554D01*
X55482Y-33565D01*
X55494Y-33589D01*
X55494Y-33684D01*
X55613Y-33304D02*
X55613Y-33446D01*
X55613Y-33375D02*
X55363Y-33375D01*
X55399Y-33399D01*
X55423Y-33423D01*
X55435Y-33446D01*
X58589Y-33542D02*
X58601Y-33554D01*
X58613Y-33589D01*
X58613Y-33613D01*
X58601Y-33649D01*
X58577Y-33673D01*
X58554Y-33684D01*
X58506Y-33696D01*
X58470Y-33696D01*
X58423Y-33684D01*
X58399Y-33673D01*
X58375Y-33649D01*
X58363Y-33613D01*
X58363Y-33589D01*
X58375Y-33554D01*
X58387Y-33542D01*
X58613Y-33423D02*
X58613Y-33375D01*
X58601Y-33351D01*
X58589Y-33339D01*
X58554Y-33315D01*
X58506Y-33304D01*
X58411Y-33304D01*
X58387Y-33315D01*
X58375Y-33327D01*
X58363Y-33351D01*
X58363Y-33399D01*
X58375Y-33423D01*
X58387Y-33434D01*
X58411Y-33446D01*
X58470Y-33446D01*
X58494Y-33434D01*
X58506Y-33423D01*
X58518Y-33399D01*
X58518Y-33351D01*
X58506Y-33327D01*
X58494Y-33315D01*
X58470Y-33304D01*
X61065Y-39042D02*
X61077Y-39054D01*
X61089Y-39089D01*
X61089Y-39113D01*
X61077Y-39149D01*
X61053Y-39173D01*
X61030Y-39184D01*
X60982Y-39196D01*
X60946Y-39196D01*
X60899Y-39184D01*
X60875Y-39173D01*
X60851Y-39149D01*
X60839Y-39113D01*
X60839Y-39089D01*
X60851Y-39054D01*
X60863Y-39042D01*
X60946Y-38899D02*
X60934Y-38923D01*
X60923Y-38934D01*
X60899Y-38946D01*
X60887Y-38946D01*
X60863Y-38934D01*
X60851Y-38923D01*
X60839Y-38899D01*
X60839Y-38851D01*
X60851Y-38827D01*
X60863Y-38815D01*
X60887Y-38804D01*
X60899Y-38804D01*
X60923Y-38815D01*
X60934Y-38827D01*
X60946Y-38851D01*
X60946Y-38899D01*
X60958Y-38923D01*
X60970Y-38934D01*
X60994Y-38946D01*
X61042Y-38946D01*
X61065Y-38934D01*
X61077Y-38923D01*
X61089Y-38899D01*
X61089Y-38851D01*
X61077Y-38827D01*
X61065Y-38815D01*
X61042Y-38804D01*
X60994Y-38804D01*
X60970Y-38815D01*
X60958Y-38827D01*
X60946Y-38851D01*
X54065Y-37042D02*
X54077Y-37054D01*
X54089Y-37089D01*
X54089Y-37113D01*
X54077Y-37149D01*
X54053Y-37173D01*
X54030Y-37184D01*
X53982Y-37196D01*
X53946Y-37196D01*
X53899Y-37184D01*
X53875Y-37173D01*
X53851Y-37149D01*
X53839Y-37113D01*
X53839Y-37089D01*
X53851Y-37054D01*
X53863Y-37042D01*
X53839Y-36958D02*
X53839Y-36792D01*
X54089Y-36899D01*
X57958Y-43589D02*
X57946Y-43601D01*
X57911Y-43613D01*
X57887Y-43613D01*
X57851Y-43601D01*
X57827Y-43577D01*
X57816Y-43554D01*
X57804Y-43506D01*
X57804Y-43470D01*
X57816Y-43423D01*
X57827Y-43399D01*
X57851Y-43375D01*
X57887Y-43363D01*
X57911Y-43363D01*
X57946Y-43375D01*
X57958Y-43387D01*
X58173Y-43363D02*
X58125Y-43363D01*
X58101Y-43375D01*
X58089Y-43387D01*
X58066Y-43423D01*
X58054Y-43470D01*
X58054Y-43566D01*
X58066Y-43589D01*
X58077Y-43601D01*
X58101Y-43613D01*
X58149Y-43613D01*
X58173Y-43601D01*
X58185Y-43589D01*
X58196Y-43566D01*
X58196Y-43506D01*
X58185Y-43482D01*
X58173Y-43470D01*
X58149Y-43458D01*
X58101Y-43458D01*
X58077Y-43470D01*
X58066Y-43482D01*
X58054Y-43506D01*
X54065Y-39042D02*
X54077Y-39054D01*
X54089Y-39089D01*
X54089Y-39113D01*
X54077Y-39149D01*
X54053Y-39173D01*
X54030Y-39184D01*
X53982Y-39196D01*
X53946Y-39196D01*
X53899Y-39184D01*
X53875Y-39173D01*
X53851Y-39149D01*
X53839Y-39113D01*
X53839Y-39089D01*
X53851Y-39054D01*
X53863Y-39042D01*
X53839Y-38815D02*
X53839Y-38934D01*
X53958Y-38946D01*
X53946Y-38934D01*
X53934Y-38911D01*
X53934Y-38851D01*
X53946Y-38827D01*
X53958Y-38815D01*
X53982Y-38804D01*
X54042Y-38804D01*
X54065Y-38815D01*
X54077Y-38827D01*
X54089Y-38851D01*
X54089Y-38911D01*
X54077Y-38934D01*
X54065Y-38946D01*
X55958Y-43589D02*
X55946Y-43601D01*
X55911Y-43613D01*
X55887Y-43613D01*
X55851Y-43601D01*
X55827Y-43577D01*
X55816Y-43554D01*
X55804Y-43506D01*
X55804Y-43470D01*
X55816Y-43423D01*
X55827Y-43399D01*
X55851Y-43375D01*
X55887Y-43363D01*
X55911Y-43363D01*
X55946Y-43375D01*
X55958Y-43387D01*
X56173Y-43447D02*
X56173Y-43613D01*
X56113Y-43351D02*
X56054Y-43530D01*
X56208Y-43530D01*
X61065Y-37042D02*
X61077Y-37054D01*
X61089Y-37089D01*
X61089Y-37113D01*
X61077Y-37149D01*
X61053Y-37173D01*
X61030Y-37184D01*
X60982Y-37196D01*
X60946Y-37196D01*
X60899Y-37184D01*
X60875Y-37173D01*
X60851Y-37149D01*
X60839Y-37113D01*
X60839Y-37089D01*
X60851Y-37054D01*
X60863Y-37042D01*
X60839Y-36958D02*
X60839Y-36804D01*
X60934Y-36887D01*
X60934Y-36851D01*
X60946Y-36827D01*
X60958Y-36815D01*
X60982Y-36804D01*
X61042Y-36804D01*
X61065Y-36815D01*
X61077Y-36827D01*
X61089Y-36851D01*
X61089Y-36923D01*
X61077Y-36946D01*
X61065Y-36958D01*
X52458Y-34089D02*
X52446Y-34101D01*
X52411Y-34113D01*
X52387Y-34113D01*
X52351Y-34101D01*
X52327Y-34077D01*
X52316Y-34054D01*
X52304Y-34006D01*
X52304Y-33970D01*
X52316Y-33923D01*
X52327Y-33899D01*
X52351Y-33875D01*
X52387Y-33863D01*
X52411Y-33863D01*
X52446Y-33875D01*
X52458Y-33887D01*
X52554Y-33887D02*
X52566Y-33875D01*
X52589Y-33863D01*
X52649Y-33863D01*
X52673Y-33875D01*
X52685Y-33887D01*
X52696Y-33911D01*
X52696Y-33935D01*
X52685Y-33970D01*
X52542Y-34113D01*
X52696Y-34113D01*
X52458Y-38089D02*
X52446Y-38101D01*
X52411Y-38113D01*
X52387Y-38113D01*
X52351Y-38101D01*
X52327Y-38077D01*
X52316Y-38054D01*
X52304Y-38006D01*
X52304Y-37970D01*
X52316Y-37923D01*
X52327Y-37899D01*
X52351Y-37875D01*
X52387Y-37863D01*
X52411Y-37863D01*
X52446Y-37875D01*
X52458Y-37887D01*
X52696Y-38113D02*
X52554Y-38113D01*
X52625Y-38113D02*
X52625Y-37863D01*
X52601Y-37899D01*
X52577Y-37923D01*
X52554Y-37935D01*
X51816Y-39089D02*
X51816Y-38839D01*
X51875Y-38839D01*
X51911Y-38851D01*
X51935Y-38875D01*
X51946Y-38899D01*
X51958Y-38946D01*
X51958Y-38982D01*
X51946Y-39030D01*
X51935Y-39053D01*
X51911Y-39077D01*
X51875Y-39089D01*
X51816Y-39089D01*
X52196Y-39089D02*
X52054Y-39089D01*
X52125Y-39089D02*
X52125Y-38839D01*
X52101Y-38875D01*
X52077Y-38899D01*
X52054Y-38911D01*
X53534Y-41243D02*
X53834Y-41043D01*
X53534Y-41043D02*
X53834Y-41243D01*
X53834Y-40771D02*
X53834Y-40943D01*
X53834Y-40857D02*
X53534Y-40857D01*
X53577Y-40886D01*
X53606Y-40914D01*
X53620Y-40943D01*
X55420Y-41693D02*
X55434Y-41707D01*
X55448Y-41750D01*
X55448Y-41779D01*
X55434Y-41822D01*
X55406Y-41850D01*
X55377Y-41865D01*
X55320Y-41879D01*
X55277Y-41879D01*
X55220Y-41865D01*
X55191Y-41850D01*
X55163Y-41822D01*
X55148Y-41779D01*
X55148Y-41750D01*
X55163Y-41707D01*
X55177Y-41693D01*
X55448Y-41393D02*
X55306Y-41493D01*
X55448Y-41565D02*
X55148Y-41565D01*
X55148Y-41450D01*
X55163Y-41422D01*
X55177Y-41407D01*
X55206Y-41393D01*
X55248Y-41393D01*
X55277Y-41407D01*
X55291Y-41422D01*
X55306Y-41450D01*
X55306Y-41565D01*
X55306Y-41207D02*
X55448Y-41207D01*
X55148Y-41307D02*
X55306Y-41207D01*
X55148Y-41107D01*
X55434Y-41022D02*
X55448Y-40979D01*
X55448Y-40908D01*
X55434Y-40879D01*
X55420Y-40865D01*
X55391Y-40850D01*
X55363Y-40850D01*
X55334Y-40865D01*
X55320Y-40879D01*
X55306Y-40908D01*
X55291Y-40965D01*
X55277Y-40993D01*
X55263Y-41008D01*
X55234Y-41022D01*
X55206Y-41022D01*
X55177Y-41008D01*
X55163Y-40993D01*
X55148Y-40965D01*
X55148Y-40893D01*
X55163Y-40850D01*
X55148Y-40764D02*
X55148Y-40593D01*
X55448Y-40679D02*
X55148Y-40679D01*
X55363Y-40507D02*
X55363Y-40364D01*
X55448Y-40535D02*
X55148Y-40435D01*
X55448Y-40335D01*
X55448Y-40093D02*
X55448Y-40236D01*
X55148Y-40236D01*
G54D11*
X66953Y-32218D02*
X66953Y-31618D01*
X67153Y-32046D01*
X67353Y-31618D01*
X67353Y-32218D01*
X67753Y-31618D02*
X67867Y-31618D01*
X67925Y-31646D01*
X67982Y-31704D01*
X68010Y-31818D01*
X68010Y-32018D01*
X67982Y-32132D01*
X67925Y-32189D01*
X67867Y-32218D01*
X67753Y-32218D01*
X67696Y-32189D01*
X67639Y-32132D01*
X67610Y-32018D01*
X67610Y-31818D01*
X67639Y-31704D01*
X67696Y-31646D01*
X67753Y-31618D01*
X68268Y-32218D02*
X68268Y-31618D01*
X68411Y-31618D01*
X68496Y-31646D01*
X68554Y-31704D01*
X68582Y-31761D01*
X68611Y-31875D01*
X68611Y-31961D01*
X68582Y-32075D01*
X68554Y-32132D01*
X68496Y-32189D01*
X68411Y-32218D01*
X68268Y-32218D01*
X69182Y-32218D02*
X68839Y-32218D01*
X69011Y-32218D02*
X69011Y-31618D01*
X68954Y-31704D01*
X68896Y-31761D01*
X68839Y-31789D01*
X67066Y-34137D02*
X67400Y-34737D01*
X67400Y-34137D02*
X67066Y-34737D01*
X67757Y-34423D02*
X67828Y-34451D01*
X67852Y-34480D01*
X67876Y-34537D01*
X67876Y-34623D01*
X67852Y-34680D01*
X67828Y-34708D01*
X67781Y-34737D01*
X67590Y-34737D01*
X67590Y-34137D01*
X67757Y-34137D01*
X67804Y-34165D01*
X67828Y-34194D01*
X67852Y-34251D01*
X67852Y-34308D01*
X67828Y-34365D01*
X67804Y-34394D01*
X67757Y-34423D01*
X67590Y-34423D01*
X68090Y-34423D02*
X68257Y-34423D01*
X68328Y-34737D02*
X68090Y-34737D01*
X68090Y-34137D01*
X68328Y-34137D01*
X68542Y-34423D02*
X68709Y-34423D01*
X68780Y-34737D02*
X68542Y-34737D01*
X68542Y-34137D01*
X68780Y-34137D01*
%LPC*%
G54D21*
X55587Y-46000D03*
X56413Y-46000D03*
X57587Y-46000D03*
X58413Y-46000D03*
G54D22*
X52000Y-45000D03*
X51972Y-42126D03*
X54000Y-31250D03*
X72000Y-44000D03*
X70000Y-44000D03*
X68000Y-44000D03*
X56000Y-31250D03*
X64000Y-44000D03*
X62000Y-31250D03*
X61000Y-31250D03*
X60000Y-31250D03*
X59000Y-31250D03*
X58000Y-31250D03*
X66000Y-44000D03*
G54D23*
X51969Y-31634D03*
X72835Y-31634D03*
X51969Y-48563D03*
X72835Y-48563D03*
G54D24*
X52000Y-46000D03*
G54D22*
X52000Y-41000D03*
G54D25*
X65500Y-49000D03*
G54D26*
X65500Y-48000D03*
G54D24*
X56000Y-48000D03*
G54D22*
X56000Y-49000D03*
G54D24*
X58000Y-48000D03*
G54D22*
X58000Y-49000D03*
G54D24*
X61000Y-49000D03*
G54D22*
X61000Y-48000D03*
X62000Y-49000D03*
X62000Y-48000D03*
X63000Y-49000D03*
X63000Y-48000D03*
G54D27*
X53150Y-35500D03*
X53150Y-36091D03*
X53150Y-34909D03*
G54D10*
G36*
X52953Y-35675D02*
X52559Y-35975D01*
X52559Y-35025D01*
X52953Y-35325D01*
X52953Y-35675D01*
X52953Y-35675D01*
G37*
G54D28*
X52189Y-35500D03*
G54D10*
G36*
X51819Y-35975D02*
X51425Y-35675D01*
X51425Y-35325D01*
X51819Y-35025D01*
X51819Y-35975D01*
X51819Y-35975D01*
G37*
G54D29*
X56169Y-39093D03*
X56169Y-38778D03*
X56169Y-38463D03*
X56169Y-38148D03*
X56169Y-37833D03*
X56169Y-37518D03*
X56169Y-37203D03*
X56169Y-36888D03*
X59831Y-36890D03*
X59831Y-39100D03*
X59831Y-38780D03*
X59831Y-38460D03*
X59831Y-38150D03*
X59831Y-37830D03*
X59831Y-37520D03*
X59831Y-37200D03*
G54D30*
X56888Y-36169D03*
X57202Y-36169D03*
X57518Y-36169D03*
X57832Y-36169D03*
X58148Y-36169D03*
X58462Y-36169D03*
X58778Y-36169D03*
X59092Y-36169D03*
X56890Y-39831D03*
X57200Y-39831D03*
X57520Y-39831D03*
X57830Y-39831D03*
X58140Y-39831D03*
X58460Y-39831D03*
X58780Y-39831D03*
X59100Y-39831D03*
G54D31*
X61500Y-41375D03*
X61500Y-40625D03*
X56500Y-33125D03*
X56500Y-33875D03*
G54D32*
X57625Y-44500D03*
X58375Y-44500D03*
X55625Y-44500D03*
X56375Y-44500D03*
G54D31*
X59500Y-33125D03*
X59500Y-33875D03*
X61000Y-33125D03*
X61000Y-33875D03*
X55000Y-33125D03*
X55000Y-33875D03*
X58000Y-33125D03*
X58000Y-33875D03*
X61500Y-39375D03*
X61500Y-38625D03*
X54500Y-37375D03*
X54500Y-36625D03*
G54D32*
X58375Y-43000D03*
X57625Y-43000D03*
G54D31*
X54500Y-39375D03*
X54500Y-38625D03*
G54D32*
X56375Y-43000D03*
X55625Y-43000D03*
G54D31*
X61500Y-37375D03*
X61500Y-36625D03*
G54D32*
X52875Y-33500D03*
X52125Y-33500D03*
X52875Y-37500D03*
X52125Y-37500D03*
G54D33*
X51272Y-39500D03*
X52728Y-39500D03*
G54D34*
X54500Y-41531D03*
X54500Y-40469D03*
G54D35*
X63663Y-34676D03*
X63663Y-35463D03*
X63663Y-36250D03*
X63663Y-37038D03*
X63663Y-37825D03*
X63663Y-38613D03*
X63663Y-39400D03*
X63663Y-40187D03*
X63663Y-40975D03*
X72324Y-40975D03*
X72324Y-40187D03*
X72324Y-39400D03*
X72324Y-38613D03*
X72324Y-37825D03*
X72324Y-37038D03*
X72324Y-36250D03*
X72324Y-35463D03*
X72324Y-34676D03*
X72324Y-33888D03*
G54D36*
X63663Y-33888D03*
M02*
