G04 (created by PCBNEW-RS274X (2011-07-12 BZR 3047)-stable) date Sun 09 Oct 2011 14:53:21 BST*
G01*
G70*
G90*
%MOIN*%
G04 Gerber Fmt 3.4, Leading zero omitted, Abs format*
%FSLAX34Y34*%
G04 APERTURE LIST*
%ADD10C,0.006000*%
%ADD11C,0.003900*%
%ADD12C,0.068000*%
%ADD13C,0.173400*%
%ADD14R,0.068000X0.068000*%
%ADD15R,0.067100X0.067100*%
%ADD16C,0.067100*%
%ADD17C,0.070000*%
%ADD18R,0.070000X0.070000*%
G04 APERTURE END LIST*
G54D10*
G54D11*
X62991Y-34194D02*
X62979Y-34308D01*
X62946Y-34419D01*
X62892Y-34521D01*
X62819Y-34610D01*
X62730Y-34683D01*
X62629Y-34738D01*
X62518Y-34772D01*
X62404Y-34784D01*
X62290Y-34774D01*
X62179Y-34741D01*
X62077Y-34688D01*
X61987Y-34616D01*
X61913Y-34527D01*
X61857Y-34426D01*
X61822Y-34316D01*
X61810Y-34202D01*
X61819Y-34088D01*
X61851Y-33977D01*
X61904Y-33874D01*
X61975Y-33784D01*
X62063Y-33709D01*
X62164Y-33653D01*
X62274Y-33617D01*
X62388Y-33604D01*
X62502Y-33612D01*
X62613Y-33643D01*
X62716Y-33696D01*
X62807Y-33767D01*
X62882Y-33854D01*
X62939Y-33954D01*
X62976Y-34064D01*
X62990Y-34178D01*
X62991Y-34194D01*
X62991Y-46006D02*
X62979Y-46120D01*
X62946Y-46231D01*
X62892Y-46333D01*
X62819Y-46422D01*
X62730Y-46495D01*
X62629Y-46550D01*
X62518Y-46584D01*
X62404Y-46596D01*
X62290Y-46586D01*
X62179Y-46553D01*
X62077Y-46500D01*
X61987Y-46428D01*
X61913Y-46339D01*
X61857Y-46238D01*
X61822Y-46128D01*
X61810Y-46014D01*
X61819Y-45900D01*
X61851Y-45789D01*
X61904Y-45686D01*
X61975Y-45596D01*
X62063Y-45521D01*
X62164Y-45465D01*
X62274Y-45429D01*
X62388Y-45416D01*
X62502Y-45424D01*
X62613Y-45455D01*
X62716Y-45508D01*
X62807Y-45579D01*
X62882Y-45666D01*
X62939Y-45766D01*
X62976Y-45876D01*
X62990Y-45990D01*
X62991Y-46006D01*
X58463Y-33801D02*
X57676Y-33801D01*
X57676Y-33801D02*
X57676Y-34588D01*
X57676Y-34588D02*
X58463Y-34588D01*
X66337Y-39706D02*
X67124Y-39706D01*
X67124Y-39706D02*
X67124Y-40494D01*
X67124Y-40494D02*
X66337Y-40494D01*
X58463Y-45612D02*
X57676Y-45612D01*
X57676Y-45612D02*
X57676Y-46399D01*
X57676Y-46399D02*
X58463Y-46399D01*
X58463Y-44824D02*
X58463Y-47187D01*
X58463Y-47187D02*
X66337Y-47187D01*
X66337Y-47187D02*
X66337Y-44824D01*
X66337Y-44824D02*
X58463Y-44824D01*
X66337Y-38919D02*
X58463Y-38919D01*
X58463Y-38919D02*
X58463Y-41281D01*
X58463Y-41281D02*
X66337Y-41281D01*
X66337Y-41281D02*
X66337Y-38919D01*
X66337Y-33013D02*
X58463Y-33013D01*
X58463Y-33013D02*
X58463Y-35376D01*
X58463Y-35376D02*
X66337Y-35376D01*
X66337Y-35376D02*
X66337Y-33013D01*
X73817Y-43250D02*
X50983Y-43250D01*
X73817Y-36950D02*
X50983Y-36950D01*
X73818Y-49548D02*
X73818Y-30651D01*
X50983Y-30651D02*
X50983Y-49548D01*
X73818Y-49548D02*
X50983Y-49548D01*
X73818Y-30651D02*
X50983Y-30651D01*
G54D10*
X52244Y-44255D02*
X52201Y-44270D01*
X52186Y-44284D01*
X52172Y-44312D01*
X52172Y-44355D01*
X52186Y-44384D01*
X52201Y-44398D01*
X52229Y-44412D01*
X52344Y-44412D01*
X52344Y-44112D01*
X52244Y-44112D01*
X52215Y-44127D01*
X52201Y-44141D01*
X52186Y-44170D01*
X52186Y-44198D01*
X52201Y-44227D01*
X52215Y-44241D01*
X52244Y-44255D01*
X52344Y-44255D01*
X52086Y-44112D02*
X51915Y-44112D01*
X52001Y-44412D02*
X52001Y-44112D01*
X51657Y-44412D02*
X51829Y-44412D01*
X51743Y-44412D02*
X51743Y-44112D01*
X51772Y-44155D01*
X51800Y-44184D01*
X51829Y-44198D01*
%LPC*%
G54D12*
X52000Y-45000D03*
X52000Y-42004D03*
X54000Y-31250D03*
X72000Y-44000D03*
X70000Y-44000D03*
X68000Y-44000D03*
X56000Y-31250D03*
X64000Y-44000D03*
X62000Y-31250D03*
X61000Y-31250D03*
X60000Y-31250D03*
X59000Y-31250D03*
X58000Y-31250D03*
X66000Y-44000D03*
G54D13*
X51969Y-31634D03*
X72835Y-31634D03*
X51969Y-48563D03*
X72835Y-48563D03*
G54D14*
X52000Y-46000D03*
G54D12*
X52000Y-41000D03*
G54D15*
X65500Y-49000D03*
G54D16*
X65500Y-48000D03*
G54D14*
X56000Y-48000D03*
G54D12*
X56000Y-49000D03*
G54D14*
X58000Y-48000D03*
G54D12*
X58000Y-49000D03*
G54D14*
X61000Y-49000D03*
G54D12*
X61000Y-48000D03*
X62000Y-49000D03*
X62000Y-48000D03*
X63000Y-49000D03*
X63000Y-48000D03*
G54D17*
X63663Y-34676D03*
X63663Y-35463D03*
X63663Y-36250D03*
X63663Y-37038D03*
X63663Y-37825D03*
X63663Y-38613D03*
X63663Y-39400D03*
X63663Y-40187D03*
X63663Y-40975D03*
X72324Y-40975D03*
X72324Y-40187D03*
X72324Y-39400D03*
X72324Y-38613D03*
X72324Y-37825D03*
X72324Y-37038D03*
X72324Y-36250D03*
X72324Y-35463D03*
X72324Y-34676D03*
X72324Y-33888D03*
G54D18*
X63663Y-33888D03*
G54D12*
X52000Y-43504D03*
X55500Y-35500D03*
M02*
