G04 (created by PCBNEW-RS274X (2011-07-12 BZR 3047)-stable) date Wed 05 Oct 2011 08:43:45 BST*
G01*
G70*
G90*
%MOIN*%
G04 Gerber Fmt 3.4, Leading zero omitted, Abs format*
%FSLAX34Y34*%
G04 APERTURE LIST*
%ADD10C,0.006000*%
%ADD11C,0.015000*%
%ADD12C,0.068000*%
%ADD13C,0.173400*%
%ADD14R,0.068000X0.068000*%
%ADD15R,0.067100X0.067100*%
%ADD16C,0.067100*%
%ADD17C,0.070000*%
%ADD18R,0.070000X0.070000*%
G04 APERTURE END LIST*
G54D10*
G54D11*
X50787Y-49744D02*
X50787Y-30453D01*
X74016Y-49750D02*
X50787Y-49750D01*
X74016Y-30453D02*
X74016Y-49744D01*
X50787Y-30441D02*
X74016Y-30441D01*
%LPC*%
G54D12*
X52000Y-45000D03*
X51972Y-42126D03*
X54000Y-31250D03*
X72000Y-44000D03*
X70000Y-44000D03*
X68000Y-44000D03*
X56000Y-31250D03*
X64000Y-44000D03*
X62000Y-31250D03*
X61000Y-31250D03*
X60000Y-31250D03*
X59000Y-31250D03*
X58000Y-31250D03*
X66000Y-44000D03*
G54D13*
X51969Y-31634D03*
X72835Y-31634D03*
X51969Y-48563D03*
X72835Y-48563D03*
G54D14*
X52000Y-46000D03*
G54D12*
X52000Y-41000D03*
G54D15*
X65500Y-49000D03*
G54D16*
X65500Y-48000D03*
G54D14*
X56000Y-48000D03*
G54D12*
X56000Y-49000D03*
G54D14*
X58000Y-48000D03*
G54D12*
X58000Y-49000D03*
G54D14*
X61000Y-49000D03*
G54D12*
X61000Y-48000D03*
X62000Y-49000D03*
X62000Y-48000D03*
X63000Y-49000D03*
X63000Y-48000D03*
G54D17*
X63563Y-34276D03*
X63563Y-35063D03*
X63563Y-35850D03*
X63563Y-36638D03*
X63563Y-37425D03*
X63563Y-38213D03*
X63563Y-39000D03*
X63563Y-39787D03*
X63563Y-40575D03*
X72224Y-40575D03*
X72224Y-39787D03*
X72224Y-39000D03*
X72224Y-38213D03*
X72224Y-37425D03*
X72224Y-36638D03*
X72224Y-35850D03*
X72224Y-35063D03*
X72224Y-34276D03*
X72224Y-33488D03*
G54D18*
X63563Y-33488D03*
M02*
