G04 (created by PCBNEW-RS274X (2011-07-12 BZR 3047)-stable) date Sun 02 Oct 2011 19:30:14 BST*
G01*
G70*
G90*
%MOIN*%
G04 Gerber Fmt 3.4, Leading zero omitted, Abs format*
%FSLAX34Y34*%
G04 APERTURE LIST*
%ADD10C,0.006000*%
%ADD11C,0.060000*%
%ADD12C,0.165400*%
%ADD13R,0.060000X0.060000*%
%ADD14R,0.059100X0.059100*%
%ADD15C,0.059100*%
%ADD16C,0.062000*%
%ADD17R,0.062000X0.062000*%
%ADD18C,0.035000*%
%ADD19C,0.015000*%
%ADD20C,0.010000*%
G04 APERTURE END LIST*
G54D10*
G54D11*
X52000Y-45000D03*
X51972Y-42126D03*
X54000Y-31000D03*
X72000Y-44000D03*
X70000Y-44000D03*
X68000Y-44000D03*
X56000Y-31000D03*
X64000Y-44000D03*
X62000Y-31000D03*
X61000Y-31000D03*
X60000Y-31000D03*
X59000Y-31000D03*
X58000Y-31000D03*
X66000Y-44000D03*
G54D12*
X52000Y-31000D03*
X73000Y-31000D03*
X52000Y-49000D03*
X73000Y-49000D03*
G54D13*
X52000Y-46000D03*
G54D11*
X52000Y-41000D03*
G54D14*
X65500Y-49000D03*
G54D15*
X65500Y-48000D03*
G54D13*
X56000Y-48000D03*
G54D11*
X56000Y-49000D03*
G54D13*
X58000Y-48000D03*
G54D11*
X58000Y-49000D03*
G54D13*
X61000Y-49000D03*
G54D11*
X61000Y-48000D03*
X62000Y-49000D03*
X62000Y-48000D03*
X63000Y-49000D03*
X63000Y-48000D03*
G54D16*
X63563Y-34276D03*
X63563Y-35063D03*
X63563Y-35850D03*
X63563Y-36638D03*
X63563Y-37425D03*
X63563Y-38213D03*
X63563Y-39000D03*
X63563Y-39787D03*
X63563Y-40575D03*
X72224Y-40575D03*
X72224Y-39787D03*
X72224Y-39000D03*
X72224Y-38213D03*
X72224Y-37425D03*
X72224Y-36638D03*
X72224Y-35850D03*
X72224Y-35063D03*
X72224Y-34276D03*
X72224Y-33488D03*
G54D17*
X63563Y-33488D03*
G54D18*
X55630Y-32638D03*
X61000Y-42500D03*
X61000Y-45500D03*
X62638Y-34567D03*
X51614Y-38150D03*
X58386Y-42323D03*
X57008Y-42992D03*
X62126Y-38622D03*
X62126Y-36624D03*
X58780Y-33125D03*
X54500Y-38000D03*
X54500Y-36000D03*
X51614Y-34213D03*
X61500Y-43500D03*
X61500Y-45500D03*
X62000Y-45500D03*
X62000Y-44000D03*
X56496Y-34764D03*
X53346Y-37913D03*
X64000Y-45500D03*
X62126Y-35630D03*
X61535Y-35630D03*
X60945Y-35630D03*
X60354Y-35630D03*
X59764Y-36220D03*
X58780Y-33875D03*
X60472Y-36575D03*
X57244Y-32638D03*
X63000Y-44000D03*
X63000Y-45500D03*
X62500Y-45500D03*
X62500Y-44000D03*
X60000Y-40500D03*
X60000Y-39500D03*
G54D19*
X54000Y-31000D02*
X54000Y-31008D01*
X54000Y-31008D02*
X55630Y-32638D01*
X61000Y-45500D02*
X61000Y-42500D01*
G54D20*
X63563Y-34276D02*
X62929Y-34276D01*
X62929Y-34276D02*
X62638Y-34567D01*
G54D19*
X62126Y-38622D02*
X62116Y-38622D01*
X58780Y-33125D02*
X58780Y-33110D01*
G54D20*
X61500Y-45500D02*
X61500Y-43500D01*
X62000Y-44000D02*
X62000Y-45500D01*
X56496Y-34764D02*
X56495Y-34764D01*
X56495Y-34764D02*
X53346Y-37913D01*
X64000Y-44000D02*
X64000Y-45500D01*
X62126Y-35630D02*
X62126Y-32086D01*
X62000Y-31960D02*
X62000Y-31000D01*
X62126Y-32086D02*
X62000Y-31960D01*
X61000Y-31000D02*
X61000Y-31551D01*
X61535Y-32086D02*
X61535Y-35630D01*
X61000Y-31551D02*
X61535Y-32086D01*
X60000Y-31000D02*
X60000Y-31141D01*
X60945Y-32086D02*
X60945Y-35630D01*
X60000Y-31141D02*
X60945Y-32086D01*
X59000Y-31000D02*
X59000Y-31402D01*
X60354Y-32756D02*
X60354Y-35630D01*
X59000Y-31402D02*
X60354Y-32756D01*
X59764Y-36220D02*
X59764Y-35158D01*
X58000Y-31504D02*
X58000Y-31000D01*
X59134Y-32638D02*
X58000Y-31504D01*
X59134Y-34528D02*
X59134Y-32638D01*
X59764Y-35158D02*
X59134Y-34528D01*
X58780Y-33875D02*
X58780Y-33858D01*
X60472Y-36575D02*
X60433Y-36614D01*
X60433Y-36614D02*
X59646Y-36614D01*
X59646Y-36614D02*
X58780Y-35748D01*
X58780Y-35748D02*
X58780Y-33858D01*
X56000Y-31000D02*
X56000Y-31394D01*
X56000Y-31394D02*
X57244Y-32638D01*
X63000Y-44000D02*
X63000Y-45500D01*
X62500Y-44000D02*
X62500Y-45500D01*
X60000Y-39500D02*
X60000Y-40500D01*
G54D10*
G36*
X74450Y-50450D02*
X74077Y-50450D01*
X74077Y-49215D01*
X74077Y-48787D01*
X74077Y-31215D01*
X74077Y-30787D01*
X73914Y-30391D01*
X73611Y-30088D01*
X73215Y-29923D01*
X72787Y-29923D01*
X72391Y-30086D01*
X72088Y-30389D01*
X71923Y-30785D01*
X71923Y-31213D01*
X72086Y-31609D01*
X72389Y-31912D01*
X72785Y-32077D01*
X73213Y-32077D01*
X73609Y-31914D01*
X73912Y-31611D01*
X74077Y-31215D01*
X74077Y-48787D01*
X73914Y-48391D01*
X73611Y-48088D01*
X73215Y-47923D01*
X72787Y-47923D01*
X72783Y-47924D01*
X72783Y-40686D01*
X72783Y-40464D01*
X72698Y-40259D01*
X72620Y-40181D01*
X72698Y-40104D01*
X72783Y-39898D01*
X72783Y-39676D01*
X72698Y-39471D01*
X72621Y-39393D01*
X72698Y-39317D01*
X72783Y-39111D01*
X72783Y-38889D01*
X72698Y-38684D01*
X72621Y-38606D01*
X72698Y-38530D01*
X72783Y-38324D01*
X72783Y-38102D01*
X72698Y-37897D01*
X72620Y-37819D01*
X72698Y-37742D01*
X72783Y-37536D01*
X72783Y-37314D01*
X72698Y-37109D01*
X72621Y-37031D01*
X72698Y-36955D01*
X72783Y-36749D01*
X72783Y-36527D01*
X72698Y-36322D01*
X72620Y-36244D01*
X72698Y-36167D01*
X72783Y-35961D01*
X72783Y-35739D01*
X72698Y-35534D01*
X72621Y-35456D01*
X72698Y-35380D01*
X72783Y-35174D01*
X72783Y-34952D01*
X72698Y-34747D01*
X72621Y-34669D01*
X72698Y-34593D01*
X72783Y-34387D01*
X72783Y-34165D01*
X72698Y-33960D01*
X72620Y-33882D01*
X72698Y-33805D01*
X72783Y-33599D01*
X72783Y-33377D01*
X72698Y-33172D01*
X72541Y-33014D01*
X72335Y-32929D01*
X72113Y-32929D01*
X71908Y-33014D01*
X71750Y-33171D01*
X71665Y-33377D01*
X71665Y-33599D01*
X71750Y-33804D01*
X71827Y-33881D01*
X71750Y-33959D01*
X71665Y-34165D01*
X71665Y-34387D01*
X71750Y-34592D01*
X71826Y-34669D01*
X71750Y-34746D01*
X71665Y-34952D01*
X71665Y-35174D01*
X71750Y-35379D01*
X71826Y-35456D01*
X71750Y-35533D01*
X71665Y-35739D01*
X71665Y-35961D01*
X71750Y-36166D01*
X71827Y-36243D01*
X71750Y-36321D01*
X71665Y-36527D01*
X71665Y-36749D01*
X71750Y-36954D01*
X71826Y-37031D01*
X71750Y-37108D01*
X71665Y-37314D01*
X71665Y-37536D01*
X71750Y-37741D01*
X71827Y-37818D01*
X71750Y-37896D01*
X71665Y-38102D01*
X71665Y-38324D01*
X71750Y-38529D01*
X71826Y-38606D01*
X71750Y-38683D01*
X71665Y-38889D01*
X71665Y-39111D01*
X71750Y-39316D01*
X71826Y-39393D01*
X71750Y-39470D01*
X71665Y-39676D01*
X71665Y-39898D01*
X71750Y-40103D01*
X71827Y-40180D01*
X71750Y-40258D01*
X71665Y-40464D01*
X71665Y-40686D01*
X71750Y-40891D01*
X71907Y-41049D01*
X72113Y-41134D01*
X72335Y-41134D01*
X72540Y-41049D01*
X72698Y-40892D01*
X72783Y-40686D01*
X72783Y-47924D01*
X72549Y-48020D01*
X72549Y-44109D01*
X72549Y-43891D01*
X72465Y-43689D01*
X72311Y-43535D01*
X72109Y-43451D01*
X71891Y-43451D01*
X71689Y-43535D01*
X71535Y-43689D01*
X71451Y-43891D01*
X71451Y-44109D01*
X71535Y-44311D01*
X71689Y-44465D01*
X71891Y-44549D01*
X72109Y-44549D01*
X72311Y-44465D01*
X72465Y-44311D01*
X72549Y-44109D01*
X72549Y-48020D01*
X72391Y-48086D01*
X72088Y-48389D01*
X71923Y-48785D01*
X71923Y-49213D01*
X72086Y-49609D01*
X72389Y-49912D01*
X72785Y-50077D01*
X73213Y-50077D01*
X73609Y-49914D01*
X73912Y-49611D01*
X74077Y-49215D01*
X74077Y-50450D01*
X70549Y-50450D01*
X70549Y-44109D01*
X70549Y-43891D01*
X70465Y-43689D01*
X70311Y-43535D01*
X70109Y-43451D01*
X69891Y-43451D01*
X69689Y-43535D01*
X69535Y-43689D01*
X69451Y-43891D01*
X69451Y-44109D01*
X69535Y-44311D01*
X69689Y-44465D01*
X69891Y-44549D01*
X70109Y-44549D01*
X70311Y-44465D01*
X70465Y-44311D01*
X70549Y-44109D01*
X70549Y-50450D01*
X68549Y-50450D01*
X68549Y-44109D01*
X68549Y-43891D01*
X68465Y-43689D01*
X68311Y-43535D01*
X68109Y-43451D01*
X67891Y-43451D01*
X67689Y-43535D01*
X67535Y-43689D01*
X67451Y-43891D01*
X67451Y-44109D01*
X67535Y-44311D01*
X67689Y-44465D01*
X67891Y-44549D01*
X68109Y-44549D01*
X68311Y-44465D01*
X68465Y-44311D01*
X68549Y-44109D01*
X68549Y-50450D01*
X66549Y-50450D01*
X66549Y-44109D01*
X66549Y-43891D01*
X66465Y-43689D01*
X66311Y-43535D01*
X66109Y-43451D01*
X65891Y-43451D01*
X65689Y-43535D01*
X65535Y-43689D01*
X65451Y-43891D01*
X65451Y-44109D01*
X65535Y-44311D01*
X65689Y-44465D01*
X65891Y-44549D01*
X66109Y-44549D01*
X66311Y-44465D01*
X66465Y-44311D01*
X66549Y-44109D01*
X66549Y-50450D01*
X66045Y-50450D01*
X66045Y-49112D01*
X66045Y-48888D01*
X66044Y-48656D01*
X66006Y-48564D01*
X65936Y-48494D01*
X65845Y-48456D01*
X65813Y-48456D01*
X65961Y-48308D01*
X66044Y-48108D01*
X66044Y-47892D01*
X65961Y-47692D01*
X65808Y-47539D01*
X65608Y-47456D01*
X65392Y-47456D01*
X65192Y-47539D01*
X65039Y-47692D01*
X64956Y-47892D01*
X64956Y-48108D01*
X65039Y-48308D01*
X65187Y-48456D01*
X65155Y-48456D01*
X65064Y-48494D01*
X64994Y-48564D01*
X64956Y-48656D01*
X64955Y-48888D01*
X65017Y-48950D01*
X65400Y-48950D01*
X65450Y-48950D01*
X65550Y-48950D01*
X65600Y-48950D01*
X65983Y-48950D01*
X66045Y-48888D01*
X66045Y-49112D01*
X65983Y-49050D01*
X65550Y-49050D01*
X65550Y-49483D01*
X65612Y-49545D01*
X65746Y-49544D01*
X65845Y-49544D01*
X65936Y-49506D01*
X66006Y-49436D01*
X66044Y-49344D01*
X66045Y-49112D01*
X66045Y-50450D01*
X65450Y-50450D01*
X65450Y-49483D01*
X65450Y-49050D01*
X65017Y-49050D01*
X64955Y-49112D01*
X64956Y-49344D01*
X64994Y-49436D01*
X65064Y-49506D01*
X65155Y-49544D01*
X65254Y-49544D01*
X65388Y-49545D01*
X65450Y-49483D01*
X65450Y-50450D01*
X64549Y-50450D01*
X64549Y-44109D01*
X64549Y-43891D01*
X64465Y-43689D01*
X64311Y-43535D01*
X64122Y-43456D01*
X64122Y-39898D01*
X64122Y-39676D01*
X64037Y-39471D01*
X63960Y-39393D01*
X64037Y-39317D01*
X64122Y-39111D01*
X64122Y-38889D01*
X64037Y-38684D01*
X63960Y-38606D01*
X64037Y-38530D01*
X64122Y-38324D01*
X64122Y-38102D01*
X64037Y-37897D01*
X63959Y-37819D01*
X64037Y-37742D01*
X64122Y-37536D01*
X64122Y-37314D01*
X64037Y-37109D01*
X63960Y-37031D01*
X64037Y-36955D01*
X64122Y-36749D01*
X64122Y-36527D01*
X64037Y-36322D01*
X63959Y-36244D01*
X64037Y-36167D01*
X64122Y-35961D01*
X64122Y-35739D01*
X64037Y-35534D01*
X63960Y-35456D01*
X64037Y-35380D01*
X64122Y-35174D01*
X64122Y-34952D01*
X64037Y-34747D01*
X63960Y-34669D01*
X64037Y-34593D01*
X64122Y-34387D01*
X64122Y-34165D01*
X64044Y-33978D01*
X64084Y-33939D01*
X64122Y-33848D01*
X64122Y-33749D01*
X64122Y-33129D01*
X64084Y-33037D01*
X64014Y-32967D01*
X63923Y-32929D01*
X63824Y-32929D01*
X63204Y-32929D01*
X63112Y-32967D01*
X63042Y-33037D01*
X63004Y-33128D01*
X63004Y-33227D01*
X63004Y-33847D01*
X63042Y-33939D01*
X63079Y-33976D01*
X62929Y-33976D01*
X62814Y-33999D01*
X62716Y-34064D01*
X62638Y-34142D01*
X62554Y-34142D01*
X62426Y-34194D01*
X62426Y-32086D01*
X62403Y-31971D01*
X62338Y-31874D01*
X62300Y-31836D01*
X62300Y-31469D01*
X62311Y-31465D01*
X62465Y-31311D01*
X62549Y-31109D01*
X62549Y-30891D01*
X62465Y-30689D01*
X62311Y-30535D01*
X62109Y-30451D01*
X61891Y-30451D01*
X61689Y-30535D01*
X61535Y-30689D01*
X61500Y-30773D01*
X61465Y-30689D01*
X61311Y-30535D01*
X61109Y-30451D01*
X60891Y-30451D01*
X60689Y-30535D01*
X60535Y-30689D01*
X60500Y-30773D01*
X60465Y-30689D01*
X60311Y-30535D01*
X60109Y-30451D01*
X59891Y-30451D01*
X59689Y-30535D01*
X59535Y-30689D01*
X59500Y-30773D01*
X59465Y-30689D01*
X59311Y-30535D01*
X59109Y-30451D01*
X58891Y-30451D01*
X58689Y-30535D01*
X58535Y-30689D01*
X58500Y-30773D01*
X58465Y-30689D01*
X58311Y-30535D01*
X58109Y-30451D01*
X57891Y-30451D01*
X57689Y-30535D01*
X57535Y-30689D01*
X57451Y-30891D01*
X57451Y-31109D01*
X57535Y-31311D01*
X57689Y-31465D01*
X57700Y-31469D01*
X57700Y-31504D01*
X57723Y-31619D01*
X57788Y-31716D01*
X58834Y-32762D01*
X58834Y-33450D01*
X58696Y-33450D01*
X58540Y-33514D01*
X58420Y-33634D01*
X58355Y-33790D01*
X58355Y-33959D01*
X58419Y-34115D01*
X58480Y-34176D01*
X58480Y-35748D01*
X58503Y-35863D01*
X58568Y-35960D01*
X59433Y-36826D01*
X59434Y-36826D01*
X59531Y-36891D01*
X59645Y-36913D01*
X59646Y-36914D01*
X60210Y-36914D01*
X60231Y-36935D01*
X60387Y-37000D01*
X60556Y-37000D01*
X60712Y-36936D01*
X60832Y-36816D01*
X60897Y-36660D01*
X60897Y-36491D01*
X60833Y-36335D01*
X60713Y-36215D01*
X60557Y-36150D01*
X60388Y-36150D01*
X60232Y-36214D01*
X60189Y-36257D01*
X60189Y-36136D01*
X60132Y-35998D01*
X60269Y-36055D01*
X60438Y-36055D01*
X60594Y-35991D01*
X60649Y-35935D01*
X60704Y-35990D01*
X60860Y-36055D01*
X61029Y-36055D01*
X61185Y-35991D01*
X61240Y-35936D01*
X61294Y-35990D01*
X61450Y-36055D01*
X61619Y-36055D01*
X61775Y-35991D01*
X61830Y-35935D01*
X61885Y-35990D01*
X62041Y-36055D01*
X62210Y-36055D01*
X62366Y-35991D01*
X62486Y-35871D01*
X62551Y-35715D01*
X62551Y-35546D01*
X62487Y-35390D01*
X62426Y-35329D01*
X62426Y-34939D01*
X62553Y-34992D01*
X62722Y-34992D01*
X62878Y-34928D01*
X62998Y-34808D01*
X63063Y-34652D01*
X63063Y-34576D01*
X63082Y-34576D01*
X63089Y-34592D01*
X63165Y-34669D01*
X63089Y-34746D01*
X63004Y-34952D01*
X63004Y-35174D01*
X63089Y-35379D01*
X63165Y-35456D01*
X63089Y-35533D01*
X63004Y-35739D01*
X63004Y-35961D01*
X63089Y-36166D01*
X63166Y-36243D01*
X63089Y-36321D01*
X63004Y-36527D01*
X63004Y-36749D01*
X63089Y-36954D01*
X63165Y-37031D01*
X63089Y-37108D01*
X63004Y-37314D01*
X63004Y-37536D01*
X63089Y-37741D01*
X63166Y-37818D01*
X63089Y-37896D01*
X63004Y-38102D01*
X63004Y-38324D01*
X63089Y-38529D01*
X63165Y-38606D01*
X63089Y-38683D01*
X63004Y-38889D01*
X63004Y-39111D01*
X63089Y-39316D01*
X63165Y-39393D01*
X63089Y-39470D01*
X63004Y-39676D01*
X63004Y-39898D01*
X63089Y-40103D01*
X63159Y-40173D01*
X63090Y-40243D01*
X63123Y-40276D01*
X63083Y-40289D01*
X63010Y-40494D01*
X63021Y-40712D01*
X63083Y-40861D01*
X63178Y-40890D01*
X63457Y-40610D01*
X63492Y-40575D01*
X63563Y-40504D01*
X63634Y-40575D01*
X63669Y-40610D01*
X63948Y-40890D01*
X64043Y-40861D01*
X64116Y-40656D01*
X64105Y-40438D01*
X64043Y-40289D01*
X64002Y-40276D01*
X64036Y-40243D01*
X63966Y-40173D01*
X64037Y-40104D01*
X64122Y-39898D01*
X64122Y-43456D01*
X64116Y-43453D01*
X64109Y-43451D01*
X63891Y-43451D01*
X63878Y-43456D01*
X63878Y-40960D01*
X63563Y-40646D01*
X63492Y-40716D01*
X63248Y-40960D01*
X63277Y-41055D01*
X63482Y-41128D01*
X63700Y-41117D01*
X63849Y-41055D01*
X63878Y-40960D01*
X63878Y-43456D01*
X63689Y-43535D01*
X63535Y-43689D01*
X63451Y-43891D01*
X63451Y-44109D01*
X63535Y-44311D01*
X63689Y-44465D01*
X63700Y-44469D01*
X63700Y-45199D01*
X63640Y-45259D01*
X63575Y-45415D01*
X63575Y-45584D01*
X63639Y-45740D01*
X63759Y-45860D01*
X63915Y-45925D01*
X64084Y-45925D01*
X64240Y-45861D01*
X64360Y-45741D01*
X64425Y-45585D01*
X64425Y-45416D01*
X64361Y-45260D01*
X64300Y-45199D01*
X64300Y-44469D01*
X64311Y-44465D01*
X64465Y-44311D01*
X64549Y-44109D01*
X64549Y-50450D01*
X63549Y-50450D01*
X63549Y-49109D01*
X63549Y-48891D01*
X63543Y-48876D01*
X63543Y-48079D01*
X63532Y-47866D01*
X63472Y-47719D01*
X63425Y-47705D01*
X63425Y-45585D01*
X63425Y-45416D01*
X63361Y-45260D01*
X63300Y-45199D01*
X63300Y-44301D01*
X63360Y-44241D01*
X63425Y-44085D01*
X63425Y-43916D01*
X63361Y-43760D01*
X63241Y-43640D01*
X63085Y-43575D01*
X62916Y-43575D01*
X62760Y-43639D01*
X62750Y-43649D01*
X62741Y-43640D01*
X62585Y-43575D01*
X62416Y-43575D01*
X62260Y-43639D01*
X62250Y-43649D01*
X62241Y-43640D01*
X62085Y-43575D01*
X61925Y-43575D01*
X61925Y-43416D01*
X61861Y-43260D01*
X61741Y-43140D01*
X61585Y-43075D01*
X61416Y-43075D01*
X61325Y-43112D01*
X61325Y-42776D01*
X61360Y-42741D01*
X61425Y-42585D01*
X61425Y-42416D01*
X61361Y-42260D01*
X61241Y-42140D01*
X61085Y-42075D01*
X60916Y-42075D01*
X60760Y-42139D01*
X60640Y-42259D01*
X60575Y-42415D01*
X60575Y-42584D01*
X60639Y-42740D01*
X60675Y-42776D01*
X60675Y-45224D01*
X60640Y-45259D01*
X60575Y-45415D01*
X60575Y-45584D01*
X60639Y-45740D01*
X60759Y-45860D01*
X60915Y-45925D01*
X61084Y-45925D01*
X61240Y-45861D01*
X61250Y-45851D01*
X61259Y-45860D01*
X61415Y-45925D01*
X61584Y-45925D01*
X61740Y-45861D01*
X61750Y-45851D01*
X61759Y-45860D01*
X61915Y-45925D01*
X62084Y-45925D01*
X62240Y-45861D01*
X62250Y-45851D01*
X62259Y-45860D01*
X62415Y-45925D01*
X62584Y-45925D01*
X62740Y-45861D01*
X62750Y-45851D01*
X62759Y-45860D01*
X62915Y-45925D01*
X63084Y-45925D01*
X63240Y-45861D01*
X63360Y-45741D01*
X63425Y-45585D01*
X63425Y-47705D01*
X63378Y-47692D01*
X63308Y-47762D01*
X63308Y-47622D01*
X63281Y-47528D01*
X63079Y-47457D01*
X62866Y-47468D01*
X62719Y-47528D01*
X62692Y-47622D01*
X63000Y-47929D01*
X63308Y-47622D01*
X63308Y-47762D01*
X63071Y-48000D01*
X63378Y-48308D01*
X63472Y-48281D01*
X63543Y-48079D01*
X63543Y-48876D01*
X63465Y-48689D01*
X63311Y-48535D01*
X63219Y-48497D01*
X63281Y-48472D01*
X63308Y-48378D01*
X63000Y-48071D01*
X62692Y-48378D01*
X62719Y-48472D01*
X62784Y-48495D01*
X62689Y-48535D01*
X62535Y-48689D01*
X62500Y-48773D01*
X62465Y-48689D01*
X62311Y-48535D01*
X62226Y-48500D01*
X62311Y-48465D01*
X62465Y-48311D01*
X62502Y-48219D01*
X62528Y-48281D01*
X62622Y-48308D01*
X62929Y-48000D01*
X62622Y-47692D01*
X62528Y-47719D01*
X62504Y-47784D01*
X62465Y-47689D01*
X62311Y-47535D01*
X62109Y-47451D01*
X61891Y-47451D01*
X61689Y-47535D01*
X61535Y-47689D01*
X61500Y-47773D01*
X61465Y-47689D01*
X61311Y-47535D01*
X61109Y-47451D01*
X60891Y-47451D01*
X60689Y-47535D01*
X60535Y-47689D01*
X60451Y-47891D01*
X60451Y-48109D01*
X60535Y-48311D01*
X60675Y-48451D01*
X60651Y-48451D01*
X60559Y-48489D01*
X60489Y-48559D01*
X60451Y-48650D01*
X60451Y-48749D01*
X60451Y-49349D01*
X60489Y-49441D01*
X60559Y-49511D01*
X60650Y-49549D01*
X60749Y-49549D01*
X61349Y-49549D01*
X61441Y-49511D01*
X61511Y-49441D01*
X61549Y-49350D01*
X61549Y-49325D01*
X61689Y-49465D01*
X61891Y-49549D01*
X62109Y-49549D01*
X62311Y-49465D01*
X62465Y-49311D01*
X62500Y-49226D01*
X62535Y-49311D01*
X62689Y-49465D01*
X62891Y-49549D01*
X63109Y-49549D01*
X63311Y-49465D01*
X63465Y-49311D01*
X63549Y-49109D01*
X63549Y-50450D01*
X60425Y-50450D01*
X60425Y-40585D01*
X60425Y-40416D01*
X60361Y-40260D01*
X60300Y-40199D01*
X60300Y-39801D01*
X60360Y-39741D01*
X60425Y-39585D01*
X60425Y-39416D01*
X60361Y-39260D01*
X60241Y-39140D01*
X60085Y-39075D01*
X59916Y-39075D01*
X59760Y-39139D01*
X59640Y-39259D01*
X59575Y-39415D01*
X59575Y-39584D01*
X59639Y-39740D01*
X59700Y-39801D01*
X59700Y-40199D01*
X59640Y-40259D01*
X59575Y-40415D01*
X59575Y-40584D01*
X59639Y-40740D01*
X59759Y-40860D01*
X59915Y-40925D01*
X60084Y-40925D01*
X60240Y-40861D01*
X60360Y-40741D01*
X60425Y-40585D01*
X60425Y-50450D01*
X58549Y-50450D01*
X58549Y-48350D01*
X58549Y-48251D01*
X58549Y-47651D01*
X58511Y-47559D01*
X58441Y-47489D01*
X58350Y-47451D01*
X58251Y-47451D01*
X57669Y-47451D01*
X57669Y-32723D01*
X57669Y-32554D01*
X57605Y-32398D01*
X57485Y-32278D01*
X57329Y-32213D01*
X57243Y-32213D01*
X56403Y-31373D01*
X56465Y-31311D01*
X56549Y-31109D01*
X56549Y-30891D01*
X56465Y-30689D01*
X56311Y-30535D01*
X56109Y-30451D01*
X55891Y-30451D01*
X55689Y-30535D01*
X55535Y-30689D01*
X55451Y-30891D01*
X55451Y-31109D01*
X55535Y-31311D01*
X55689Y-31465D01*
X55716Y-31476D01*
X55723Y-31509D01*
X55788Y-31606D01*
X56819Y-32637D01*
X56819Y-32722D01*
X56883Y-32878D01*
X57003Y-32998D01*
X57159Y-33063D01*
X57328Y-33063D01*
X57484Y-32999D01*
X57604Y-32879D01*
X57669Y-32723D01*
X57669Y-47451D01*
X57651Y-47451D01*
X57559Y-47489D01*
X57489Y-47559D01*
X57451Y-47650D01*
X57451Y-47749D01*
X57451Y-48349D01*
X57489Y-48441D01*
X57559Y-48511D01*
X57650Y-48549D01*
X57712Y-48549D01*
X57692Y-48622D01*
X58000Y-48929D01*
X58308Y-48622D01*
X58287Y-48549D01*
X58349Y-48549D01*
X58441Y-48511D01*
X58511Y-48441D01*
X58549Y-48350D01*
X58549Y-50450D01*
X58543Y-50450D01*
X58543Y-49079D01*
X58532Y-48866D01*
X58472Y-48719D01*
X58378Y-48692D01*
X58071Y-49000D01*
X58378Y-49308D01*
X58472Y-49281D01*
X58543Y-49079D01*
X58543Y-50450D01*
X58308Y-50450D01*
X58308Y-49378D01*
X58000Y-49071D01*
X57929Y-49141D01*
X57929Y-49000D01*
X57622Y-48692D01*
X57528Y-48719D01*
X57457Y-48921D01*
X57468Y-49134D01*
X57528Y-49281D01*
X57622Y-49308D01*
X57929Y-49000D01*
X57929Y-49141D01*
X57692Y-49378D01*
X57719Y-49472D01*
X57921Y-49543D01*
X58134Y-49532D01*
X58281Y-49472D01*
X58308Y-49378D01*
X58308Y-50450D01*
X56921Y-50450D01*
X56921Y-34849D01*
X56921Y-34680D01*
X56857Y-34524D01*
X56737Y-34404D01*
X56581Y-34339D01*
X56412Y-34339D01*
X56256Y-34403D01*
X56136Y-34523D01*
X56071Y-34679D01*
X56071Y-34764D01*
X56055Y-34780D01*
X56055Y-32723D01*
X56055Y-32554D01*
X55991Y-32398D01*
X55871Y-32278D01*
X55715Y-32213D01*
X55665Y-32213D01*
X54549Y-31097D01*
X54549Y-30891D01*
X54465Y-30689D01*
X54311Y-30535D01*
X54109Y-30451D01*
X53891Y-30451D01*
X53689Y-30535D01*
X53535Y-30689D01*
X53451Y-30891D01*
X53451Y-31109D01*
X53535Y-31311D01*
X53689Y-31465D01*
X53891Y-31549D01*
X54081Y-31549D01*
X55205Y-32673D01*
X55205Y-32722D01*
X55269Y-32878D01*
X55389Y-32998D01*
X55545Y-33063D01*
X55714Y-33063D01*
X55870Y-32999D01*
X55990Y-32879D01*
X56055Y-32723D01*
X56055Y-34780D01*
X53347Y-37488D01*
X53262Y-37488D01*
X53106Y-37552D01*
X53077Y-37581D01*
X53077Y-31215D01*
X53077Y-30787D01*
X52914Y-30391D01*
X52611Y-30088D01*
X52215Y-29923D01*
X51787Y-29923D01*
X51391Y-30086D01*
X51088Y-30389D01*
X50923Y-30785D01*
X50923Y-31213D01*
X51086Y-31609D01*
X51389Y-31912D01*
X51785Y-32077D01*
X52213Y-32077D01*
X52609Y-31914D01*
X52912Y-31611D01*
X53077Y-31215D01*
X53077Y-37581D01*
X52986Y-37672D01*
X52921Y-37828D01*
X52921Y-37997D01*
X52985Y-38153D01*
X53105Y-38273D01*
X53261Y-38338D01*
X53430Y-38338D01*
X53586Y-38274D01*
X53706Y-38154D01*
X53771Y-37998D01*
X53771Y-37912D01*
X56494Y-35189D01*
X56580Y-35189D01*
X56736Y-35125D01*
X56856Y-35005D01*
X56921Y-34849D01*
X56921Y-50450D01*
X56549Y-50450D01*
X56549Y-48350D01*
X56549Y-48251D01*
X56549Y-47651D01*
X56511Y-47559D01*
X56441Y-47489D01*
X56350Y-47451D01*
X56251Y-47451D01*
X55651Y-47451D01*
X55559Y-47489D01*
X55489Y-47559D01*
X55451Y-47650D01*
X55451Y-47749D01*
X55451Y-48349D01*
X55489Y-48441D01*
X55559Y-48511D01*
X55650Y-48549D01*
X55712Y-48549D01*
X55692Y-48622D01*
X56000Y-48929D01*
X56308Y-48622D01*
X56287Y-48549D01*
X56349Y-48549D01*
X56441Y-48511D01*
X56511Y-48441D01*
X56549Y-48350D01*
X56549Y-50450D01*
X56543Y-50450D01*
X56543Y-49079D01*
X56532Y-48866D01*
X56472Y-48719D01*
X56378Y-48692D01*
X56071Y-49000D01*
X56378Y-49308D01*
X56472Y-49281D01*
X56543Y-49079D01*
X56543Y-50450D01*
X56308Y-50450D01*
X56308Y-49378D01*
X56000Y-49071D01*
X55929Y-49141D01*
X55929Y-49000D01*
X55622Y-48692D01*
X55528Y-48719D01*
X55457Y-48921D01*
X55468Y-49134D01*
X55528Y-49281D01*
X55622Y-49308D01*
X55929Y-49000D01*
X55929Y-49141D01*
X55692Y-49378D01*
X55719Y-49472D01*
X55921Y-49543D01*
X56134Y-49532D01*
X56281Y-49472D01*
X56308Y-49378D01*
X56308Y-50450D01*
X53077Y-50450D01*
X53077Y-49215D01*
X53077Y-48787D01*
X52914Y-48391D01*
X52611Y-48088D01*
X52549Y-48062D01*
X52549Y-46350D01*
X52549Y-46251D01*
X52549Y-45651D01*
X52511Y-45559D01*
X52441Y-45489D01*
X52350Y-45451D01*
X52325Y-45451D01*
X52465Y-45311D01*
X52549Y-45109D01*
X52549Y-44891D01*
X52543Y-44876D01*
X52543Y-41079D01*
X52532Y-40866D01*
X52472Y-40719D01*
X52378Y-40692D01*
X52308Y-40762D01*
X52308Y-40622D01*
X52281Y-40528D01*
X52079Y-40457D01*
X51866Y-40468D01*
X51719Y-40528D01*
X51692Y-40622D01*
X52000Y-40929D01*
X52308Y-40622D01*
X52308Y-40762D01*
X52071Y-41000D01*
X52378Y-41308D01*
X52472Y-41281D01*
X52543Y-41079D01*
X52543Y-44876D01*
X52515Y-44809D01*
X52515Y-42205D01*
X52504Y-41992D01*
X52444Y-41845D01*
X52350Y-41818D01*
X52308Y-41860D01*
X52308Y-41378D01*
X52000Y-41071D01*
X51929Y-41141D01*
X51929Y-41000D01*
X51622Y-40692D01*
X51528Y-40719D01*
X51457Y-40921D01*
X51468Y-41134D01*
X51528Y-41281D01*
X51622Y-41308D01*
X51929Y-41000D01*
X51929Y-41141D01*
X51692Y-41378D01*
X51719Y-41472D01*
X51921Y-41543D01*
X52134Y-41532D01*
X52281Y-41472D01*
X52308Y-41378D01*
X52308Y-41860D01*
X52280Y-41888D01*
X52280Y-41748D01*
X52253Y-41654D01*
X52051Y-41583D01*
X51838Y-41594D01*
X51691Y-41654D01*
X51664Y-41748D01*
X51972Y-42055D01*
X52280Y-41748D01*
X52280Y-41888D01*
X52043Y-42126D01*
X52350Y-42434D01*
X52444Y-42407D01*
X52515Y-42205D01*
X52515Y-44809D01*
X52465Y-44689D01*
X52311Y-44535D01*
X52280Y-44522D01*
X52280Y-42504D01*
X51972Y-42197D01*
X51901Y-42267D01*
X51901Y-42126D01*
X51594Y-41818D01*
X51500Y-41845D01*
X51429Y-42047D01*
X51440Y-42260D01*
X51500Y-42407D01*
X51594Y-42434D01*
X51901Y-42126D01*
X51901Y-42267D01*
X51664Y-42504D01*
X51691Y-42598D01*
X51893Y-42669D01*
X52106Y-42658D01*
X52253Y-42598D01*
X52280Y-42504D01*
X52280Y-44522D01*
X52109Y-44451D01*
X51891Y-44451D01*
X51689Y-44535D01*
X51535Y-44689D01*
X51451Y-44891D01*
X51451Y-45109D01*
X51535Y-45311D01*
X51675Y-45451D01*
X51651Y-45451D01*
X51559Y-45489D01*
X51489Y-45559D01*
X51451Y-45650D01*
X51451Y-45749D01*
X51451Y-46349D01*
X51489Y-46441D01*
X51559Y-46511D01*
X51650Y-46549D01*
X51749Y-46549D01*
X52349Y-46549D01*
X52441Y-46511D01*
X52511Y-46441D01*
X52549Y-46350D01*
X52549Y-48062D01*
X52215Y-47923D01*
X51787Y-47923D01*
X51391Y-48086D01*
X51088Y-48389D01*
X50923Y-48785D01*
X50923Y-49213D01*
X51086Y-49609D01*
X51389Y-49912D01*
X51785Y-50077D01*
X52213Y-50077D01*
X52609Y-49914D01*
X52912Y-49611D01*
X53077Y-49215D01*
X53077Y-50450D01*
X50550Y-50450D01*
X50550Y-29550D01*
X63479Y-29550D01*
X64450Y-30521D01*
X64450Y-33550D01*
X71550Y-33550D01*
X71550Y-30521D01*
X72521Y-29550D01*
X74450Y-29550D01*
X74450Y-50450D01*
X74450Y-50450D01*
G37*
G54D20*
X74450Y-50450D02*
X74077Y-50450D01*
X74077Y-49215D01*
X74077Y-48787D01*
X74077Y-31215D01*
X74077Y-30787D01*
X73914Y-30391D01*
X73611Y-30088D01*
X73215Y-29923D01*
X72787Y-29923D01*
X72391Y-30086D01*
X72088Y-30389D01*
X71923Y-30785D01*
X71923Y-31213D01*
X72086Y-31609D01*
X72389Y-31912D01*
X72785Y-32077D01*
X73213Y-32077D01*
X73609Y-31914D01*
X73912Y-31611D01*
X74077Y-31215D01*
X74077Y-48787D01*
X73914Y-48391D01*
X73611Y-48088D01*
X73215Y-47923D01*
X72787Y-47923D01*
X72783Y-47924D01*
X72783Y-40686D01*
X72783Y-40464D01*
X72698Y-40259D01*
X72620Y-40181D01*
X72698Y-40104D01*
X72783Y-39898D01*
X72783Y-39676D01*
X72698Y-39471D01*
X72621Y-39393D01*
X72698Y-39317D01*
X72783Y-39111D01*
X72783Y-38889D01*
X72698Y-38684D01*
X72621Y-38606D01*
X72698Y-38530D01*
X72783Y-38324D01*
X72783Y-38102D01*
X72698Y-37897D01*
X72620Y-37819D01*
X72698Y-37742D01*
X72783Y-37536D01*
X72783Y-37314D01*
X72698Y-37109D01*
X72621Y-37031D01*
X72698Y-36955D01*
X72783Y-36749D01*
X72783Y-36527D01*
X72698Y-36322D01*
X72620Y-36244D01*
X72698Y-36167D01*
X72783Y-35961D01*
X72783Y-35739D01*
X72698Y-35534D01*
X72621Y-35456D01*
X72698Y-35380D01*
X72783Y-35174D01*
X72783Y-34952D01*
X72698Y-34747D01*
X72621Y-34669D01*
X72698Y-34593D01*
X72783Y-34387D01*
X72783Y-34165D01*
X72698Y-33960D01*
X72620Y-33882D01*
X72698Y-33805D01*
X72783Y-33599D01*
X72783Y-33377D01*
X72698Y-33172D01*
X72541Y-33014D01*
X72335Y-32929D01*
X72113Y-32929D01*
X71908Y-33014D01*
X71750Y-33171D01*
X71665Y-33377D01*
X71665Y-33599D01*
X71750Y-33804D01*
X71827Y-33881D01*
X71750Y-33959D01*
X71665Y-34165D01*
X71665Y-34387D01*
X71750Y-34592D01*
X71826Y-34669D01*
X71750Y-34746D01*
X71665Y-34952D01*
X71665Y-35174D01*
X71750Y-35379D01*
X71826Y-35456D01*
X71750Y-35533D01*
X71665Y-35739D01*
X71665Y-35961D01*
X71750Y-36166D01*
X71827Y-36243D01*
X71750Y-36321D01*
X71665Y-36527D01*
X71665Y-36749D01*
X71750Y-36954D01*
X71826Y-37031D01*
X71750Y-37108D01*
X71665Y-37314D01*
X71665Y-37536D01*
X71750Y-37741D01*
X71827Y-37818D01*
X71750Y-37896D01*
X71665Y-38102D01*
X71665Y-38324D01*
X71750Y-38529D01*
X71826Y-38606D01*
X71750Y-38683D01*
X71665Y-38889D01*
X71665Y-39111D01*
X71750Y-39316D01*
X71826Y-39393D01*
X71750Y-39470D01*
X71665Y-39676D01*
X71665Y-39898D01*
X71750Y-40103D01*
X71827Y-40180D01*
X71750Y-40258D01*
X71665Y-40464D01*
X71665Y-40686D01*
X71750Y-40891D01*
X71907Y-41049D01*
X72113Y-41134D01*
X72335Y-41134D01*
X72540Y-41049D01*
X72698Y-40892D01*
X72783Y-40686D01*
X72783Y-47924D01*
X72549Y-48020D01*
X72549Y-44109D01*
X72549Y-43891D01*
X72465Y-43689D01*
X72311Y-43535D01*
X72109Y-43451D01*
X71891Y-43451D01*
X71689Y-43535D01*
X71535Y-43689D01*
X71451Y-43891D01*
X71451Y-44109D01*
X71535Y-44311D01*
X71689Y-44465D01*
X71891Y-44549D01*
X72109Y-44549D01*
X72311Y-44465D01*
X72465Y-44311D01*
X72549Y-44109D01*
X72549Y-48020D01*
X72391Y-48086D01*
X72088Y-48389D01*
X71923Y-48785D01*
X71923Y-49213D01*
X72086Y-49609D01*
X72389Y-49912D01*
X72785Y-50077D01*
X73213Y-50077D01*
X73609Y-49914D01*
X73912Y-49611D01*
X74077Y-49215D01*
X74077Y-50450D01*
X70549Y-50450D01*
X70549Y-44109D01*
X70549Y-43891D01*
X70465Y-43689D01*
X70311Y-43535D01*
X70109Y-43451D01*
X69891Y-43451D01*
X69689Y-43535D01*
X69535Y-43689D01*
X69451Y-43891D01*
X69451Y-44109D01*
X69535Y-44311D01*
X69689Y-44465D01*
X69891Y-44549D01*
X70109Y-44549D01*
X70311Y-44465D01*
X70465Y-44311D01*
X70549Y-44109D01*
X70549Y-50450D01*
X68549Y-50450D01*
X68549Y-44109D01*
X68549Y-43891D01*
X68465Y-43689D01*
X68311Y-43535D01*
X68109Y-43451D01*
X67891Y-43451D01*
X67689Y-43535D01*
X67535Y-43689D01*
X67451Y-43891D01*
X67451Y-44109D01*
X67535Y-44311D01*
X67689Y-44465D01*
X67891Y-44549D01*
X68109Y-44549D01*
X68311Y-44465D01*
X68465Y-44311D01*
X68549Y-44109D01*
X68549Y-50450D01*
X66549Y-50450D01*
X66549Y-44109D01*
X66549Y-43891D01*
X66465Y-43689D01*
X66311Y-43535D01*
X66109Y-43451D01*
X65891Y-43451D01*
X65689Y-43535D01*
X65535Y-43689D01*
X65451Y-43891D01*
X65451Y-44109D01*
X65535Y-44311D01*
X65689Y-44465D01*
X65891Y-44549D01*
X66109Y-44549D01*
X66311Y-44465D01*
X66465Y-44311D01*
X66549Y-44109D01*
X66549Y-50450D01*
X66045Y-50450D01*
X66045Y-49112D01*
X66045Y-48888D01*
X66044Y-48656D01*
X66006Y-48564D01*
X65936Y-48494D01*
X65845Y-48456D01*
X65813Y-48456D01*
X65961Y-48308D01*
X66044Y-48108D01*
X66044Y-47892D01*
X65961Y-47692D01*
X65808Y-47539D01*
X65608Y-47456D01*
X65392Y-47456D01*
X65192Y-47539D01*
X65039Y-47692D01*
X64956Y-47892D01*
X64956Y-48108D01*
X65039Y-48308D01*
X65187Y-48456D01*
X65155Y-48456D01*
X65064Y-48494D01*
X64994Y-48564D01*
X64956Y-48656D01*
X64955Y-48888D01*
X65017Y-48950D01*
X65400Y-48950D01*
X65450Y-48950D01*
X65550Y-48950D01*
X65600Y-48950D01*
X65983Y-48950D01*
X66045Y-48888D01*
X66045Y-49112D01*
X65983Y-49050D01*
X65550Y-49050D01*
X65550Y-49483D01*
X65612Y-49545D01*
X65746Y-49544D01*
X65845Y-49544D01*
X65936Y-49506D01*
X66006Y-49436D01*
X66044Y-49344D01*
X66045Y-49112D01*
X66045Y-50450D01*
X65450Y-50450D01*
X65450Y-49483D01*
X65450Y-49050D01*
X65017Y-49050D01*
X64955Y-49112D01*
X64956Y-49344D01*
X64994Y-49436D01*
X65064Y-49506D01*
X65155Y-49544D01*
X65254Y-49544D01*
X65388Y-49545D01*
X65450Y-49483D01*
X65450Y-50450D01*
X64549Y-50450D01*
X64549Y-44109D01*
X64549Y-43891D01*
X64465Y-43689D01*
X64311Y-43535D01*
X64122Y-43456D01*
X64122Y-39898D01*
X64122Y-39676D01*
X64037Y-39471D01*
X63960Y-39393D01*
X64037Y-39317D01*
X64122Y-39111D01*
X64122Y-38889D01*
X64037Y-38684D01*
X63960Y-38606D01*
X64037Y-38530D01*
X64122Y-38324D01*
X64122Y-38102D01*
X64037Y-37897D01*
X63959Y-37819D01*
X64037Y-37742D01*
X64122Y-37536D01*
X64122Y-37314D01*
X64037Y-37109D01*
X63960Y-37031D01*
X64037Y-36955D01*
X64122Y-36749D01*
X64122Y-36527D01*
X64037Y-36322D01*
X63959Y-36244D01*
X64037Y-36167D01*
X64122Y-35961D01*
X64122Y-35739D01*
X64037Y-35534D01*
X63960Y-35456D01*
X64037Y-35380D01*
X64122Y-35174D01*
X64122Y-34952D01*
X64037Y-34747D01*
X63960Y-34669D01*
X64037Y-34593D01*
X64122Y-34387D01*
X64122Y-34165D01*
X64044Y-33978D01*
X64084Y-33939D01*
X64122Y-33848D01*
X64122Y-33749D01*
X64122Y-33129D01*
X64084Y-33037D01*
X64014Y-32967D01*
X63923Y-32929D01*
X63824Y-32929D01*
X63204Y-32929D01*
X63112Y-32967D01*
X63042Y-33037D01*
X63004Y-33128D01*
X63004Y-33227D01*
X63004Y-33847D01*
X63042Y-33939D01*
X63079Y-33976D01*
X62929Y-33976D01*
X62814Y-33999D01*
X62716Y-34064D01*
X62638Y-34142D01*
X62554Y-34142D01*
X62426Y-34194D01*
X62426Y-32086D01*
X62403Y-31971D01*
X62338Y-31874D01*
X62300Y-31836D01*
X62300Y-31469D01*
X62311Y-31465D01*
X62465Y-31311D01*
X62549Y-31109D01*
X62549Y-30891D01*
X62465Y-30689D01*
X62311Y-30535D01*
X62109Y-30451D01*
X61891Y-30451D01*
X61689Y-30535D01*
X61535Y-30689D01*
X61500Y-30773D01*
X61465Y-30689D01*
X61311Y-30535D01*
X61109Y-30451D01*
X60891Y-30451D01*
X60689Y-30535D01*
X60535Y-30689D01*
X60500Y-30773D01*
X60465Y-30689D01*
X60311Y-30535D01*
X60109Y-30451D01*
X59891Y-30451D01*
X59689Y-30535D01*
X59535Y-30689D01*
X59500Y-30773D01*
X59465Y-30689D01*
X59311Y-30535D01*
X59109Y-30451D01*
X58891Y-30451D01*
X58689Y-30535D01*
X58535Y-30689D01*
X58500Y-30773D01*
X58465Y-30689D01*
X58311Y-30535D01*
X58109Y-30451D01*
X57891Y-30451D01*
X57689Y-30535D01*
X57535Y-30689D01*
X57451Y-30891D01*
X57451Y-31109D01*
X57535Y-31311D01*
X57689Y-31465D01*
X57700Y-31469D01*
X57700Y-31504D01*
X57723Y-31619D01*
X57788Y-31716D01*
X58834Y-32762D01*
X58834Y-33450D01*
X58696Y-33450D01*
X58540Y-33514D01*
X58420Y-33634D01*
X58355Y-33790D01*
X58355Y-33959D01*
X58419Y-34115D01*
X58480Y-34176D01*
X58480Y-35748D01*
X58503Y-35863D01*
X58568Y-35960D01*
X59433Y-36826D01*
X59434Y-36826D01*
X59531Y-36891D01*
X59645Y-36913D01*
X59646Y-36914D01*
X60210Y-36914D01*
X60231Y-36935D01*
X60387Y-37000D01*
X60556Y-37000D01*
X60712Y-36936D01*
X60832Y-36816D01*
X60897Y-36660D01*
X60897Y-36491D01*
X60833Y-36335D01*
X60713Y-36215D01*
X60557Y-36150D01*
X60388Y-36150D01*
X60232Y-36214D01*
X60189Y-36257D01*
X60189Y-36136D01*
X60132Y-35998D01*
X60269Y-36055D01*
X60438Y-36055D01*
X60594Y-35991D01*
X60649Y-35935D01*
X60704Y-35990D01*
X60860Y-36055D01*
X61029Y-36055D01*
X61185Y-35991D01*
X61240Y-35936D01*
X61294Y-35990D01*
X61450Y-36055D01*
X61619Y-36055D01*
X61775Y-35991D01*
X61830Y-35935D01*
X61885Y-35990D01*
X62041Y-36055D01*
X62210Y-36055D01*
X62366Y-35991D01*
X62486Y-35871D01*
X62551Y-35715D01*
X62551Y-35546D01*
X62487Y-35390D01*
X62426Y-35329D01*
X62426Y-34939D01*
X62553Y-34992D01*
X62722Y-34992D01*
X62878Y-34928D01*
X62998Y-34808D01*
X63063Y-34652D01*
X63063Y-34576D01*
X63082Y-34576D01*
X63089Y-34592D01*
X63165Y-34669D01*
X63089Y-34746D01*
X63004Y-34952D01*
X63004Y-35174D01*
X63089Y-35379D01*
X63165Y-35456D01*
X63089Y-35533D01*
X63004Y-35739D01*
X63004Y-35961D01*
X63089Y-36166D01*
X63166Y-36243D01*
X63089Y-36321D01*
X63004Y-36527D01*
X63004Y-36749D01*
X63089Y-36954D01*
X63165Y-37031D01*
X63089Y-37108D01*
X63004Y-37314D01*
X63004Y-37536D01*
X63089Y-37741D01*
X63166Y-37818D01*
X63089Y-37896D01*
X63004Y-38102D01*
X63004Y-38324D01*
X63089Y-38529D01*
X63165Y-38606D01*
X63089Y-38683D01*
X63004Y-38889D01*
X63004Y-39111D01*
X63089Y-39316D01*
X63165Y-39393D01*
X63089Y-39470D01*
X63004Y-39676D01*
X63004Y-39898D01*
X63089Y-40103D01*
X63159Y-40173D01*
X63090Y-40243D01*
X63123Y-40276D01*
X63083Y-40289D01*
X63010Y-40494D01*
X63021Y-40712D01*
X63083Y-40861D01*
X63178Y-40890D01*
X63457Y-40610D01*
X63492Y-40575D01*
X63563Y-40504D01*
X63634Y-40575D01*
X63669Y-40610D01*
X63948Y-40890D01*
X64043Y-40861D01*
X64116Y-40656D01*
X64105Y-40438D01*
X64043Y-40289D01*
X64002Y-40276D01*
X64036Y-40243D01*
X63966Y-40173D01*
X64037Y-40104D01*
X64122Y-39898D01*
X64122Y-43456D01*
X64116Y-43453D01*
X64109Y-43451D01*
X63891Y-43451D01*
X63878Y-43456D01*
X63878Y-40960D01*
X63563Y-40646D01*
X63492Y-40716D01*
X63248Y-40960D01*
X63277Y-41055D01*
X63482Y-41128D01*
X63700Y-41117D01*
X63849Y-41055D01*
X63878Y-40960D01*
X63878Y-43456D01*
X63689Y-43535D01*
X63535Y-43689D01*
X63451Y-43891D01*
X63451Y-44109D01*
X63535Y-44311D01*
X63689Y-44465D01*
X63700Y-44469D01*
X63700Y-45199D01*
X63640Y-45259D01*
X63575Y-45415D01*
X63575Y-45584D01*
X63639Y-45740D01*
X63759Y-45860D01*
X63915Y-45925D01*
X64084Y-45925D01*
X64240Y-45861D01*
X64360Y-45741D01*
X64425Y-45585D01*
X64425Y-45416D01*
X64361Y-45260D01*
X64300Y-45199D01*
X64300Y-44469D01*
X64311Y-44465D01*
X64465Y-44311D01*
X64549Y-44109D01*
X64549Y-50450D01*
X63549Y-50450D01*
X63549Y-49109D01*
X63549Y-48891D01*
X63543Y-48876D01*
X63543Y-48079D01*
X63532Y-47866D01*
X63472Y-47719D01*
X63425Y-47705D01*
X63425Y-45585D01*
X63425Y-45416D01*
X63361Y-45260D01*
X63300Y-45199D01*
X63300Y-44301D01*
X63360Y-44241D01*
X63425Y-44085D01*
X63425Y-43916D01*
X63361Y-43760D01*
X63241Y-43640D01*
X63085Y-43575D01*
X62916Y-43575D01*
X62760Y-43639D01*
X62750Y-43649D01*
X62741Y-43640D01*
X62585Y-43575D01*
X62416Y-43575D01*
X62260Y-43639D01*
X62250Y-43649D01*
X62241Y-43640D01*
X62085Y-43575D01*
X61925Y-43575D01*
X61925Y-43416D01*
X61861Y-43260D01*
X61741Y-43140D01*
X61585Y-43075D01*
X61416Y-43075D01*
X61325Y-43112D01*
X61325Y-42776D01*
X61360Y-42741D01*
X61425Y-42585D01*
X61425Y-42416D01*
X61361Y-42260D01*
X61241Y-42140D01*
X61085Y-42075D01*
X60916Y-42075D01*
X60760Y-42139D01*
X60640Y-42259D01*
X60575Y-42415D01*
X60575Y-42584D01*
X60639Y-42740D01*
X60675Y-42776D01*
X60675Y-45224D01*
X60640Y-45259D01*
X60575Y-45415D01*
X60575Y-45584D01*
X60639Y-45740D01*
X60759Y-45860D01*
X60915Y-45925D01*
X61084Y-45925D01*
X61240Y-45861D01*
X61250Y-45851D01*
X61259Y-45860D01*
X61415Y-45925D01*
X61584Y-45925D01*
X61740Y-45861D01*
X61750Y-45851D01*
X61759Y-45860D01*
X61915Y-45925D01*
X62084Y-45925D01*
X62240Y-45861D01*
X62250Y-45851D01*
X62259Y-45860D01*
X62415Y-45925D01*
X62584Y-45925D01*
X62740Y-45861D01*
X62750Y-45851D01*
X62759Y-45860D01*
X62915Y-45925D01*
X63084Y-45925D01*
X63240Y-45861D01*
X63360Y-45741D01*
X63425Y-45585D01*
X63425Y-47705D01*
X63378Y-47692D01*
X63308Y-47762D01*
X63308Y-47622D01*
X63281Y-47528D01*
X63079Y-47457D01*
X62866Y-47468D01*
X62719Y-47528D01*
X62692Y-47622D01*
X63000Y-47929D01*
X63308Y-47622D01*
X63308Y-47762D01*
X63071Y-48000D01*
X63378Y-48308D01*
X63472Y-48281D01*
X63543Y-48079D01*
X63543Y-48876D01*
X63465Y-48689D01*
X63311Y-48535D01*
X63219Y-48497D01*
X63281Y-48472D01*
X63308Y-48378D01*
X63000Y-48071D01*
X62692Y-48378D01*
X62719Y-48472D01*
X62784Y-48495D01*
X62689Y-48535D01*
X62535Y-48689D01*
X62500Y-48773D01*
X62465Y-48689D01*
X62311Y-48535D01*
X62226Y-48500D01*
X62311Y-48465D01*
X62465Y-48311D01*
X62502Y-48219D01*
X62528Y-48281D01*
X62622Y-48308D01*
X62929Y-48000D01*
X62622Y-47692D01*
X62528Y-47719D01*
X62504Y-47784D01*
X62465Y-47689D01*
X62311Y-47535D01*
X62109Y-47451D01*
X61891Y-47451D01*
X61689Y-47535D01*
X61535Y-47689D01*
X61500Y-47773D01*
X61465Y-47689D01*
X61311Y-47535D01*
X61109Y-47451D01*
X60891Y-47451D01*
X60689Y-47535D01*
X60535Y-47689D01*
X60451Y-47891D01*
X60451Y-48109D01*
X60535Y-48311D01*
X60675Y-48451D01*
X60651Y-48451D01*
X60559Y-48489D01*
X60489Y-48559D01*
X60451Y-48650D01*
X60451Y-48749D01*
X60451Y-49349D01*
X60489Y-49441D01*
X60559Y-49511D01*
X60650Y-49549D01*
X60749Y-49549D01*
X61349Y-49549D01*
X61441Y-49511D01*
X61511Y-49441D01*
X61549Y-49350D01*
X61549Y-49325D01*
X61689Y-49465D01*
X61891Y-49549D01*
X62109Y-49549D01*
X62311Y-49465D01*
X62465Y-49311D01*
X62500Y-49226D01*
X62535Y-49311D01*
X62689Y-49465D01*
X62891Y-49549D01*
X63109Y-49549D01*
X63311Y-49465D01*
X63465Y-49311D01*
X63549Y-49109D01*
X63549Y-50450D01*
X60425Y-50450D01*
X60425Y-40585D01*
X60425Y-40416D01*
X60361Y-40260D01*
X60300Y-40199D01*
X60300Y-39801D01*
X60360Y-39741D01*
X60425Y-39585D01*
X60425Y-39416D01*
X60361Y-39260D01*
X60241Y-39140D01*
X60085Y-39075D01*
X59916Y-39075D01*
X59760Y-39139D01*
X59640Y-39259D01*
X59575Y-39415D01*
X59575Y-39584D01*
X59639Y-39740D01*
X59700Y-39801D01*
X59700Y-40199D01*
X59640Y-40259D01*
X59575Y-40415D01*
X59575Y-40584D01*
X59639Y-40740D01*
X59759Y-40860D01*
X59915Y-40925D01*
X60084Y-40925D01*
X60240Y-40861D01*
X60360Y-40741D01*
X60425Y-40585D01*
X60425Y-50450D01*
X58549Y-50450D01*
X58549Y-48350D01*
X58549Y-48251D01*
X58549Y-47651D01*
X58511Y-47559D01*
X58441Y-47489D01*
X58350Y-47451D01*
X58251Y-47451D01*
X57669Y-47451D01*
X57669Y-32723D01*
X57669Y-32554D01*
X57605Y-32398D01*
X57485Y-32278D01*
X57329Y-32213D01*
X57243Y-32213D01*
X56403Y-31373D01*
X56465Y-31311D01*
X56549Y-31109D01*
X56549Y-30891D01*
X56465Y-30689D01*
X56311Y-30535D01*
X56109Y-30451D01*
X55891Y-30451D01*
X55689Y-30535D01*
X55535Y-30689D01*
X55451Y-30891D01*
X55451Y-31109D01*
X55535Y-31311D01*
X55689Y-31465D01*
X55716Y-31476D01*
X55723Y-31509D01*
X55788Y-31606D01*
X56819Y-32637D01*
X56819Y-32722D01*
X56883Y-32878D01*
X57003Y-32998D01*
X57159Y-33063D01*
X57328Y-33063D01*
X57484Y-32999D01*
X57604Y-32879D01*
X57669Y-32723D01*
X57669Y-47451D01*
X57651Y-47451D01*
X57559Y-47489D01*
X57489Y-47559D01*
X57451Y-47650D01*
X57451Y-47749D01*
X57451Y-48349D01*
X57489Y-48441D01*
X57559Y-48511D01*
X57650Y-48549D01*
X57712Y-48549D01*
X57692Y-48622D01*
X58000Y-48929D01*
X58308Y-48622D01*
X58287Y-48549D01*
X58349Y-48549D01*
X58441Y-48511D01*
X58511Y-48441D01*
X58549Y-48350D01*
X58549Y-50450D01*
X58543Y-50450D01*
X58543Y-49079D01*
X58532Y-48866D01*
X58472Y-48719D01*
X58378Y-48692D01*
X58071Y-49000D01*
X58378Y-49308D01*
X58472Y-49281D01*
X58543Y-49079D01*
X58543Y-50450D01*
X58308Y-50450D01*
X58308Y-49378D01*
X58000Y-49071D01*
X57929Y-49141D01*
X57929Y-49000D01*
X57622Y-48692D01*
X57528Y-48719D01*
X57457Y-48921D01*
X57468Y-49134D01*
X57528Y-49281D01*
X57622Y-49308D01*
X57929Y-49000D01*
X57929Y-49141D01*
X57692Y-49378D01*
X57719Y-49472D01*
X57921Y-49543D01*
X58134Y-49532D01*
X58281Y-49472D01*
X58308Y-49378D01*
X58308Y-50450D01*
X56921Y-50450D01*
X56921Y-34849D01*
X56921Y-34680D01*
X56857Y-34524D01*
X56737Y-34404D01*
X56581Y-34339D01*
X56412Y-34339D01*
X56256Y-34403D01*
X56136Y-34523D01*
X56071Y-34679D01*
X56071Y-34764D01*
X56055Y-34780D01*
X56055Y-32723D01*
X56055Y-32554D01*
X55991Y-32398D01*
X55871Y-32278D01*
X55715Y-32213D01*
X55665Y-32213D01*
X54549Y-31097D01*
X54549Y-30891D01*
X54465Y-30689D01*
X54311Y-30535D01*
X54109Y-30451D01*
X53891Y-30451D01*
X53689Y-30535D01*
X53535Y-30689D01*
X53451Y-30891D01*
X53451Y-31109D01*
X53535Y-31311D01*
X53689Y-31465D01*
X53891Y-31549D01*
X54081Y-31549D01*
X55205Y-32673D01*
X55205Y-32722D01*
X55269Y-32878D01*
X55389Y-32998D01*
X55545Y-33063D01*
X55714Y-33063D01*
X55870Y-32999D01*
X55990Y-32879D01*
X56055Y-32723D01*
X56055Y-34780D01*
X53347Y-37488D01*
X53262Y-37488D01*
X53106Y-37552D01*
X53077Y-37581D01*
X53077Y-31215D01*
X53077Y-30787D01*
X52914Y-30391D01*
X52611Y-30088D01*
X52215Y-29923D01*
X51787Y-29923D01*
X51391Y-30086D01*
X51088Y-30389D01*
X50923Y-30785D01*
X50923Y-31213D01*
X51086Y-31609D01*
X51389Y-31912D01*
X51785Y-32077D01*
X52213Y-32077D01*
X52609Y-31914D01*
X52912Y-31611D01*
X53077Y-31215D01*
X53077Y-37581D01*
X52986Y-37672D01*
X52921Y-37828D01*
X52921Y-37997D01*
X52985Y-38153D01*
X53105Y-38273D01*
X53261Y-38338D01*
X53430Y-38338D01*
X53586Y-38274D01*
X53706Y-38154D01*
X53771Y-37998D01*
X53771Y-37912D01*
X56494Y-35189D01*
X56580Y-35189D01*
X56736Y-35125D01*
X56856Y-35005D01*
X56921Y-34849D01*
X56921Y-50450D01*
X56549Y-50450D01*
X56549Y-48350D01*
X56549Y-48251D01*
X56549Y-47651D01*
X56511Y-47559D01*
X56441Y-47489D01*
X56350Y-47451D01*
X56251Y-47451D01*
X55651Y-47451D01*
X55559Y-47489D01*
X55489Y-47559D01*
X55451Y-47650D01*
X55451Y-47749D01*
X55451Y-48349D01*
X55489Y-48441D01*
X55559Y-48511D01*
X55650Y-48549D01*
X55712Y-48549D01*
X55692Y-48622D01*
X56000Y-48929D01*
X56308Y-48622D01*
X56287Y-48549D01*
X56349Y-48549D01*
X56441Y-48511D01*
X56511Y-48441D01*
X56549Y-48350D01*
X56549Y-50450D01*
X56543Y-50450D01*
X56543Y-49079D01*
X56532Y-48866D01*
X56472Y-48719D01*
X56378Y-48692D01*
X56071Y-49000D01*
X56378Y-49308D01*
X56472Y-49281D01*
X56543Y-49079D01*
X56543Y-50450D01*
X56308Y-50450D01*
X56308Y-49378D01*
X56000Y-49071D01*
X55929Y-49141D01*
X55929Y-49000D01*
X55622Y-48692D01*
X55528Y-48719D01*
X55457Y-48921D01*
X55468Y-49134D01*
X55528Y-49281D01*
X55622Y-49308D01*
X55929Y-49000D01*
X55929Y-49141D01*
X55692Y-49378D01*
X55719Y-49472D01*
X55921Y-49543D01*
X56134Y-49532D01*
X56281Y-49472D01*
X56308Y-49378D01*
X56308Y-50450D01*
X53077Y-50450D01*
X53077Y-49215D01*
X53077Y-48787D01*
X52914Y-48391D01*
X52611Y-48088D01*
X52549Y-48062D01*
X52549Y-46350D01*
X52549Y-46251D01*
X52549Y-45651D01*
X52511Y-45559D01*
X52441Y-45489D01*
X52350Y-45451D01*
X52325Y-45451D01*
X52465Y-45311D01*
X52549Y-45109D01*
X52549Y-44891D01*
X52543Y-44876D01*
X52543Y-41079D01*
X52532Y-40866D01*
X52472Y-40719D01*
X52378Y-40692D01*
X52308Y-40762D01*
X52308Y-40622D01*
X52281Y-40528D01*
X52079Y-40457D01*
X51866Y-40468D01*
X51719Y-40528D01*
X51692Y-40622D01*
X52000Y-40929D01*
X52308Y-40622D01*
X52308Y-40762D01*
X52071Y-41000D01*
X52378Y-41308D01*
X52472Y-41281D01*
X52543Y-41079D01*
X52543Y-44876D01*
X52515Y-44809D01*
X52515Y-42205D01*
X52504Y-41992D01*
X52444Y-41845D01*
X52350Y-41818D01*
X52308Y-41860D01*
X52308Y-41378D01*
X52000Y-41071D01*
X51929Y-41141D01*
X51929Y-41000D01*
X51622Y-40692D01*
X51528Y-40719D01*
X51457Y-40921D01*
X51468Y-41134D01*
X51528Y-41281D01*
X51622Y-41308D01*
X51929Y-41000D01*
X51929Y-41141D01*
X51692Y-41378D01*
X51719Y-41472D01*
X51921Y-41543D01*
X52134Y-41532D01*
X52281Y-41472D01*
X52308Y-41378D01*
X52308Y-41860D01*
X52280Y-41888D01*
X52280Y-41748D01*
X52253Y-41654D01*
X52051Y-41583D01*
X51838Y-41594D01*
X51691Y-41654D01*
X51664Y-41748D01*
X51972Y-42055D01*
X52280Y-41748D01*
X52280Y-41888D01*
X52043Y-42126D01*
X52350Y-42434D01*
X52444Y-42407D01*
X52515Y-42205D01*
X52515Y-44809D01*
X52465Y-44689D01*
X52311Y-44535D01*
X52280Y-44522D01*
X52280Y-42504D01*
X51972Y-42197D01*
X51901Y-42267D01*
X51901Y-42126D01*
X51594Y-41818D01*
X51500Y-41845D01*
X51429Y-42047D01*
X51440Y-42260D01*
X51500Y-42407D01*
X51594Y-42434D01*
X51901Y-42126D01*
X51901Y-42267D01*
X51664Y-42504D01*
X51691Y-42598D01*
X51893Y-42669D01*
X52106Y-42658D01*
X52253Y-42598D01*
X52280Y-42504D01*
X52280Y-44522D01*
X52109Y-44451D01*
X51891Y-44451D01*
X51689Y-44535D01*
X51535Y-44689D01*
X51451Y-44891D01*
X51451Y-45109D01*
X51535Y-45311D01*
X51675Y-45451D01*
X51651Y-45451D01*
X51559Y-45489D01*
X51489Y-45559D01*
X51451Y-45650D01*
X51451Y-45749D01*
X51451Y-46349D01*
X51489Y-46441D01*
X51559Y-46511D01*
X51650Y-46549D01*
X51749Y-46549D01*
X52349Y-46549D01*
X52441Y-46511D01*
X52511Y-46441D01*
X52549Y-46350D01*
X52549Y-48062D01*
X52215Y-47923D01*
X51787Y-47923D01*
X51391Y-48086D01*
X51088Y-48389D01*
X50923Y-48785D01*
X50923Y-49213D01*
X51086Y-49609D01*
X51389Y-49912D01*
X51785Y-50077D01*
X52213Y-50077D01*
X52609Y-49914D01*
X52912Y-49611D01*
X53077Y-49215D01*
X53077Y-50450D01*
X50550Y-50450D01*
X50550Y-29550D01*
X63479Y-29550D01*
X64450Y-30521D01*
X64450Y-33550D01*
X71550Y-33550D01*
X71550Y-30521D01*
X72521Y-29550D01*
X74450Y-29550D01*
X74450Y-50450D01*
M02*
