G04 (created by PCBNEW-RS274X (2011-07-12 BZR 3047)-stable) date Sun 02 Oct 2011 19:30:14 BST*
G01*
G70*
G90*
%MOIN*%
G04 Gerber Fmt 3.4, Leading zero omitted, Abs format*
%FSLAX34Y34*%
G04 APERTURE LIST*
%ADD10C,0.006000*%
%ADD11R,0.047200X0.047200*%
%ADD12C,0.060000*%
%ADD13C,0.165400*%
%ADD14R,0.060000X0.060000*%
%ADD15R,0.059100X0.059100*%
%ADD16C,0.059100*%
%ADD17R,0.055100X0.035400*%
%ADD18R,0.082700X0.078700*%
%ADD19R,0.078700X0.017700*%
%ADD20R,0.017700X0.078700*%
%ADD21R,0.059100X0.051200*%
%ADD22R,0.051200X0.059100*%
%ADD23R,0.047200X0.027600*%
%ADD24R,0.098400X0.047200*%
%ADD25C,0.062000*%
%ADD26R,0.062000X0.062000*%
%ADD27C,0.035000*%
%ADD28C,0.015000*%
%ADD29C,0.010000*%
G04 APERTURE END LIST*
G54D10*
G54D11*
X55587Y-46000D03*
X56413Y-46000D03*
X57587Y-46000D03*
X58413Y-46000D03*
G54D12*
X52000Y-45000D03*
X51972Y-42126D03*
X54000Y-31000D03*
X72000Y-44000D03*
X70000Y-44000D03*
X68000Y-44000D03*
X56000Y-31000D03*
X64000Y-44000D03*
X62000Y-31000D03*
X61000Y-31000D03*
X60000Y-31000D03*
X59000Y-31000D03*
X58000Y-31000D03*
X66000Y-44000D03*
G54D13*
X52000Y-31000D03*
X73000Y-31000D03*
X52000Y-49000D03*
X73000Y-49000D03*
G54D14*
X52000Y-46000D03*
G54D12*
X52000Y-41000D03*
G54D15*
X65500Y-49000D03*
G54D16*
X65500Y-48000D03*
G54D14*
X56000Y-48000D03*
G54D12*
X56000Y-49000D03*
G54D14*
X58000Y-48000D03*
G54D12*
X58000Y-49000D03*
G54D14*
X61000Y-49000D03*
G54D12*
X61000Y-48000D03*
X62000Y-49000D03*
X62000Y-48000D03*
X63000Y-49000D03*
X63000Y-48000D03*
G54D17*
X52650Y-35500D03*
X52650Y-36091D03*
X52650Y-34909D03*
G54D10*
G36*
X52413Y-35655D02*
X52099Y-35895D01*
X52099Y-35105D01*
X52413Y-35345D01*
X52413Y-35655D01*
X52413Y-35655D01*
G37*
G54D18*
X51689Y-35500D03*
G54D10*
G36*
X51279Y-35895D02*
X50965Y-35655D01*
X50965Y-35345D01*
X51279Y-35105D01*
X51279Y-35895D01*
X51279Y-35895D01*
G37*
G54D19*
X56165Y-39089D03*
X56165Y-38774D03*
X56165Y-38459D03*
X56165Y-38144D03*
X56165Y-37829D03*
X56165Y-37514D03*
X56165Y-37199D03*
X56165Y-36884D03*
X59827Y-36886D03*
X59827Y-39096D03*
X59827Y-38776D03*
X59827Y-38456D03*
X59827Y-38146D03*
X59827Y-37826D03*
X59827Y-37516D03*
X59827Y-37196D03*
G54D20*
X56884Y-36165D03*
X57198Y-36165D03*
X57514Y-36165D03*
X57828Y-36165D03*
X58144Y-36165D03*
X58458Y-36165D03*
X58774Y-36165D03*
X59088Y-36165D03*
X56886Y-39827D03*
X57196Y-39827D03*
X57516Y-39827D03*
X57826Y-39827D03*
X58136Y-39827D03*
X58456Y-39827D03*
X58776Y-39827D03*
X59096Y-39827D03*
G54D21*
X61500Y-41375D03*
X61500Y-40625D03*
X56500Y-33125D03*
X56500Y-33875D03*
G54D22*
X57625Y-44500D03*
X58375Y-44500D03*
X55625Y-44500D03*
X56375Y-44500D03*
G54D21*
X59500Y-33125D03*
X59500Y-33875D03*
X61000Y-33125D03*
X61000Y-33875D03*
X55000Y-33125D03*
X55000Y-33875D03*
X58000Y-33125D03*
X58000Y-33875D03*
X61500Y-39375D03*
X61500Y-38625D03*
X54500Y-37375D03*
X54500Y-36625D03*
G54D22*
X58375Y-43000D03*
X57625Y-43000D03*
G54D21*
X54500Y-39375D03*
X54500Y-38625D03*
G54D22*
X56375Y-43000D03*
X55625Y-43000D03*
G54D21*
X61500Y-37375D03*
X61500Y-36625D03*
G54D22*
X52375Y-33500D03*
X51625Y-33500D03*
X52375Y-37500D03*
X51625Y-37500D03*
G54D23*
X52728Y-39500D03*
X51272Y-39500D03*
G54D24*
X54500Y-41531D03*
X54500Y-40469D03*
G54D25*
X63563Y-34276D03*
X63563Y-35063D03*
X63563Y-35850D03*
X63563Y-36638D03*
X63563Y-37425D03*
X63563Y-38213D03*
X63563Y-39000D03*
X63563Y-39787D03*
X63563Y-40575D03*
X72224Y-40575D03*
X72224Y-39787D03*
X72224Y-39000D03*
X72224Y-38213D03*
X72224Y-37425D03*
X72224Y-36638D03*
X72224Y-35850D03*
X72224Y-35063D03*
X72224Y-34276D03*
X72224Y-33488D03*
G54D26*
X63563Y-33488D03*
G54D27*
X55630Y-32638D03*
X61000Y-42500D03*
X61000Y-45500D03*
X62638Y-34567D03*
X51614Y-38150D03*
X58386Y-42323D03*
X57008Y-42992D03*
X62126Y-38622D03*
X62126Y-36624D03*
X58780Y-33125D03*
X54500Y-38000D03*
X54500Y-36000D03*
X51614Y-34213D03*
X61500Y-43500D03*
X61500Y-45500D03*
X62000Y-45500D03*
X62000Y-44000D03*
X56496Y-34764D03*
X53346Y-37913D03*
X64000Y-45500D03*
X62126Y-35630D03*
X61535Y-35630D03*
X60945Y-35630D03*
X60354Y-35630D03*
X59764Y-36220D03*
X58780Y-33875D03*
X60472Y-36575D03*
X57244Y-32638D03*
X63000Y-44000D03*
X63000Y-45500D03*
X62500Y-45500D03*
X62500Y-44000D03*
X60000Y-40500D03*
X60000Y-39500D03*
G54D28*
X55039Y-33086D02*
X55000Y-33125D01*
X55039Y-32756D02*
X55039Y-33086D01*
X55157Y-32638D02*
X55039Y-32756D01*
X55630Y-32638D02*
X55157Y-32638D01*
X61000Y-48000D02*
X61000Y-45500D01*
X61500Y-42000D02*
X61500Y-41375D01*
X61000Y-42500D02*
X61500Y-42000D01*
X63563Y-33488D02*
X63563Y-32933D01*
X54732Y-31732D02*
X54000Y-31000D01*
X62362Y-31732D02*
X54732Y-31732D01*
X63563Y-32933D02*
X62362Y-31732D01*
X56169Y-38463D02*
X58463Y-38463D01*
X60942Y-41375D02*
X61500Y-41375D01*
X60748Y-41181D02*
X60942Y-41375D01*
X60748Y-40748D02*
X60748Y-41181D01*
X58463Y-38463D02*
X60748Y-40748D01*
X55000Y-33125D02*
X54040Y-33125D01*
X53665Y-33500D02*
X52375Y-33500D01*
X54040Y-33125D02*
X53665Y-33500D01*
X54500Y-39375D02*
X54021Y-39375D01*
X53858Y-37546D02*
X54029Y-37375D01*
X53858Y-39212D02*
X53858Y-37546D01*
X54021Y-39375D02*
X53858Y-39212D01*
X54029Y-37375D02*
X54500Y-37375D01*
X53255Y-34909D02*
X52650Y-34909D01*
X54029Y-37375D02*
X53465Y-36811D01*
X53465Y-36811D02*
X53465Y-35119D01*
X53465Y-35119D02*
X53255Y-34909D01*
X52375Y-33500D02*
X52375Y-34108D01*
X52375Y-34108D02*
X52650Y-34383D01*
X52650Y-34383D02*
X52650Y-34909D01*
X56500Y-33125D02*
X55000Y-33125D01*
X56169Y-38463D02*
X55675Y-38463D01*
X55675Y-38463D02*
X55083Y-39055D01*
X55083Y-39055D02*
X55083Y-39252D01*
X55083Y-39252D02*
X54960Y-39375D01*
X54960Y-39375D02*
X54500Y-39375D01*
X56169Y-37833D02*
X55633Y-37833D01*
X55175Y-37375D02*
X54500Y-37375D01*
X55633Y-37833D02*
X55175Y-37375D01*
X61000Y-33125D02*
X61000Y-32772D01*
X52193Y-39500D02*
X52728Y-39500D01*
X51614Y-40079D02*
X52193Y-39500D01*
X51102Y-40079D02*
X51614Y-40079D01*
X50748Y-39725D02*
X51102Y-40079D01*
X50748Y-33110D02*
X50748Y-39725D01*
X51732Y-32126D02*
X50748Y-33110D01*
X60354Y-32126D02*
X51732Y-32126D01*
X61000Y-32772D02*
X60354Y-32126D01*
X52000Y-46000D02*
X52000Y-45000D01*
X52000Y-45000D02*
X52000Y-43158D01*
X52728Y-42430D02*
X52728Y-39500D01*
X52000Y-43158D02*
X52728Y-42430D01*
G54D29*
X57202Y-36169D02*
X57202Y-35160D01*
X63252Y-35063D02*
X63563Y-35063D01*
X63031Y-34842D02*
X63252Y-35063D01*
X63031Y-34489D02*
X63031Y-34842D01*
X62755Y-34213D02*
X63031Y-34489D01*
X62519Y-34213D02*
X62755Y-34213D01*
X62401Y-34331D02*
X62519Y-34213D01*
X58031Y-34331D02*
X62401Y-34331D01*
X57202Y-35160D02*
X58031Y-34331D01*
X68000Y-44000D02*
X68000Y-38905D01*
X68000Y-38905D02*
X64158Y-35063D01*
X64158Y-35063D02*
X63563Y-35063D01*
X57518Y-35288D02*
X58240Y-34566D01*
X58240Y-34566D02*
X62441Y-34566D01*
X57518Y-35288D02*
X57518Y-36169D01*
X62638Y-34567D02*
X62441Y-34566D01*
X70000Y-44000D02*
X70000Y-39961D01*
X70000Y-39961D02*
X64315Y-34276D01*
X64315Y-34276D02*
X63563Y-34276D01*
G54D28*
X51625Y-37500D02*
X51625Y-38139D01*
X51625Y-38139D02*
X51614Y-38150D01*
X58375Y-43000D02*
X58375Y-42334D01*
X58375Y-42334D02*
X58386Y-42323D01*
X56375Y-43000D02*
X57000Y-43000D01*
X57000Y-43000D02*
X57008Y-42992D01*
X61500Y-38625D02*
X62123Y-38625D01*
X62123Y-38625D02*
X62126Y-38622D01*
X61500Y-36625D02*
X62125Y-36625D01*
X62125Y-36625D02*
X62126Y-36624D01*
X59500Y-33125D02*
X58780Y-33125D01*
X58780Y-33125D02*
X58000Y-33125D01*
X54500Y-38625D02*
X54500Y-38000D01*
X54500Y-36625D02*
X54500Y-36000D01*
X51625Y-33500D02*
X51625Y-34202D01*
X51625Y-34202D02*
X51614Y-34213D01*
X52650Y-36091D02*
X52650Y-36366D01*
X51625Y-36800D02*
X51625Y-37500D01*
X51811Y-36614D02*
X51625Y-36800D01*
X52402Y-36614D02*
X51811Y-36614D01*
X52650Y-36366D02*
X52402Y-36614D01*
X56169Y-37518D02*
X55711Y-37518D01*
X55711Y-37518D02*
X55083Y-36890D01*
X55083Y-36890D02*
X55083Y-36693D01*
X55083Y-36693D02*
X55015Y-36625D01*
X55015Y-36625D02*
X54500Y-36625D01*
X56169Y-38148D02*
X55596Y-38148D01*
X55596Y-38148D02*
X55119Y-38625D01*
X55119Y-38625D02*
X54500Y-38625D01*
X59831Y-37830D02*
X60343Y-37830D01*
X60343Y-37830D02*
X60791Y-37382D01*
X60791Y-37382D02*
X60791Y-36791D01*
X60791Y-36791D02*
X60957Y-36625D01*
X60957Y-36625D02*
X61500Y-36625D01*
G54D29*
X61000Y-49000D02*
X61500Y-48500D01*
X59100Y-40793D02*
X59100Y-39831D01*
X60276Y-41969D02*
X59100Y-40793D01*
X60276Y-42953D02*
X60276Y-41969D01*
X60827Y-43504D02*
X60276Y-42953D01*
X61496Y-43504D02*
X60827Y-43504D01*
X61500Y-43500D02*
X61496Y-43504D01*
X61500Y-48500D02*
X61500Y-45500D01*
X58780Y-39831D02*
X58780Y-40788D01*
X62000Y-45500D02*
X62000Y-48000D01*
X60851Y-44000D02*
X62000Y-44000D01*
X60000Y-43149D02*
X60851Y-44000D01*
X60000Y-42008D02*
X60000Y-43149D01*
X58780Y-40788D02*
X60000Y-42008D01*
X55625Y-43000D02*
X54733Y-43000D01*
X53822Y-40469D02*
X54500Y-40469D01*
X53661Y-40630D02*
X53822Y-40469D01*
X53661Y-41928D02*
X53661Y-40630D01*
X54733Y-43000D02*
X53661Y-41928D01*
X54500Y-40469D02*
X54964Y-40469D01*
X55683Y-38778D02*
X56169Y-38778D01*
X55354Y-39107D02*
X55683Y-38778D01*
X55354Y-40079D02*
X55354Y-39107D01*
X54964Y-40469D02*
X55354Y-40079D01*
X57625Y-43000D02*
X57625Y-42507D01*
X54500Y-41981D02*
X54500Y-41531D01*
X54802Y-42283D02*
X54500Y-41981D01*
X57401Y-42283D02*
X54802Y-42283D01*
X57625Y-42507D02*
X57401Y-42283D01*
X56169Y-39093D02*
X55655Y-39093D01*
X55240Y-41531D02*
X54500Y-41531D01*
X55315Y-41456D02*
X55240Y-41531D01*
X55315Y-40591D02*
X55315Y-41456D01*
X55591Y-40315D02*
X55315Y-40591D01*
X55591Y-39157D02*
X55591Y-40315D01*
X55655Y-39093D02*
X55591Y-39157D01*
X61500Y-37375D02*
X61169Y-37375D01*
X60394Y-38150D02*
X59831Y-38150D01*
X61169Y-37375D02*
X60394Y-38150D01*
X56496Y-34764D02*
X56500Y-34524D01*
X56500Y-33875D02*
X56500Y-34524D01*
X63933Y-49567D02*
X65500Y-48000D01*
X53346Y-37913D02*
X53346Y-47992D01*
X53346Y-47992D02*
X54921Y-49567D01*
X54921Y-49567D02*
X63933Y-49567D01*
X64000Y-45500D02*
X65500Y-47000D01*
X65500Y-47000D02*
X65500Y-48000D01*
X56500Y-33875D02*
X56500Y-34781D01*
X56888Y-35169D02*
X56888Y-36169D01*
X56500Y-34781D02*
X56888Y-35169D01*
X57520Y-39831D02*
X57520Y-41378D01*
X58375Y-44027D02*
X58375Y-44500D01*
X58504Y-43898D02*
X58375Y-44027D01*
X58779Y-43898D02*
X58504Y-43898D01*
X59173Y-43504D02*
X58779Y-43898D01*
X59173Y-42283D02*
X59173Y-43504D01*
X58425Y-41535D02*
X59173Y-42283D01*
X57677Y-41535D02*
X58425Y-41535D01*
X57520Y-41378D02*
X57677Y-41535D01*
X56375Y-44500D02*
X56375Y-43861D01*
X57200Y-41570D02*
X57200Y-39831D01*
X57441Y-41811D02*
X57200Y-41570D01*
X58386Y-41811D02*
X57441Y-41811D01*
X58937Y-42362D02*
X58386Y-41811D01*
X58937Y-43346D02*
X58937Y-42362D01*
X58700Y-43583D02*
X58937Y-43346D01*
X56653Y-43583D02*
X58700Y-43583D01*
X56375Y-43861D02*
X56653Y-43583D01*
X62126Y-35354D02*
X62126Y-35630D01*
X61575Y-34803D02*
X62126Y-35354D01*
X58504Y-34803D02*
X61575Y-34803D01*
X58148Y-35159D02*
X58504Y-34803D01*
X58148Y-36169D02*
X58148Y-35159D01*
X58462Y-35358D02*
X58462Y-36169D01*
X61535Y-35630D02*
X60987Y-35039D01*
X58781Y-35039D02*
X58462Y-35358D01*
X58781Y-35039D02*
X60987Y-35039D01*
X58778Y-35492D02*
X59040Y-35276D01*
X59040Y-35276D02*
X60531Y-35276D01*
X60531Y-35276D02*
X60945Y-35630D01*
X58778Y-35492D02*
X58778Y-36169D01*
X59092Y-35632D02*
X59092Y-36169D01*
X59212Y-35512D02*
X59092Y-35632D01*
X60236Y-35512D02*
X59212Y-35512D01*
X60354Y-35630D02*
X60236Y-35512D01*
X59764Y-36220D02*
X59831Y-36287D01*
X59831Y-36890D02*
X59831Y-36287D01*
G54D28*
X61500Y-40625D02*
X61500Y-39375D01*
X59831Y-38780D02*
X60319Y-38780D01*
X60319Y-38780D02*
X60914Y-39375D01*
X60914Y-39375D02*
X61500Y-39375D01*
G54D29*
X59500Y-33875D02*
X58780Y-33875D01*
X60359Y-37200D02*
X60472Y-37087D01*
X60472Y-37087D02*
X60472Y-36575D01*
X59831Y-37200D02*
X60359Y-37200D01*
X57977Y-33898D02*
X58000Y-33875D01*
X57402Y-33898D02*
X57977Y-33898D01*
X57244Y-33740D02*
X57402Y-33898D01*
X57244Y-32638D02*
X57244Y-33740D01*
X58780Y-33875D02*
X58000Y-33875D01*
X61000Y-33875D02*
X59500Y-33875D01*
X56000Y-48000D02*
X56000Y-47299D01*
X56457Y-46044D02*
X56413Y-46000D01*
X56457Y-46842D02*
X56457Y-46044D01*
X56000Y-47299D02*
X56457Y-46842D01*
X58000Y-48000D02*
X58000Y-47275D01*
X58413Y-46862D02*
X58413Y-46000D01*
X58000Y-47275D02*
X58413Y-46862D01*
X57587Y-46000D02*
X57587Y-44538D01*
X57587Y-44538D02*
X57625Y-44500D01*
X55587Y-46000D02*
X55587Y-44538D01*
X55587Y-44538D02*
X55625Y-44500D01*
G54D28*
X51689Y-35500D02*
X52256Y-35500D01*
X52650Y-35500D02*
X52256Y-35500D01*
X51122Y-35500D02*
X51689Y-35500D01*
X51272Y-39500D02*
X51272Y-38846D01*
X52375Y-38137D02*
X52375Y-37500D01*
X52008Y-38504D02*
X52375Y-38137D01*
X51614Y-38504D02*
X52008Y-38504D01*
X51272Y-38846D02*
X51614Y-38504D01*
X52375Y-37500D02*
X52987Y-37500D01*
X53019Y-35500D02*
X52650Y-35500D01*
X53189Y-35670D02*
X53019Y-35500D01*
X53189Y-37298D02*
X53189Y-35670D01*
X52987Y-37500D02*
X53189Y-37298D01*
G54D29*
X58140Y-39831D02*
X58140Y-40896D01*
X71118Y-44882D02*
X72000Y-44000D01*
X60827Y-44882D02*
X71118Y-44882D01*
X59488Y-43543D02*
X60827Y-44882D01*
X59488Y-42244D02*
X59488Y-43543D01*
X58140Y-40896D02*
X59488Y-42244D01*
X72000Y-44000D02*
X72000Y-41488D01*
X72000Y-41488D02*
X71457Y-40945D01*
X71457Y-40945D02*
X71457Y-40059D01*
X71457Y-40059D02*
X71729Y-39787D01*
X71729Y-39787D02*
X72224Y-39787D01*
X58460Y-39831D02*
X58460Y-40861D01*
X65472Y-44528D02*
X66000Y-44000D01*
X60906Y-44528D02*
X65472Y-44528D01*
X59724Y-43346D02*
X60906Y-44528D01*
X59724Y-42125D02*
X59724Y-43346D01*
X58460Y-40861D02*
X59724Y-42125D01*
X66000Y-44000D02*
X66000Y-41551D01*
X66000Y-41551D02*
X64236Y-39787D01*
X64236Y-39787D02*
X63563Y-39787D01*
X63000Y-45500D02*
X63000Y-47252D01*
X57832Y-36651D02*
X57953Y-36772D01*
X57953Y-36772D02*
X59212Y-36772D01*
X59212Y-36772D02*
X59409Y-36575D01*
X59409Y-36575D02*
X59409Y-35906D01*
X59409Y-35906D02*
X59528Y-35787D01*
X59528Y-35787D02*
X60000Y-35787D01*
X60000Y-35787D02*
X60276Y-36063D01*
X60276Y-36063D02*
X62245Y-36063D01*
X62245Y-36063D02*
X63000Y-36818D01*
X63000Y-36818D02*
X63000Y-44000D01*
X63000Y-47252D02*
X63500Y-47752D01*
X63500Y-47752D02*
X63500Y-48500D01*
X63000Y-49000D02*
X63500Y-48500D01*
X57832Y-36651D02*
X57832Y-36169D01*
X57832Y-36169D02*
X57832Y-36657D01*
X55000Y-35000D02*
X55000Y-33875D01*
X56772Y-36772D02*
X55000Y-35000D01*
X57717Y-36772D02*
X56772Y-36772D01*
X57832Y-36657D02*
X57717Y-36772D01*
X59831Y-39100D02*
X59831Y-39331D01*
X59831Y-39331D02*
X60000Y-39500D01*
X62000Y-49000D02*
X62500Y-48500D01*
X62500Y-45500D02*
X62500Y-48500D01*
X61571Y-43071D02*
X62500Y-44000D01*
X60788Y-43071D02*
X61571Y-43071D01*
X60551Y-42834D02*
X60788Y-43071D01*
X60551Y-41850D02*
X60551Y-42834D01*
X60000Y-41299D02*
X60551Y-41850D01*
X60000Y-40500D02*
X60000Y-41299D01*
M02*
