G04 (created by PCBNEW-RS274X (2011-07-12 BZR 3047)-stable) date Wed 19 Oct 2011 20:46:44 BST*
G01*
G70*
G90*
%MOIN*%
G04 Gerber Fmt 3.4, Leading zero omitted, Abs format*
%FSLAX34Y34*%
G04 APERTURE LIST*
%ADD10C,0.006000*%
%ADD11C,0.012000*%
%ADD12C,0.015000*%
%ADD13C,0.003900*%
%ADD14C,0.068000*%
%ADD15C,0.173400*%
%ADD16R,0.068000X0.068000*%
%ADD17R,0.067100X0.067100*%
%ADD18C,0.067100*%
%ADD19C,0.070000*%
%ADD20R,0.070000X0.070000*%
G04 APERTURE END LIST*
G54D10*
G54D11*
X70663Y-36267D02*
X70584Y-36303D01*
X70453Y-36303D01*
X70401Y-36267D01*
X70374Y-36232D01*
X70348Y-36160D01*
X70348Y-36089D01*
X70374Y-36018D01*
X70401Y-35982D01*
X70453Y-35947D01*
X70558Y-35911D01*
X70611Y-35875D01*
X70637Y-35840D01*
X70663Y-35768D01*
X70663Y-35697D01*
X70637Y-35626D01*
X70611Y-35590D01*
X70558Y-35555D01*
X70427Y-35555D01*
X70348Y-35590D01*
X69902Y-36267D02*
X69954Y-36303D01*
X70059Y-36303D01*
X70112Y-36267D01*
X70138Y-36196D01*
X70138Y-35911D01*
X70112Y-35840D01*
X70059Y-35804D01*
X69954Y-35804D01*
X69902Y-35840D01*
X69876Y-35911D01*
X69876Y-35982D01*
X70138Y-36053D01*
X69430Y-36267D02*
X69482Y-36303D01*
X69587Y-36303D01*
X69640Y-36267D01*
X69666Y-36196D01*
X69666Y-35911D01*
X69640Y-35840D01*
X69587Y-35804D01*
X69482Y-35804D01*
X69430Y-35840D01*
X69404Y-35911D01*
X69404Y-35982D01*
X69666Y-36053D01*
X68958Y-36267D02*
X69010Y-36303D01*
X69115Y-36303D01*
X69168Y-36267D01*
X69194Y-36196D01*
X69194Y-35911D01*
X69168Y-35840D01*
X69115Y-35804D01*
X69010Y-35804D01*
X68958Y-35840D01*
X68932Y-35911D01*
X68932Y-35982D01*
X69194Y-36053D01*
X68460Y-36303D02*
X68460Y-35555D01*
X68460Y-36267D02*
X68512Y-36303D01*
X68617Y-36303D01*
X68670Y-36267D01*
X68696Y-36232D01*
X68722Y-36160D01*
X68722Y-35947D01*
X68696Y-35875D01*
X68670Y-35840D01*
X68617Y-35804D01*
X68512Y-35804D01*
X68460Y-35840D01*
X67593Y-35911D02*
X67777Y-35911D01*
X67777Y-36303D02*
X67777Y-35555D01*
X67514Y-35555D01*
X67069Y-35804D02*
X67069Y-36303D01*
X67305Y-35804D02*
X67305Y-36196D01*
X67279Y-36267D01*
X67226Y-36303D01*
X67147Y-36303D01*
X67095Y-36267D01*
X67069Y-36232D01*
X66832Y-36267D02*
X66780Y-36303D01*
X66675Y-36303D01*
X66622Y-36267D01*
X66596Y-36196D01*
X66596Y-36160D01*
X66622Y-36089D01*
X66675Y-36053D01*
X66753Y-36053D01*
X66806Y-36018D01*
X66832Y-35947D01*
X66832Y-35911D01*
X66806Y-35840D01*
X66753Y-35804D01*
X66675Y-35804D01*
X66622Y-35840D01*
X66360Y-36303D02*
X66360Y-35804D01*
X66360Y-35555D02*
X66386Y-35590D01*
X66360Y-35626D01*
X66334Y-35590D01*
X66360Y-35555D01*
X66360Y-35626D01*
X66019Y-36303D02*
X66072Y-36267D01*
X66098Y-36232D01*
X66124Y-36160D01*
X66124Y-35947D01*
X66098Y-35875D01*
X66072Y-35840D01*
X66019Y-35804D01*
X65940Y-35804D01*
X65888Y-35840D01*
X65862Y-35875D01*
X65835Y-35947D01*
X65835Y-36160D01*
X65862Y-36232D01*
X65888Y-36267D01*
X65940Y-36303D01*
X66019Y-36303D01*
X65599Y-35804D02*
X65599Y-36303D01*
X65599Y-35875D02*
X65573Y-35840D01*
X65520Y-35804D01*
X65441Y-35804D01*
X65389Y-35840D01*
X65363Y-35911D01*
X65363Y-36303D01*
X69233Y-36722D02*
X68892Y-36722D01*
X69076Y-37007D01*
X68997Y-37007D01*
X68945Y-37042D01*
X68918Y-37078D01*
X68892Y-37149D01*
X68892Y-37327D01*
X68918Y-37399D01*
X68945Y-37434D01*
X68997Y-37470D01*
X69155Y-37470D01*
X69207Y-37434D01*
X69233Y-37399D01*
X68420Y-36722D02*
X68525Y-36722D01*
X68577Y-36757D01*
X68603Y-36793D01*
X68656Y-36900D01*
X68682Y-37042D01*
X68682Y-37327D01*
X68656Y-37399D01*
X68630Y-37434D01*
X68577Y-37470D01*
X68472Y-37470D01*
X68420Y-37434D01*
X68393Y-37399D01*
X68367Y-37327D01*
X68367Y-37149D01*
X68393Y-37078D01*
X68420Y-37042D01*
X68472Y-37007D01*
X68577Y-37007D01*
X68630Y-37042D01*
X68656Y-37078D01*
X68682Y-37149D01*
X67895Y-36722D02*
X68000Y-36722D01*
X68052Y-36757D01*
X68078Y-36793D01*
X68131Y-36900D01*
X68157Y-37042D01*
X68157Y-37327D01*
X68131Y-37399D01*
X68105Y-37434D01*
X68052Y-37470D01*
X67947Y-37470D01*
X67895Y-37434D01*
X67868Y-37399D01*
X67842Y-37327D01*
X67842Y-37149D01*
X67868Y-37078D01*
X67895Y-37042D01*
X67947Y-37007D01*
X68052Y-37007D01*
X68105Y-37042D01*
X68131Y-37078D01*
X68157Y-37149D01*
X67658Y-36722D02*
X67291Y-36722D01*
X67527Y-37470D01*
X66818Y-36722D02*
X67081Y-36722D01*
X67107Y-37078D01*
X67081Y-37042D01*
X67028Y-37007D01*
X66897Y-37007D01*
X66845Y-37042D01*
X66818Y-37078D01*
X66792Y-37149D01*
X66792Y-37327D01*
X66818Y-37399D01*
X66845Y-37434D01*
X66897Y-37470D01*
X67028Y-37470D01*
X67081Y-37434D01*
X67107Y-37399D01*
G54D12*
X50787Y-49744D02*
X50787Y-30453D01*
X74016Y-49750D02*
X50787Y-49750D01*
X74016Y-30453D02*
X74016Y-49744D01*
X50787Y-30441D02*
X74016Y-30441D01*
G54D13*
X62991Y-34194D02*
X62979Y-34308D01*
X62946Y-34419D01*
X62892Y-34521D01*
X62819Y-34610D01*
X62730Y-34683D01*
X62629Y-34738D01*
X62518Y-34772D01*
X62404Y-34784D01*
X62290Y-34774D01*
X62179Y-34741D01*
X62077Y-34688D01*
X61987Y-34616D01*
X61913Y-34527D01*
X61857Y-34426D01*
X61822Y-34316D01*
X61810Y-34202D01*
X61819Y-34088D01*
X61851Y-33977D01*
X61904Y-33874D01*
X61975Y-33784D01*
X62063Y-33709D01*
X62164Y-33653D01*
X62274Y-33617D01*
X62388Y-33604D01*
X62502Y-33612D01*
X62613Y-33643D01*
X62716Y-33696D01*
X62807Y-33767D01*
X62882Y-33854D01*
X62939Y-33954D01*
X62976Y-34064D01*
X62990Y-34178D01*
X62991Y-34194D01*
X62991Y-46006D02*
X62979Y-46120D01*
X62946Y-46231D01*
X62892Y-46333D01*
X62819Y-46422D01*
X62730Y-46495D01*
X62629Y-46550D01*
X62518Y-46584D01*
X62404Y-46596D01*
X62290Y-46586D01*
X62179Y-46553D01*
X62077Y-46500D01*
X61987Y-46428D01*
X61913Y-46339D01*
X61857Y-46238D01*
X61822Y-46128D01*
X61810Y-46014D01*
X61819Y-45900D01*
X61851Y-45789D01*
X61904Y-45686D01*
X61975Y-45596D01*
X62063Y-45521D01*
X62164Y-45465D01*
X62274Y-45429D01*
X62388Y-45416D01*
X62502Y-45424D01*
X62613Y-45455D01*
X62716Y-45508D01*
X62807Y-45579D01*
X62882Y-45666D01*
X62939Y-45766D01*
X62976Y-45876D01*
X62990Y-45990D01*
X62991Y-46006D01*
X58463Y-33801D02*
X57676Y-33801D01*
X57676Y-33801D02*
X57676Y-34588D01*
X57676Y-34588D02*
X58463Y-34588D01*
X66337Y-39706D02*
X67124Y-39706D01*
X67124Y-39706D02*
X67124Y-40494D01*
X67124Y-40494D02*
X66337Y-40494D01*
X58463Y-45612D02*
X57676Y-45612D01*
X57676Y-45612D02*
X57676Y-46399D01*
X57676Y-46399D02*
X58463Y-46399D01*
X58463Y-44824D02*
X58463Y-47187D01*
X58463Y-47187D02*
X66337Y-47187D01*
X66337Y-47187D02*
X66337Y-44824D01*
X66337Y-44824D02*
X58463Y-44824D01*
X66337Y-38919D02*
X58463Y-38919D01*
X58463Y-38919D02*
X58463Y-41281D01*
X58463Y-41281D02*
X66337Y-41281D01*
X66337Y-41281D02*
X66337Y-38919D01*
X66337Y-33013D02*
X58463Y-33013D01*
X58463Y-33013D02*
X58463Y-35376D01*
X58463Y-35376D02*
X66337Y-35376D01*
X66337Y-35376D02*
X66337Y-33013D01*
X73817Y-43250D02*
X50983Y-43250D01*
X73817Y-36950D02*
X50983Y-36950D01*
X73818Y-49548D02*
X73818Y-30651D01*
X50983Y-30651D02*
X50983Y-49548D01*
X73818Y-49548D02*
X50983Y-49548D01*
X73818Y-30651D02*
X50983Y-30651D01*
G54D10*
X52244Y-44255D02*
X52201Y-44270D01*
X52186Y-44284D01*
X52172Y-44312D01*
X52172Y-44355D01*
X52186Y-44384D01*
X52201Y-44398D01*
X52229Y-44412D01*
X52344Y-44412D01*
X52344Y-44112D01*
X52244Y-44112D01*
X52215Y-44127D01*
X52201Y-44141D01*
X52186Y-44170D01*
X52186Y-44198D01*
X52201Y-44227D01*
X52215Y-44241D01*
X52244Y-44255D01*
X52344Y-44255D01*
X52086Y-44112D02*
X51915Y-44112D01*
X52001Y-44412D02*
X52001Y-44112D01*
X51657Y-44412D02*
X51829Y-44412D01*
X51743Y-44412D02*
X51743Y-44112D01*
X51772Y-44155D01*
X51800Y-44184D01*
X51829Y-44198D01*
%LPC*%
G54D14*
X52000Y-45000D03*
X52000Y-42004D03*
X54000Y-31250D03*
X72000Y-44000D03*
X70000Y-44000D03*
X68000Y-44000D03*
X56000Y-31250D03*
X64000Y-44000D03*
X62000Y-31250D03*
X61000Y-31250D03*
X60000Y-31250D03*
X59000Y-31250D03*
X58000Y-31250D03*
X66000Y-44000D03*
G54D15*
X51969Y-31634D03*
X72835Y-31634D03*
X51969Y-48563D03*
X72835Y-48563D03*
G54D16*
X52000Y-46000D03*
G54D14*
X52000Y-41000D03*
G54D17*
X65500Y-49000D03*
G54D18*
X65500Y-48000D03*
G54D16*
X56000Y-48000D03*
G54D14*
X56000Y-49000D03*
G54D16*
X58000Y-48000D03*
G54D14*
X58000Y-49000D03*
G54D16*
X61000Y-49000D03*
G54D14*
X61000Y-48000D03*
X62000Y-49000D03*
X62000Y-48000D03*
X63000Y-49000D03*
X63000Y-48000D03*
G54D19*
X63663Y-34676D03*
X63663Y-35463D03*
X63663Y-36250D03*
X63663Y-37038D03*
X63663Y-37825D03*
X63663Y-38613D03*
X63663Y-39400D03*
X63663Y-40187D03*
X63663Y-40975D03*
X72324Y-40975D03*
X72324Y-40187D03*
X72324Y-39400D03*
X72324Y-38613D03*
X72324Y-37825D03*
X72324Y-37038D03*
X72324Y-36250D03*
X72324Y-35463D03*
X72324Y-34676D03*
X72324Y-33888D03*
G54D20*
X63663Y-33888D03*
G54D14*
X52000Y-43504D03*
X55500Y-35500D03*
M02*
