G04 (created by PCBNEW-RS274X (2011-07-12 BZR 3047)-stable) date Wed 19 Oct 2011 20:33:34 BST*
G01*
G70*
G90*
%MOIN*%
G04 Gerber Fmt 3.4, Leading zero omitted, Abs format*
%FSLAX34Y34*%
G04 APERTURE LIST*
%ADD10C,0.006000*%
%ADD11C,0.068000*%
%ADD12C,0.173400*%
%ADD13R,0.068000X0.068000*%
%ADD14R,0.067100X0.067100*%
%ADD15C,0.067100*%
%ADD16C,0.070000*%
%ADD17R,0.070000X0.070000*%
G04 APERTURE END LIST*
G54D10*
G54D11*
X52000Y-45000D03*
X52000Y-42004D03*
X54000Y-31250D03*
X72000Y-44000D03*
X70000Y-44000D03*
X68000Y-44000D03*
X56000Y-31250D03*
X64000Y-44000D03*
X62000Y-31250D03*
X61000Y-31250D03*
X60000Y-31250D03*
X59000Y-31250D03*
X58000Y-31250D03*
X66000Y-44000D03*
G54D12*
X51969Y-31634D03*
X72835Y-31634D03*
X51969Y-48563D03*
X72835Y-48563D03*
G54D13*
X52000Y-46000D03*
G54D11*
X52000Y-41000D03*
G54D14*
X65500Y-49000D03*
G54D15*
X65500Y-48000D03*
G54D13*
X56000Y-48000D03*
G54D11*
X56000Y-49000D03*
G54D13*
X58000Y-48000D03*
G54D11*
X58000Y-49000D03*
G54D13*
X61000Y-49000D03*
G54D11*
X61000Y-48000D03*
X62000Y-49000D03*
X62000Y-48000D03*
X63000Y-49000D03*
X63000Y-48000D03*
G54D16*
X63663Y-34676D03*
X63663Y-35463D03*
X63663Y-36250D03*
X63663Y-37038D03*
X63663Y-37825D03*
X63663Y-38613D03*
X63663Y-39400D03*
X63663Y-40187D03*
X63663Y-40975D03*
X72324Y-40975D03*
X72324Y-40187D03*
X72324Y-39400D03*
X72324Y-38613D03*
X72324Y-37825D03*
X72324Y-37038D03*
X72324Y-36250D03*
X72324Y-35463D03*
X72324Y-34676D03*
X72324Y-33888D03*
G54D17*
X63663Y-33888D03*
G54D11*
X52000Y-43504D03*
X55500Y-35500D03*
M02*
