G04 (created by PCBNEW-RS274X (2011-07-12 BZR 3047)-stable) date Sun 02 Oct 2011 19:30:14 BST*
G01*
G70*
G90*
%MOIN*%
G04 Gerber Fmt 3.4, Leading zero omitted, Abs format*
%FSLAX34Y34*%
G04 APERTURE LIST*
%ADD10C,0.006000*%
%ADD11R,0.055800X0.055800*%
%ADD12C,0.068600*%
%ADD13C,0.174000*%
%ADD14R,0.068600X0.068600*%
%ADD15R,0.067700X0.067700*%
%ADD16C,0.067700*%
%ADD17R,0.063700X0.044000*%
%ADD18R,0.091300X0.087300*%
%ADD19R,0.087300X0.026300*%
%ADD20R,0.026300X0.087300*%
%ADD21R,0.067700X0.059800*%
%ADD22R,0.059800X0.067700*%
%ADD23R,0.055800X0.036200*%
%ADD24R,0.107000X0.055800*%
%ADD25C,0.070600*%
%ADD26R,0.070600X0.070600*%
G04 APERTURE END LIST*
G54D10*
G54D11*
X55587Y-46000D03*
X56413Y-46000D03*
X57587Y-46000D03*
X58413Y-46000D03*
G54D12*
X52000Y-45000D03*
X51972Y-42126D03*
X54000Y-31000D03*
X72000Y-44000D03*
X70000Y-44000D03*
X68000Y-44000D03*
X56000Y-31000D03*
X64000Y-44000D03*
X62000Y-31000D03*
X61000Y-31000D03*
X60000Y-31000D03*
X59000Y-31000D03*
X58000Y-31000D03*
X66000Y-44000D03*
G54D13*
X52000Y-31000D03*
X73000Y-31000D03*
X52000Y-49000D03*
X73000Y-49000D03*
G54D14*
X52000Y-46000D03*
G54D12*
X52000Y-41000D03*
G54D15*
X65500Y-49000D03*
G54D16*
X65500Y-48000D03*
G54D14*
X56000Y-48000D03*
G54D12*
X56000Y-49000D03*
G54D14*
X58000Y-48000D03*
G54D12*
X58000Y-49000D03*
G54D14*
X61000Y-49000D03*
G54D12*
X61000Y-48000D03*
X62000Y-49000D03*
X62000Y-48000D03*
X63000Y-49000D03*
X63000Y-48000D03*
G54D17*
X52650Y-35500D03*
X52650Y-36091D03*
X52650Y-34909D03*
G54D10*
G36*
X52456Y-35676D02*
X52056Y-35982D01*
X52056Y-35018D01*
X52456Y-35324D01*
X52456Y-35676D01*
X52456Y-35676D01*
G37*
G54D18*
X51689Y-35500D03*
G54D10*
G36*
X51322Y-35982D02*
X50922Y-35676D01*
X50922Y-35324D01*
X51322Y-35018D01*
X51322Y-35982D01*
X51322Y-35982D01*
G37*
G54D19*
X56165Y-39089D03*
X56165Y-38774D03*
X56165Y-38459D03*
X56165Y-38144D03*
X56165Y-37829D03*
X56165Y-37514D03*
X56165Y-37199D03*
X56165Y-36884D03*
X59827Y-36886D03*
X59827Y-39096D03*
X59827Y-38776D03*
X59827Y-38456D03*
X59827Y-38146D03*
X59827Y-37826D03*
X59827Y-37516D03*
X59827Y-37196D03*
G54D20*
X56884Y-36165D03*
X57198Y-36165D03*
X57514Y-36165D03*
X57828Y-36165D03*
X58144Y-36165D03*
X58458Y-36165D03*
X58774Y-36165D03*
X59088Y-36165D03*
X56886Y-39827D03*
X57196Y-39827D03*
X57516Y-39827D03*
X57826Y-39827D03*
X58136Y-39827D03*
X58456Y-39827D03*
X58776Y-39827D03*
X59096Y-39827D03*
G54D21*
X61500Y-41375D03*
X61500Y-40625D03*
X56500Y-33125D03*
X56500Y-33875D03*
G54D22*
X57625Y-44500D03*
X58375Y-44500D03*
X55625Y-44500D03*
X56375Y-44500D03*
G54D21*
X59500Y-33125D03*
X59500Y-33875D03*
X61000Y-33125D03*
X61000Y-33875D03*
X55000Y-33125D03*
X55000Y-33875D03*
X58000Y-33125D03*
X58000Y-33875D03*
X61500Y-39375D03*
X61500Y-38625D03*
X54500Y-37375D03*
X54500Y-36625D03*
G54D22*
X58375Y-43000D03*
X57625Y-43000D03*
G54D21*
X54500Y-39375D03*
X54500Y-38625D03*
G54D22*
X56375Y-43000D03*
X55625Y-43000D03*
G54D21*
X61500Y-37375D03*
X61500Y-36625D03*
G54D22*
X52375Y-33500D03*
X51625Y-33500D03*
X52375Y-37500D03*
X51625Y-37500D03*
G54D23*
X52728Y-39500D03*
X51272Y-39500D03*
G54D24*
X54500Y-41531D03*
X54500Y-40469D03*
G54D25*
X63563Y-34276D03*
X63563Y-35063D03*
X63563Y-35850D03*
X63563Y-36638D03*
X63563Y-37425D03*
X63563Y-38213D03*
X63563Y-39000D03*
X63563Y-39787D03*
X63563Y-40575D03*
X72224Y-40575D03*
X72224Y-39787D03*
X72224Y-39000D03*
X72224Y-38213D03*
X72224Y-37425D03*
X72224Y-36638D03*
X72224Y-35850D03*
X72224Y-35063D03*
X72224Y-34276D03*
X72224Y-33488D03*
G54D26*
X63563Y-33488D03*
M02*
