M48
INCH,TZ
T1C0.023
T2C0.025
T3C0.032
T4C0.040
T5C0.126
%
G90
G05
T1
X63663Y-33888
X63663Y-34676
X63663Y-35463
X63663Y-36250
X63663Y-37038
X63663Y-37825
X63663Y-38613
X63663Y-39400
X63663Y-40187
X63663Y-40975
X72324Y-33888
X72324Y-34676
X72324Y-35463
X72324Y-36250
X72324Y-37038
X72324Y-37825
X72324Y-38613
X72324Y-39400
X72324Y-40187
X72324Y-40975
T2
X52114Y-34213
X52114Y-38150
X54500Y-36000
X54500Y-38000
X55748Y-32638
X56890Y-34922
X57008Y-42992
X57244Y-32638
X58386Y-42323
X58780Y-33125
X58780Y-33875
X59764Y-36220
X60000Y-39500
X60000Y-40500
X60354Y-35630
X60472Y-36575
X60945Y-35630
X61000Y-42500
X61000Y-45500
X61500Y-38000
X61500Y-43500
X61500Y-45500
X61535Y-35630
X62000Y-44000
X62000Y-45500
X62126Y-35630
X62126Y-36624
X62126Y-38622
X62500Y-43500
X62500Y-44000
X62500Y-45500
X62638Y-34567
X63000Y-44000
X63000Y-45500
X63500Y-45500
X64000Y-45500
T3
X65500Y-48000
X65500Y-49000
T4
X51972Y-42126
X52000Y-41000
X52000Y-45000
X52000Y-46000
X54000Y-31250
X56000Y-31250
X56000Y-48000
X56000Y-49000
X58000Y-31250
X58000Y-48000
X58000Y-49000
X59000Y-31250
X60000Y-31250
X61000Y-31250
X61000Y-48000
X61000Y-49000
X62000Y-31250
X62000Y-48000
X62000Y-49000
X63000Y-48000
X63000Y-49000
X64000Y-44000
X66000Y-44000
X68000Y-44000
X70000Y-44000
X72000Y-44000
T5
X51969Y-31634
X51969Y-48563
X72835Y-31634
X72835Y-48563
T0
M30
