G04 (created by PCBNEW-RS274X (2011-07-12 BZR 3047)-stable) date Sat 08 Oct 2011 21:55:07 BST*
G01*
G70*
G90*
%MOIN*%
G04 Gerber Fmt 3.4, Leading zero omitted, Abs format*
%FSLAX34Y34*%
G04 APERTURE LIST*
%ADD10C,0.006000*%
%ADD11R,0.055200X0.055200*%
%ADD12C,0.068000*%
%ADD13C,0.173400*%
%ADD14R,0.068000X0.068000*%
%ADD15R,0.067100X0.067100*%
%ADD16C,0.067100*%
%ADD17R,0.063100X0.043400*%
%ADD18R,0.090700X0.086700*%
%ADD19R,0.086700X0.025700*%
%ADD20R,0.025700X0.086700*%
%ADD21R,0.067100X0.059200*%
%ADD22R,0.059200X0.067100*%
%ADD23R,0.055200X0.035600*%
%ADD24R,0.106400X0.055200*%
%ADD25C,0.070000*%
%ADD26R,0.070000X0.070000*%
G04 APERTURE END LIST*
G54D10*
G54D11*
X55587Y-46000D03*
X56413Y-46000D03*
X57587Y-46000D03*
X58413Y-46000D03*
G54D12*
X52000Y-45000D03*
X52000Y-42004D03*
X54000Y-31250D03*
X72000Y-44000D03*
X70000Y-44000D03*
X68000Y-44000D03*
X56000Y-31250D03*
X64000Y-44000D03*
X62000Y-31250D03*
X61000Y-31250D03*
X60000Y-31250D03*
X59000Y-31250D03*
X58000Y-31250D03*
X66000Y-44000D03*
G54D13*
X51969Y-31634D03*
X72835Y-31634D03*
X51969Y-48563D03*
X72835Y-48563D03*
G54D14*
X52000Y-46000D03*
G54D12*
X52000Y-41000D03*
G54D15*
X65500Y-49000D03*
G54D16*
X65500Y-48000D03*
G54D14*
X56000Y-48000D03*
G54D12*
X56000Y-49000D03*
G54D14*
X58000Y-48000D03*
G54D12*
X58000Y-49000D03*
G54D14*
X61000Y-49000D03*
G54D12*
X61000Y-48000D03*
X62000Y-49000D03*
X62000Y-48000D03*
X63000Y-49000D03*
X63000Y-48000D03*
G54D17*
X53150Y-35500D03*
X53150Y-36091D03*
X53150Y-34909D03*
G54D10*
G36*
X52953Y-35675D02*
X52559Y-35975D01*
X52559Y-35025D01*
X52953Y-35325D01*
X52953Y-35675D01*
X52953Y-35675D01*
G37*
G54D18*
X52189Y-35500D03*
G54D10*
G36*
X51819Y-35975D02*
X51425Y-35675D01*
X51425Y-35325D01*
X51819Y-35025D01*
X51819Y-35975D01*
X51819Y-35975D01*
G37*
G54D19*
X56169Y-39093D03*
X56169Y-38778D03*
X56169Y-38463D03*
X56169Y-38148D03*
X56169Y-37833D03*
X56169Y-37518D03*
X56169Y-37203D03*
X56169Y-36888D03*
X59831Y-36890D03*
X59831Y-39100D03*
X59831Y-38780D03*
X59831Y-38460D03*
X59831Y-38150D03*
X59831Y-37830D03*
X59831Y-37520D03*
X59831Y-37200D03*
G54D20*
X56888Y-36169D03*
X57202Y-36169D03*
X57518Y-36169D03*
X57832Y-36169D03*
X58148Y-36169D03*
X58462Y-36169D03*
X58778Y-36169D03*
X59092Y-36169D03*
X56890Y-39831D03*
X57200Y-39831D03*
X57520Y-39831D03*
X57830Y-39831D03*
X58140Y-39831D03*
X58460Y-39831D03*
X58780Y-39831D03*
X59100Y-39831D03*
G54D21*
X61500Y-41375D03*
X61500Y-40625D03*
X56500Y-33125D03*
X56500Y-33875D03*
G54D22*
X57625Y-44500D03*
X58375Y-44500D03*
X55625Y-44500D03*
X56375Y-44500D03*
G54D21*
X59500Y-33125D03*
X59500Y-33875D03*
X61000Y-33125D03*
X61000Y-33875D03*
X55000Y-33125D03*
X55000Y-33875D03*
X58000Y-33125D03*
X58000Y-33875D03*
X61500Y-39375D03*
X61500Y-38625D03*
X54500Y-37375D03*
X54500Y-36625D03*
G54D22*
X57625Y-43000D03*
X58375Y-43000D03*
G54D21*
X54500Y-39375D03*
X54500Y-38625D03*
G54D22*
X56375Y-43000D03*
X55625Y-43000D03*
G54D21*
X61500Y-37375D03*
X61500Y-36625D03*
G54D22*
X52875Y-33500D03*
X52125Y-33500D03*
X52875Y-37500D03*
X52125Y-37500D03*
G54D23*
X51272Y-39500D03*
X52728Y-39500D03*
G54D24*
X54500Y-41531D03*
X54500Y-40469D03*
G54D25*
X63663Y-34676D03*
X63663Y-35463D03*
X63663Y-36250D03*
X63663Y-37038D03*
X63663Y-37825D03*
X63663Y-38613D03*
X63663Y-39400D03*
X63663Y-40187D03*
X63663Y-40975D03*
X72324Y-40975D03*
X72324Y-40187D03*
X72324Y-39400D03*
X72324Y-38613D03*
X72324Y-37825D03*
X72324Y-37038D03*
X72324Y-36250D03*
X72324Y-35463D03*
X72324Y-34676D03*
X72324Y-33888D03*
G54D26*
X63663Y-33888D03*
G54D12*
X52000Y-43504D03*
X55500Y-35500D03*
M02*
