G04 (created by PCBNEW-RS274X (2011-07-12 BZR 3047)-stable) date Thu 15 Sep 2011 21:16:32 BST*
G01*
G70*
G90*
%MOIN*%
G04 Gerber Fmt 3.4, Leading zero omitted, Abs format*
%FSLAX34Y34*%
G04 APERTURE LIST*
%ADD10C,0.006000*%
%ADD11R,0.078700X0.017700*%
%ADD12R,0.017700X0.078700*%
%ADD13R,0.060000X0.060000*%
%ADD14C,0.060000*%
%ADD15R,0.059100X0.051200*%
%ADD16R,0.051200X0.059100*%
%ADD17R,0.047200X0.098400*%
%ADD18R,0.035400X0.055100*%
%ADD19R,0.078700X0.082700*%
%ADD20C,0.062000*%
%ADD21R,0.062000X0.062000*%
%ADD22R,0.047200X0.047200*%
%ADD23C,0.012000*%
%ADD24C,0.008000*%
G04 APERTURE END LIST*
G54D10*
G54D11*
X27004Y-27593D03*
X27004Y-27278D03*
X27004Y-26963D03*
X27004Y-26648D03*
X27004Y-26333D03*
X27004Y-26018D03*
X27004Y-25703D03*
X27004Y-25388D03*
X30770Y-25390D03*
X30770Y-27600D03*
X30770Y-27280D03*
X30770Y-26960D03*
X30770Y-26650D03*
X30770Y-26330D03*
X30770Y-26020D03*
X30770Y-25700D03*
G54D12*
X27788Y-24600D03*
X28102Y-24600D03*
X28418Y-24600D03*
X28732Y-24600D03*
X29048Y-24600D03*
X29362Y-24600D03*
X29678Y-24600D03*
X29992Y-24600D03*
X27790Y-28380D03*
X28100Y-28380D03*
X28420Y-28380D03*
X28730Y-28380D03*
X29040Y-28380D03*
X29360Y-28380D03*
X29680Y-28380D03*
X30000Y-28380D03*
G54D13*
X32001Y-32234D03*
G54D14*
X31001Y-32234D03*
X32001Y-31234D03*
X31001Y-31234D03*
X32001Y-30234D03*
X31001Y-30234D03*
G54D13*
X27407Y-31029D03*
G54D14*
X27407Y-32029D03*
G54D13*
X23500Y-39500D03*
G54D14*
X24500Y-39500D03*
G54D13*
X29119Y-31127D03*
G54D14*
X29119Y-32127D03*
G54D13*
X31000Y-34500D03*
G54D14*
X31000Y-35500D03*
G54D15*
X32500Y-34625D03*
X32500Y-35375D03*
X35500Y-34625D03*
X35500Y-35375D03*
X32230Y-27081D03*
X32230Y-26331D03*
X23804Y-31943D03*
X23804Y-31193D03*
X24907Y-27573D03*
X24907Y-26823D03*
X25615Y-31943D03*
X25615Y-31193D03*
X24900Y-25775D03*
X24900Y-25025D03*
G54D16*
X40625Y-34500D03*
X41375Y-34500D03*
X40625Y-23000D03*
X41375Y-23000D03*
X42625Y-27500D03*
X43375Y-27500D03*
X32132Y-22769D03*
X31382Y-22769D03*
X40625Y-27500D03*
X41375Y-27500D03*
X25910Y-23635D03*
X26660Y-23635D03*
G54D15*
X27407Y-34148D03*
X27407Y-33398D03*
X29119Y-34148D03*
X29119Y-33398D03*
G54D17*
X25431Y-29400D03*
X24369Y-29400D03*
G54D16*
X43125Y-34500D03*
X43875Y-34500D03*
G54D18*
X33883Y-35722D03*
X33292Y-35722D03*
X34474Y-35722D03*
G54D10*
G36*
X33728Y-35485D02*
X33488Y-35171D01*
X34278Y-35171D01*
X34038Y-35485D01*
X33728Y-35485D01*
X33728Y-35485D01*
G37*
G54D19*
X33883Y-34761D03*
G54D10*
G36*
X33488Y-34351D02*
X33728Y-34037D01*
X34038Y-34037D01*
X34278Y-34351D01*
X33488Y-34351D01*
X33488Y-34351D01*
G37*
G54D20*
X09907Y-24246D03*
X09907Y-25033D03*
X09907Y-25820D03*
X09907Y-26608D03*
X09907Y-27395D03*
X09907Y-28183D03*
X09907Y-28970D03*
X09907Y-29757D03*
X09907Y-30545D03*
X18568Y-30545D03*
X18568Y-29757D03*
X18568Y-28970D03*
X18568Y-28183D03*
X18568Y-27395D03*
X18568Y-26608D03*
X18568Y-25820D03*
X18568Y-25033D03*
X18568Y-24246D03*
X18568Y-23458D03*
G54D21*
X09907Y-23458D03*
G54D22*
X27387Y-34994D03*
X27387Y-35820D03*
X29119Y-35013D03*
X29119Y-35839D03*
G54D23*
X30770Y-26330D02*
X32229Y-26330D01*
X32229Y-26330D02*
X32230Y-26331D01*
G54D24*
X30770Y-26650D02*
X31366Y-26650D01*
X31797Y-27081D02*
X32230Y-27081D01*
X31366Y-26650D02*
X31797Y-27081D01*
M02*
