G04 (created by PCBNEW-RS274X (2011-07-12 BZR 3047)-stable) date Mon 03 Oct 2011 23:24:08 BST*
G01*
G70*
G90*
%MOIN*%
G04 Gerber Fmt 3.4, Leading zero omitted, Abs format*
%FSLAX34Y34*%
G04 APERTURE LIST*
%ADD10C,0.006000*%
%ADD11R,0.055400X0.055400*%
%ADD12C,0.068200*%
%ADD13C,0.173600*%
%ADD14R,0.068200X0.068200*%
%ADD15R,0.067300X0.067300*%
%ADD16C,0.067300*%
%ADD17R,0.063300X0.043600*%
%ADD18R,0.090900X0.086900*%
%ADD19R,0.086900X0.025900*%
%ADD20R,0.025900X0.086900*%
%ADD21R,0.067300X0.059400*%
%ADD22R,0.059400X0.067300*%
%ADD23R,0.055400X0.035800*%
%ADD24R,0.106600X0.055400*%
%ADD25C,0.070200*%
%ADD26R,0.070200X0.070200*%
G04 APERTURE END LIST*
G54D10*
G54D11*
X55587Y-46000D03*
X56413Y-46000D03*
X57587Y-46000D03*
X58413Y-46000D03*
G54D12*
X52000Y-45000D03*
X51972Y-42126D03*
X54000Y-31000D03*
X72000Y-44000D03*
X70000Y-44000D03*
X68000Y-44000D03*
X56000Y-31000D03*
X64000Y-44000D03*
X62000Y-31000D03*
X61000Y-31000D03*
X60000Y-31000D03*
X59000Y-31000D03*
X58000Y-31000D03*
X66000Y-44000D03*
G54D13*
X51969Y-31634D03*
X72835Y-31634D03*
X51969Y-48563D03*
X72835Y-48563D03*
G54D14*
X52000Y-46000D03*
G54D12*
X52000Y-41000D03*
G54D15*
X65500Y-49000D03*
G54D16*
X65500Y-48000D03*
G54D14*
X56000Y-48000D03*
G54D12*
X56000Y-49000D03*
G54D14*
X58000Y-48000D03*
G54D12*
X58000Y-49000D03*
G54D14*
X61000Y-49000D03*
G54D12*
X61000Y-48000D03*
X62000Y-49000D03*
X62000Y-48000D03*
X63000Y-49000D03*
X63000Y-48000D03*
G54D17*
X53150Y-35500D03*
X53150Y-36091D03*
X53150Y-34909D03*
G54D10*
G36*
X52954Y-35676D02*
X52558Y-35978D01*
X52558Y-35022D01*
X52954Y-35324D01*
X52954Y-35676D01*
X52954Y-35676D01*
G37*
G54D18*
X52189Y-35500D03*
G54D10*
G36*
X51820Y-35978D02*
X51424Y-35676D01*
X51424Y-35324D01*
X51820Y-35022D01*
X51820Y-35978D01*
X51820Y-35978D01*
G37*
G54D19*
X56169Y-39093D03*
X56169Y-38778D03*
X56169Y-38463D03*
X56169Y-38148D03*
X56169Y-37833D03*
X56169Y-37518D03*
X56169Y-37203D03*
X56169Y-36888D03*
X59831Y-36890D03*
X59831Y-39100D03*
X59831Y-38780D03*
X59831Y-38460D03*
X59831Y-38150D03*
X59831Y-37830D03*
X59831Y-37520D03*
X59831Y-37200D03*
G54D20*
X56888Y-36169D03*
X57202Y-36169D03*
X57518Y-36169D03*
X57832Y-36169D03*
X58148Y-36169D03*
X58462Y-36169D03*
X58778Y-36169D03*
X59092Y-36169D03*
X56890Y-39831D03*
X57200Y-39831D03*
X57520Y-39831D03*
X57830Y-39831D03*
X58140Y-39831D03*
X58460Y-39831D03*
X58780Y-39831D03*
X59100Y-39831D03*
G54D21*
X61500Y-41375D03*
X61500Y-40625D03*
X56500Y-33125D03*
X56500Y-33875D03*
G54D22*
X57625Y-44500D03*
X58375Y-44500D03*
X55625Y-44500D03*
X56375Y-44500D03*
G54D21*
X59500Y-33125D03*
X59500Y-33875D03*
X61000Y-33125D03*
X61000Y-33875D03*
X55000Y-33125D03*
X55000Y-33875D03*
X58000Y-33125D03*
X58000Y-33875D03*
X61500Y-39375D03*
X61500Y-38625D03*
X54500Y-37375D03*
X54500Y-36625D03*
G54D22*
X58375Y-43000D03*
X57625Y-43000D03*
G54D21*
X54500Y-39375D03*
X54500Y-38625D03*
G54D22*
X56375Y-43000D03*
X55625Y-43000D03*
G54D21*
X61500Y-37375D03*
X61500Y-36625D03*
G54D22*
X52875Y-33500D03*
X52125Y-33500D03*
X52875Y-37500D03*
X52125Y-37500D03*
G54D23*
X51272Y-39500D03*
X52728Y-39500D03*
G54D24*
X54500Y-41531D03*
X54500Y-40469D03*
G54D25*
X63563Y-34276D03*
X63563Y-35063D03*
X63563Y-35850D03*
X63563Y-36638D03*
X63563Y-37425D03*
X63563Y-38213D03*
X63563Y-39000D03*
X63563Y-39787D03*
X63563Y-40575D03*
X72224Y-40575D03*
X72224Y-39787D03*
X72224Y-39000D03*
X72224Y-38213D03*
X72224Y-37425D03*
X72224Y-36638D03*
X72224Y-35850D03*
X72224Y-35063D03*
X72224Y-34276D03*
X72224Y-33488D03*
G54D26*
X63563Y-33488D03*
M02*
