G04 (created by PCBNEW-RS274X (2011-07-12 BZR 3047)-stable) date Sun 09 Oct 2011 14:53:21 BST*
G01*
G70*
G90*
%MOIN*%
G04 Gerber Fmt 3.4, Leading zero omitted, Abs format*
%FSLAX34Y34*%
G04 APERTURE LIST*
%ADD10C,0.006000*%
%ADD11C,0.012000*%
%ADD12C,0.003900*%
%ADD13C,0.005100*%
%ADD14C,0.008000*%
%ADD15C,0.015000*%
%ADD16C,0.005000*%
%ADD17C,0.004700*%
%ADD18C,0.000100*%
%ADD19C,0.010700*%
%ADD20C,0.010000*%
%ADD21C,0.004900*%
%ADD22R,0.055200X0.055200*%
%ADD23C,0.068000*%
%ADD24C,0.173400*%
%ADD25R,0.068000X0.068000*%
%ADD26R,0.067100X0.067100*%
%ADD27C,0.067100*%
%ADD28R,0.063100X0.043400*%
%ADD29R,0.090700X0.086700*%
%ADD30R,0.086700X0.025700*%
%ADD31R,0.025700X0.086700*%
%ADD32R,0.067100X0.059200*%
%ADD33R,0.059200X0.067100*%
%ADD34R,0.055200X0.035600*%
%ADD35R,0.106400X0.055200*%
%ADD36C,0.070000*%
%ADD37R,0.070000X0.070000*%
G04 APERTURE END LIST*
G54D10*
G54D11*
X66715Y-39524D02*
X66829Y-39524D01*
X66887Y-39562D01*
X66944Y-39638D01*
X66972Y-39790D01*
X66972Y-40057D01*
X66944Y-40210D01*
X66887Y-40286D01*
X66829Y-40324D01*
X66715Y-40324D01*
X66658Y-40286D01*
X66601Y-40210D01*
X66572Y-40057D01*
X66572Y-39790D01*
X66601Y-39638D01*
X66658Y-39562D01*
X66715Y-39524D01*
X67487Y-40286D02*
X67430Y-40324D01*
X67316Y-40324D01*
X67258Y-40286D01*
X67230Y-40248D01*
X67201Y-40171D01*
X67201Y-39943D01*
X67230Y-39867D01*
X67258Y-39829D01*
X67316Y-39790D01*
X67430Y-39790D01*
X67487Y-39829D01*
X67658Y-39790D02*
X67887Y-39790D01*
X67744Y-39524D02*
X67744Y-40210D01*
X67772Y-40286D01*
X67830Y-40324D01*
X67887Y-40324D01*
X68858Y-40324D02*
X68515Y-40324D01*
X68687Y-40324D02*
X68687Y-39524D01*
X68630Y-39638D01*
X68572Y-39714D01*
X68515Y-39752D01*
X69429Y-40324D02*
X69086Y-40324D01*
X69258Y-40324D02*
X69258Y-39524D01*
X69201Y-39638D01*
X69143Y-39714D01*
X69086Y-39752D01*
X66044Y-38748D02*
X66015Y-38786D01*
X65929Y-38824D01*
X65872Y-38824D01*
X65787Y-38786D01*
X65729Y-38710D01*
X65701Y-38633D01*
X65672Y-38481D01*
X65672Y-38367D01*
X65701Y-38214D01*
X65729Y-38138D01*
X65787Y-38062D01*
X65872Y-38024D01*
X65929Y-38024D01*
X66015Y-38062D01*
X66044Y-38100D01*
X66644Y-38748D02*
X66615Y-38786D01*
X66529Y-38824D01*
X66472Y-38824D01*
X66387Y-38786D01*
X66329Y-38710D01*
X66301Y-38633D01*
X66272Y-38481D01*
X66272Y-38367D01*
X66301Y-38214D01*
X66329Y-38138D01*
X66387Y-38062D01*
X66472Y-38024D01*
X66529Y-38024D01*
X66615Y-38062D01*
X66644Y-38100D01*
X66901Y-38519D02*
X67358Y-38519D01*
X67844Y-38405D02*
X67930Y-38443D01*
X67958Y-38481D01*
X67987Y-38557D01*
X67987Y-38671D01*
X67958Y-38748D01*
X67930Y-38786D01*
X67872Y-38824D01*
X67644Y-38824D01*
X67644Y-38024D01*
X67844Y-38024D01*
X67901Y-38062D01*
X67930Y-38100D01*
X67958Y-38176D01*
X67958Y-38252D01*
X67930Y-38329D01*
X67901Y-38367D01*
X67844Y-38405D01*
X67644Y-38405D01*
X68358Y-38443D02*
X68358Y-38824D01*
X68158Y-38024D02*
X68358Y-38443D01*
X68558Y-38024D01*
X68758Y-38519D02*
X69215Y-38519D01*
X69472Y-38786D02*
X69558Y-38824D01*
X69701Y-38824D01*
X69758Y-38786D01*
X69787Y-38748D01*
X69815Y-38671D01*
X69815Y-38595D01*
X69787Y-38519D01*
X69758Y-38481D01*
X69701Y-38443D01*
X69587Y-38405D01*
X69529Y-38367D01*
X69501Y-38329D01*
X69472Y-38252D01*
X69472Y-38176D01*
X69501Y-38100D01*
X69529Y-38062D01*
X69587Y-38024D01*
X69729Y-38024D01*
X69815Y-38062D01*
X70043Y-38595D02*
X70329Y-38595D01*
X69986Y-38824D02*
X70186Y-38024D01*
X70386Y-38824D01*
X60369Y-49458D02*
X60026Y-49458D01*
X60198Y-49458D02*
X60198Y-48658D01*
X60141Y-48772D01*
X60083Y-48848D01*
X60026Y-48886D01*
X64430Y-46324D02*
X64430Y-45524D01*
X64658Y-45524D01*
X64716Y-45562D01*
X64744Y-45600D01*
X64773Y-45676D01*
X64773Y-45790D01*
X64744Y-45867D01*
X64716Y-45905D01*
X64658Y-45943D01*
X64430Y-45943D01*
X65116Y-46324D02*
X65058Y-46286D01*
X65030Y-46248D01*
X65001Y-46171D01*
X65001Y-45943D01*
X65030Y-45867D01*
X65058Y-45829D01*
X65116Y-45790D01*
X65201Y-45790D01*
X65258Y-45829D01*
X65287Y-45867D01*
X65316Y-45943D01*
X65316Y-46171D01*
X65287Y-46248D01*
X65258Y-46286D01*
X65201Y-46324D01*
X65116Y-46324D01*
X65516Y-45790D02*
X65630Y-46324D01*
X65744Y-45943D01*
X65859Y-46324D01*
X65973Y-45790D01*
X66430Y-46286D02*
X66373Y-46324D01*
X66259Y-46324D01*
X66202Y-46286D01*
X66173Y-46210D01*
X66173Y-45905D01*
X66202Y-45829D01*
X66259Y-45790D01*
X66373Y-45790D01*
X66430Y-45829D01*
X66459Y-45905D01*
X66459Y-45981D01*
X66173Y-46057D01*
X66716Y-46324D02*
X66716Y-45790D01*
X66716Y-45943D02*
X66744Y-45867D01*
X66773Y-45829D01*
X66830Y-45790D01*
X66887Y-45790D01*
X67087Y-46324D02*
X67087Y-45524D01*
X67287Y-46095D01*
X67487Y-45524D01*
X67487Y-46324D01*
X68001Y-46286D02*
X67944Y-46324D01*
X67830Y-46324D01*
X67773Y-46286D01*
X67744Y-46210D01*
X67744Y-45905D01*
X67773Y-45829D01*
X67830Y-45790D01*
X67944Y-45790D01*
X68001Y-45829D01*
X68030Y-45905D01*
X68030Y-45981D01*
X67744Y-46057D01*
X68201Y-45790D02*
X68430Y-45790D01*
X68287Y-45524D02*
X68287Y-46210D01*
X68315Y-46286D01*
X68373Y-46324D01*
X68430Y-46324D01*
X68858Y-46286D02*
X68801Y-46324D01*
X68687Y-46324D01*
X68630Y-46286D01*
X68601Y-46210D01*
X68601Y-45905D01*
X68630Y-45829D01*
X68687Y-45790D01*
X68801Y-45790D01*
X68858Y-45829D01*
X68887Y-45905D01*
X68887Y-45981D01*
X68601Y-46057D01*
X69144Y-46324D02*
X69144Y-45790D01*
X69144Y-45943D02*
X69172Y-45867D01*
X69201Y-45829D01*
X69258Y-45790D01*
X69315Y-45790D01*
X69915Y-45790D02*
X70058Y-46324D01*
X70200Y-45790D01*
X70743Y-46324D02*
X70400Y-46324D01*
X70572Y-46324D02*
X70572Y-45524D01*
X70515Y-45638D01*
X70457Y-45714D01*
X70400Y-45752D01*
X71000Y-46248D02*
X71028Y-46286D01*
X71000Y-46324D01*
X70971Y-46286D01*
X71000Y-46248D01*
X71000Y-46324D01*
X71400Y-45524D02*
X71457Y-45524D01*
X71514Y-45562D01*
X71543Y-45600D01*
X71572Y-45676D01*
X71600Y-45829D01*
X71600Y-46019D01*
X71572Y-46171D01*
X71543Y-46248D01*
X71514Y-46286D01*
X71457Y-46324D01*
X71400Y-46324D01*
X71343Y-46286D01*
X71314Y-46248D01*
X71286Y-46171D01*
X71257Y-46019D01*
X71257Y-45829D01*
X71286Y-45676D01*
X71314Y-45600D01*
X71343Y-45562D01*
X71400Y-45524D01*
X64185Y-32790D02*
X64299Y-33324D01*
X64413Y-32943D01*
X64528Y-33324D01*
X64642Y-32790D01*
X64814Y-32790D02*
X64928Y-33324D01*
X65042Y-32943D01*
X65157Y-33324D01*
X65271Y-32790D01*
X65443Y-32790D02*
X65557Y-33324D01*
X65671Y-32943D01*
X65786Y-33324D01*
X65900Y-32790D01*
X66129Y-33248D02*
X66157Y-33286D01*
X66129Y-33324D01*
X66100Y-33286D01*
X66129Y-33248D01*
X66129Y-33324D01*
X66672Y-33324D02*
X66672Y-32524D01*
X66672Y-33286D02*
X66615Y-33324D01*
X66501Y-33324D01*
X66443Y-33286D01*
X66415Y-33248D01*
X66386Y-33171D01*
X66386Y-32943D01*
X66415Y-32867D01*
X66443Y-32829D01*
X66501Y-32790D01*
X66615Y-32790D01*
X66672Y-32829D01*
X66958Y-33324D02*
X66958Y-32790D01*
X66958Y-32943D02*
X66986Y-32867D01*
X67015Y-32829D01*
X67072Y-32790D01*
X67129Y-32790D01*
X67557Y-33286D02*
X67500Y-33324D01*
X67386Y-33324D01*
X67329Y-33286D01*
X67300Y-33210D01*
X67300Y-32905D01*
X67329Y-32829D01*
X67386Y-32790D01*
X67500Y-32790D01*
X67557Y-32829D01*
X67586Y-32905D01*
X67586Y-32981D01*
X67300Y-33057D01*
X67814Y-33286D02*
X67871Y-33324D01*
X67986Y-33324D01*
X68043Y-33286D01*
X68071Y-33210D01*
X68071Y-33171D01*
X68043Y-33095D01*
X67986Y-33057D01*
X67900Y-33057D01*
X67843Y-33019D01*
X67814Y-32943D01*
X67814Y-32905D01*
X67843Y-32829D01*
X67900Y-32790D01*
X67986Y-32790D01*
X68043Y-32829D01*
X68586Y-33286D02*
X68529Y-33324D01*
X68415Y-33324D01*
X68357Y-33286D01*
X68329Y-33248D01*
X68300Y-33171D01*
X68300Y-32943D01*
X68329Y-32867D01*
X68357Y-32829D01*
X68415Y-32790D01*
X68529Y-32790D01*
X68586Y-32829D01*
X68929Y-33324D02*
X68871Y-33286D01*
X68843Y-33248D01*
X68814Y-33171D01*
X68814Y-32943D01*
X68843Y-32867D01*
X68871Y-32829D01*
X68929Y-32790D01*
X69014Y-32790D01*
X69071Y-32829D01*
X69100Y-32867D01*
X69129Y-32943D01*
X69129Y-33171D01*
X69100Y-33248D01*
X69071Y-33286D01*
X69014Y-33324D01*
X68929Y-33324D01*
X69386Y-33248D02*
X69414Y-33286D01*
X69386Y-33324D01*
X69357Y-33286D01*
X69386Y-33248D01*
X69386Y-33324D01*
X69929Y-33286D02*
X69872Y-33324D01*
X69758Y-33324D01*
X69700Y-33286D01*
X69672Y-33248D01*
X69643Y-33171D01*
X69643Y-32943D01*
X69672Y-32867D01*
X69700Y-32829D01*
X69758Y-32790D01*
X69872Y-32790D01*
X69929Y-32829D01*
X70272Y-33324D02*
X70214Y-33286D01*
X70186Y-33248D01*
X70157Y-33171D01*
X70157Y-32943D01*
X70186Y-32867D01*
X70214Y-32829D01*
X70272Y-32790D01*
X70357Y-32790D01*
X70414Y-32829D01*
X70443Y-32867D01*
X70472Y-32943D01*
X70472Y-33171D01*
X70443Y-33248D01*
X70414Y-33286D01*
X70357Y-33324D01*
X70272Y-33324D01*
X70729Y-33248D02*
X70757Y-33286D01*
X70729Y-33324D01*
X70700Y-33286D01*
X70729Y-33248D01*
X70729Y-33324D01*
X71272Y-32790D02*
X71272Y-33324D01*
X71015Y-32790D02*
X71015Y-33210D01*
X71043Y-33286D01*
X71101Y-33324D01*
X71186Y-33324D01*
X71243Y-33286D01*
X71272Y-33248D01*
X71558Y-33324D02*
X71558Y-32524D01*
X71615Y-33019D02*
X71786Y-33324D01*
X71786Y-32790D02*
X71558Y-33095D01*
G54D12*
X56836Y-45685D02*
X56835Y-45692D01*
X56832Y-45700D01*
X56829Y-45707D01*
X56824Y-45713D01*
X56818Y-45718D01*
X56811Y-45721D01*
X56804Y-45724D01*
X56796Y-45724D01*
X56789Y-45724D01*
X56782Y-45722D01*
X56775Y-45718D01*
X56769Y-45713D01*
X56763Y-45707D01*
X56760Y-45700D01*
X56757Y-45693D01*
X56757Y-45685D01*
X56757Y-45678D01*
X56759Y-45671D01*
X56763Y-45664D01*
X56768Y-45658D01*
X56774Y-45653D01*
X56780Y-45649D01*
X56788Y-45646D01*
X56796Y-45646D01*
X56802Y-45646D01*
X56810Y-45648D01*
X56817Y-45652D01*
X56823Y-45657D01*
X56828Y-45662D01*
X56832Y-45669D01*
X56835Y-45677D01*
X56835Y-45684D01*
X56836Y-45685D01*
G54D13*
X56177Y-46315D02*
X56748Y-46315D01*
X56177Y-45685D02*
X56748Y-45685D01*
X55252Y-45685D02*
X55252Y-46315D01*
X55252Y-46315D02*
X55803Y-46315D01*
X55252Y-45685D02*
X55803Y-45685D01*
X56748Y-46315D02*
X56748Y-45685D01*
G54D12*
X58836Y-45685D02*
X58835Y-45692D01*
X58832Y-45700D01*
X58829Y-45707D01*
X58824Y-45713D01*
X58818Y-45718D01*
X58811Y-45721D01*
X58804Y-45724D01*
X58796Y-45724D01*
X58789Y-45724D01*
X58782Y-45722D01*
X58775Y-45718D01*
X58769Y-45713D01*
X58763Y-45707D01*
X58760Y-45700D01*
X58757Y-45693D01*
X58757Y-45685D01*
X58757Y-45678D01*
X58759Y-45671D01*
X58763Y-45664D01*
X58768Y-45658D01*
X58774Y-45653D01*
X58780Y-45649D01*
X58788Y-45646D01*
X58796Y-45646D01*
X58802Y-45646D01*
X58810Y-45648D01*
X58817Y-45652D01*
X58823Y-45657D01*
X58828Y-45662D01*
X58832Y-45669D01*
X58835Y-45677D01*
X58835Y-45684D01*
X58836Y-45685D01*
G54D13*
X58177Y-46315D02*
X58748Y-46315D01*
X58177Y-45685D02*
X58748Y-45685D01*
X57252Y-45685D02*
X57252Y-46315D01*
X57252Y-46315D02*
X57803Y-46315D01*
X57252Y-45685D02*
X57803Y-45685D01*
X58748Y-46315D02*
X58748Y-45685D01*
G54D10*
X52500Y-45500D02*
X51500Y-45500D01*
X51500Y-45500D02*
X51500Y-44500D01*
X51500Y-44500D02*
X52500Y-44500D01*
X52500Y-44500D02*
X52500Y-45500D01*
X52500Y-42504D02*
X51500Y-42504D01*
X51500Y-42504D02*
X51500Y-41504D01*
X51500Y-41504D02*
X52500Y-41504D01*
X52500Y-41504D02*
X52500Y-42504D01*
X54500Y-30750D02*
X54500Y-31750D01*
X54500Y-31750D02*
X53500Y-31750D01*
X53500Y-31750D02*
X53500Y-30750D01*
X53500Y-30750D02*
X54500Y-30750D01*
X71500Y-44500D02*
X71500Y-43500D01*
X71500Y-43500D02*
X72500Y-43500D01*
X72500Y-43500D02*
X72500Y-44500D01*
X72500Y-44500D02*
X71500Y-44500D01*
X69500Y-44500D02*
X69500Y-43500D01*
X69500Y-43500D02*
X70500Y-43500D01*
X70500Y-43500D02*
X70500Y-44500D01*
X70500Y-44500D02*
X69500Y-44500D01*
X67500Y-44500D02*
X67500Y-43500D01*
X67500Y-43500D02*
X68500Y-43500D01*
X68500Y-43500D02*
X68500Y-44500D01*
X68500Y-44500D02*
X67500Y-44500D01*
X56500Y-30750D02*
X56500Y-31750D01*
X56500Y-31750D02*
X55500Y-31750D01*
X55500Y-31750D02*
X55500Y-30750D01*
X55500Y-30750D02*
X56500Y-30750D01*
X63500Y-44500D02*
X63500Y-43500D01*
X63500Y-43500D02*
X64500Y-43500D01*
X64500Y-43500D02*
X64500Y-44500D01*
X64500Y-44500D02*
X63500Y-44500D01*
G54D11*
X62500Y-31750D02*
X62500Y-30750D01*
X57500Y-30750D02*
X57500Y-31750D01*
X62500Y-31750D02*
X57500Y-31750D01*
X57500Y-30750D02*
X62500Y-30750D01*
G54D10*
X65500Y-44500D02*
X65500Y-43500D01*
X65500Y-43500D02*
X66500Y-43500D01*
X66500Y-43500D02*
X66500Y-44500D01*
X66500Y-44500D02*
X65500Y-44500D01*
G54D11*
X67300Y-49500D02*
X67300Y-47500D01*
X65000Y-47500D02*
X65000Y-49500D01*
X66000Y-49500D02*
X66000Y-47500D01*
X65000Y-47500D02*
X66100Y-47500D01*
X66000Y-47500D02*
X70550Y-47500D01*
X70550Y-47500D02*
X70550Y-49500D01*
X70550Y-49500D02*
X65500Y-49500D01*
X65050Y-49500D02*
X65000Y-49500D01*
X66000Y-49500D02*
X65000Y-49500D01*
G54D10*
X55500Y-47500D02*
X56500Y-47500D01*
X56500Y-47500D02*
X56500Y-49500D01*
X56500Y-49500D02*
X55500Y-49500D01*
X55500Y-49500D02*
X55500Y-47500D01*
X57500Y-47500D02*
X58500Y-47500D01*
X58500Y-47500D02*
X58500Y-49500D01*
X58500Y-49500D02*
X57500Y-49500D01*
X57500Y-49500D02*
X57500Y-47500D01*
G54D14*
X63500Y-49500D02*
X60500Y-49500D01*
X60500Y-47500D02*
X63500Y-47500D01*
X63500Y-47500D02*
X63500Y-49500D01*
X60500Y-49500D02*
X60500Y-47500D01*
G54D15*
X51988Y-36406D02*
X53012Y-36406D01*
X51988Y-34949D02*
X51988Y-34594D01*
X51988Y-34594D02*
X53012Y-34594D01*
X51988Y-36406D02*
X51988Y-36051D01*
G54D13*
X59299Y-36701D02*
X59299Y-39299D01*
X59299Y-39299D02*
X56701Y-39299D01*
X56701Y-39299D02*
X56701Y-36898D01*
X56701Y-36898D02*
X56898Y-36701D01*
X56898Y-36701D02*
X59299Y-36701D01*
X57228Y-37031D02*
X57224Y-37067D01*
X57213Y-37102D01*
X57196Y-37135D01*
X57173Y-37163D01*
X57145Y-37186D01*
X57112Y-37204D01*
X57077Y-37215D01*
X57041Y-37218D01*
X57005Y-37215D01*
X56970Y-37205D01*
X56938Y-37188D01*
X56909Y-37165D01*
X56885Y-37137D01*
X56868Y-37105D01*
X56857Y-37070D01*
X56853Y-37033D01*
X56856Y-36998D01*
X56866Y-36962D01*
X56882Y-36930D01*
X56905Y-36901D01*
X56933Y-36877D01*
X56965Y-36859D01*
X57000Y-36848D01*
X57037Y-36844D01*
X57072Y-36846D01*
X57107Y-36856D01*
X57140Y-36873D01*
X57169Y-36895D01*
X57193Y-36923D01*
X57211Y-36955D01*
X57223Y-36990D01*
X57227Y-37026D01*
X57228Y-37031D01*
G54D16*
X61889Y-41728D02*
X61888Y-41737D01*
X61885Y-41747D01*
X61880Y-41755D01*
X61874Y-41763D01*
X61866Y-41769D01*
X61858Y-41774D01*
X61849Y-41776D01*
X61839Y-41777D01*
X61830Y-41777D01*
X61821Y-41774D01*
X61812Y-41769D01*
X61805Y-41763D01*
X61798Y-41756D01*
X61794Y-41747D01*
X61791Y-41738D01*
X61790Y-41728D01*
X61790Y-41719D01*
X61793Y-41710D01*
X61797Y-41701D01*
X61804Y-41694D01*
X61811Y-41687D01*
X61819Y-41683D01*
X61829Y-41680D01*
X61838Y-41679D01*
X61847Y-41679D01*
X61857Y-41682D01*
X61865Y-41686D01*
X61873Y-41692D01*
X61879Y-41700D01*
X61884Y-41708D01*
X61887Y-41717D01*
X61888Y-41727D01*
X61889Y-41728D01*
X61839Y-41278D02*
X61839Y-41678D01*
X61839Y-41678D02*
X61161Y-41678D01*
X61161Y-41679D02*
X61161Y-41279D01*
X61161Y-40722D02*
X61161Y-40322D01*
X61161Y-40322D02*
X61839Y-40322D01*
X61839Y-40321D02*
X61839Y-40721D01*
X56211Y-32772D02*
X56210Y-32781D01*
X56207Y-32791D01*
X56202Y-32799D01*
X56196Y-32807D01*
X56188Y-32813D01*
X56180Y-32818D01*
X56171Y-32820D01*
X56161Y-32821D01*
X56152Y-32821D01*
X56143Y-32818D01*
X56134Y-32813D01*
X56127Y-32807D01*
X56120Y-32800D01*
X56116Y-32791D01*
X56113Y-32782D01*
X56112Y-32772D01*
X56112Y-32763D01*
X56115Y-32754D01*
X56119Y-32745D01*
X56126Y-32738D01*
X56133Y-32731D01*
X56141Y-32727D01*
X56151Y-32724D01*
X56160Y-32723D01*
X56169Y-32723D01*
X56179Y-32726D01*
X56187Y-32730D01*
X56195Y-32736D01*
X56201Y-32744D01*
X56206Y-32752D01*
X56209Y-32761D01*
X56210Y-32771D01*
X56211Y-32772D01*
X56161Y-33222D02*
X56161Y-32822D01*
X56161Y-32822D02*
X56839Y-32822D01*
X56839Y-32821D02*
X56839Y-33221D01*
X56839Y-33778D02*
X56839Y-34178D01*
X56839Y-34178D02*
X56161Y-34178D01*
X56161Y-34179D02*
X56161Y-33779D01*
X57322Y-44839D02*
X57321Y-44848D01*
X57318Y-44858D01*
X57313Y-44866D01*
X57307Y-44874D01*
X57299Y-44880D01*
X57291Y-44885D01*
X57282Y-44887D01*
X57272Y-44888D01*
X57263Y-44888D01*
X57254Y-44885D01*
X57245Y-44880D01*
X57238Y-44874D01*
X57231Y-44867D01*
X57227Y-44858D01*
X57224Y-44849D01*
X57223Y-44839D01*
X57223Y-44830D01*
X57226Y-44821D01*
X57230Y-44812D01*
X57237Y-44805D01*
X57244Y-44798D01*
X57252Y-44794D01*
X57262Y-44791D01*
X57271Y-44790D01*
X57280Y-44790D01*
X57290Y-44793D01*
X57298Y-44797D01*
X57306Y-44803D01*
X57312Y-44811D01*
X57317Y-44819D01*
X57320Y-44828D01*
X57321Y-44838D01*
X57322Y-44839D01*
X57722Y-44839D02*
X57322Y-44839D01*
X57322Y-44839D02*
X57322Y-44161D01*
X57321Y-44161D02*
X57721Y-44161D01*
X58278Y-44161D02*
X58678Y-44161D01*
X58678Y-44161D02*
X58678Y-44839D01*
X58679Y-44839D02*
X58279Y-44839D01*
X55322Y-44839D02*
X55321Y-44848D01*
X55318Y-44858D01*
X55313Y-44866D01*
X55307Y-44874D01*
X55299Y-44880D01*
X55291Y-44885D01*
X55282Y-44887D01*
X55272Y-44888D01*
X55263Y-44888D01*
X55254Y-44885D01*
X55245Y-44880D01*
X55238Y-44874D01*
X55231Y-44867D01*
X55227Y-44858D01*
X55224Y-44849D01*
X55223Y-44839D01*
X55223Y-44830D01*
X55226Y-44821D01*
X55230Y-44812D01*
X55237Y-44805D01*
X55244Y-44798D01*
X55252Y-44794D01*
X55262Y-44791D01*
X55271Y-44790D01*
X55280Y-44790D01*
X55290Y-44793D01*
X55298Y-44797D01*
X55306Y-44803D01*
X55312Y-44811D01*
X55317Y-44819D01*
X55320Y-44828D01*
X55321Y-44838D01*
X55322Y-44839D01*
X55722Y-44839D02*
X55322Y-44839D01*
X55322Y-44839D02*
X55322Y-44161D01*
X55321Y-44161D02*
X55721Y-44161D01*
X56278Y-44161D02*
X56678Y-44161D01*
X56678Y-44161D02*
X56678Y-44839D01*
X56679Y-44839D02*
X56279Y-44839D01*
X59211Y-32772D02*
X59210Y-32781D01*
X59207Y-32791D01*
X59202Y-32799D01*
X59196Y-32807D01*
X59188Y-32813D01*
X59180Y-32818D01*
X59171Y-32820D01*
X59161Y-32821D01*
X59152Y-32821D01*
X59143Y-32818D01*
X59134Y-32813D01*
X59127Y-32807D01*
X59120Y-32800D01*
X59116Y-32791D01*
X59113Y-32782D01*
X59112Y-32772D01*
X59112Y-32763D01*
X59115Y-32754D01*
X59119Y-32745D01*
X59126Y-32738D01*
X59133Y-32731D01*
X59141Y-32727D01*
X59151Y-32724D01*
X59160Y-32723D01*
X59169Y-32723D01*
X59179Y-32726D01*
X59187Y-32730D01*
X59195Y-32736D01*
X59201Y-32744D01*
X59206Y-32752D01*
X59209Y-32761D01*
X59210Y-32771D01*
X59211Y-32772D01*
X59161Y-33222D02*
X59161Y-32822D01*
X59161Y-32822D02*
X59839Y-32822D01*
X59839Y-32821D02*
X59839Y-33221D01*
X59839Y-33778D02*
X59839Y-34178D01*
X59839Y-34178D02*
X59161Y-34178D01*
X59161Y-34179D02*
X59161Y-33779D01*
X60711Y-32772D02*
X60710Y-32781D01*
X60707Y-32791D01*
X60702Y-32799D01*
X60696Y-32807D01*
X60688Y-32813D01*
X60680Y-32818D01*
X60671Y-32820D01*
X60661Y-32821D01*
X60652Y-32821D01*
X60643Y-32818D01*
X60634Y-32813D01*
X60627Y-32807D01*
X60620Y-32800D01*
X60616Y-32791D01*
X60613Y-32782D01*
X60612Y-32772D01*
X60612Y-32763D01*
X60615Y-32754D01*
X60619Y-32745D01*
X60626Y-32738D01*
X60633Y-32731D01*
X60641Y-32727D01*
X60651Y-32724D01*
X60660Y-32723D01*
X60669Y-32723D01*
X60679Y-32726D01*
X60687Y-32730D01*
X60695Y-32736D01*
X60701Y-32744D01*
X60706Y-32752D01*
X60709Y-32761D01*
X60710Y-32771D01*
X60711Y-32772D01*
X60661Y-33222D02*
X60661Y-32822D01*
X60661Y-32822D02*
X61339Y-32822D01*
X61339Y-32821D02*
X61339Y-33221D01*
X61339Y-33778D02*
X61339Y-34178D01*
X61339Y-34178D02*
X60661Y-34178D01*
X60661Y-34179D02*
X60661Y-33779D01*
X54711Y-32772D02*
X54710Y-32781D01*
X54707Y-32791D01*
X54702Y-32799D01*
X54696Y-32807D01*
X54688Y-32813D01*
X54680Y-32818D01*
X54671Y-32820D01*
X54661Y-32821D01*
X54652Y-32821D01*
X54643Y-32818D01*
X54634Y-32813D01*
X54627Y-32807D01*
X54620Y-32800D01*
X54616Y-32791D01*
X54613Y-32782D01*
X54612Y-32772D01*
X54612Y-32763D01*
X54615Y-32754D01*
X54619Y-32745D01*
X54626Y-32738D01*
X54633Y-32731D01*
X54641Y-32727D01*
X54651Y-32724D01*
X54660Y-32723D01*
X54669Y-32723D01*
X54679Y-32726D01*
X54687Y-32730D01*
X54695Y-32736D01*
X54701Y-32744D01*
X54706Y-32752D01*
X54709Y-32761D01*
X54710Y-32771D01*
X54711Y-32772D01*
X54661Y-33222D02*
X54661Y-32822D01*
X54661Y-32822D02*
X55339Y-32822D01*
X55339Y-32821D02*
X55339Y-33221D01*
X55339Y-33778D02*
X55339Y-34178D01*
X55339Y-34178D02*
X54661Y-34178D01*
X54661Y-34179D02*
X54661Y-33779D01*
X57711Y-32772D02*
X57710Y-32781D01*
X57707Y-32791D01*
X57702Y-32799D01*
X57696Y-32807D01*
X57688Y-32813D01*
X57680Y-32818D01*
X57671Y-32820D01*
X57661Y-32821D01*
X57652Y-32821D01*
X57643Y-32818D01*
X57634Y-32813D01*
X57627Y-32807D01*
X57620Y-32800D01*
X57616Y-32791D01*
X57613Y-32782D01*
X57612Y-32772D01*
X57612Y-32763D01*
X57615Y-32754D01*
X57619Y-32745D01*
X57626Y-32738D01*
X57633Y-32731D01*
X57641Y-32727D01*
X57651Y-32724D01*
X57660Y-32723D01*
X57669Y-32723D01*
X57679Y-32726D01*
X57687Y-32730D01*
X57695Y-32736D01*
X57701Y-32744D01*
X57706Y-32752D01*
X57709Y-32761D01*
X57710Y-32771D01*
X57711Y-32772D01*
X57661Y-33222D02*
X57661Y-32822D01*
X57661Y-32822D02*
X58339Y-32822D01*
X58339Y-32821D02*
X58339Y-33221D01*
X58339Y-33778D02*
X58339Y-34178D01*
X58339Y-34178D02*
X57661Y-34178D01*
X57661Y-34179D02*
X57661Y-33779D01*
X61889Y-39728D02*
X61888Y-39737D01*
X61885Y-39747D01*
X61880Y-39755D01*
X61874Y-39763D01*
X61866Y-39769D01*
X61858Y-39774D01*
X61849Y-39776D01*
X61839Y-39777D01*
X61830Y-39777D01*
X61821Y-39774D01*
X61812Y-39769D01*
X61805Y-39763D01*
X61798Y-39756D01*
X61794Y-39747D01*
X61791Y-39738D01*
X61790Y-39728D01*
X61790Y-39719D01*
X61793Y-39710D01*
X61797Y-39701D01*
X61804Y-39694D01*
X61811Y-39687D01*
X61819Y-39683D01*
X61829Y-39680D01*
X61838Y-39679D01*
X61847Y-39679D01*
X61857Y-39682D01*
X61865Y-39686D01*
X61873Y-39692D01*
X61879Y-39700D01*
X61884Y-39708D01*
X61887Y-39717D01*
X61888Y-39727D01*
X61889Y-39728D01*
X61839Y-39278D02*
X61839Y-39678D01*
X61839Y-39678D02*
X61161Y-39678D01*
X61161Y-39679D02*
X61161Y-39279D01*
X61161Y-38722D02*
X61161Y-38322D01*
X61161Y-38322D02*
X61839Y-38322D01*
X61839Y-38321D02*
X61839Y-38721D01*
X54889Y-37728D02*
X54888Y-37737D01*
X54885Y-37747D01*
X54880Y-37755D01*
X54874Y-37763D01*
X54866Y-37769D01*
X54858Y-37774D01*
X54849Y-37776D01*
X54839Y-37777D01*
X54830Y-37777D01*
X54821Y-37774D01*
X54812Y-37769D01*
X54805Y-37763D01*
X54798Y-37756D01*
X54794Y-37747D01*
X54791Y-37738D01*
X54790Y-37728D01*
X54790Y-37719D01*
X54793Y-37710D01*
X54797Y-37701D01*
X54804Y-37694D01*
X54811Y-37687D01*
X54819Y-37683D01*
X54829Y-37680D01*
X54838Y-37679D01*
X54847Y-37679D01*
X54857Y-37682D01*
X54865Y-37686D01*
X54873Y-37692D01*
X54879Y-37700D01*
X54884Y-37708D01*
X54887Y-37717D01*
X54888Y-37727D01*
X54889Y-37728D01*
X54839Y-37278D02*
X54839Y-37678D01*
X54839Y-37678D02*
X54161Y-37678D01*
X54161Y-37679D02*
X54161Y-37279D01*
X54161Y-36722D02*
X54161Y-36322D01*
X54161Y-36322D02*
X54839Y-36322D01*
X54839Y-36321D02*
X54839Y-36721D01*
X57322Y-43339D02*
X57321Y-43348D01*
X57318Y-43358D01*
X57313Y-43366D01*
X57307Y-43374D01*
X57299Y-43380D01*
X57291Y-43385D01*
X57282Y-43387D01*
X57272Y-43388D01*
X57263Y-43388D01*
X57254Y-43385D01*
X57245Y-43380D01*
X57238Y-43374D01*
X57231Y-43367D01*
X57227Y-43358D01*
X57224Y-43349D01*
X57223Y-43339D01*
X57223Y-43330D01*
X57226Y-43321D01*
X57230Y-43312D01*
X57237Y-43305D01*
X57244Y-43298D01*
X57252Y-43294D01*
X57262Y-43291D01*
X57271Y-43290D01*
X57280Y-43290D01*
X57290Y-43293D01*
X57298Y-43297D01*
X57306Y-43303D01*
X57312Y-43311D01*
X57317Y-43319D01*
X57320Y-43328D01*
X57321Y-43338D01*
X57322Y-43339D01*
X57722Y-43339D02*
X57322Y-43339D01*
X57322Y-43339D02*
X57322Y-42661D01*
X57321Y-42661D02*
X57721Y-42661D01*
X58278Y-42661D02*
X58678Y-42661D01*
X58678Y-42661D02*
X58678Y-43339D01*
X58679Y-43339D02*
X58279Y-43339D01*
X54889Y-39728D02*
X54888Y-39737D01*
X54885Y-39747D01*
X54880Y-39755D01*
X54874Y-39763D01*
X54866Y-39769D01*
X54858Y-39774D01*
X54849Y-39776D01*
X54839Y-39777D01*
X54830Y-39777D01*
X54821Y-39774D01*
X54812Y-39769D01*
X54805Y-39763D01*
X54798Y-39756D01*
X54794Y-39747D01*
X54791Y-39738D01*
X54790Y-39728D01*
X54790Y-39719D01*
X54793Y-39710D01*
X54797Y-39701D01*
X54804Y-39694D01*
X54811Y-39687D01*
X54819Y-39683D01*
X54829Y-39680D01*
X54838Y-39679D01*
X54847Y-39679D01*
X54857Y-39682D01*
X54865Y-39686D01*
X54873Y-39692D01*
X54879Y-39700D01*
X54884Y-39708D01*
X54887Y-39717D01*
X54888Y-39727D01*
X54889Y-39728D01*
X54839Y-39278D02*
X54839Y-39678D01*
X54839Y-39678D02*
X54161Y-39678D01*
X54161Y-39679D02*
X54161Y-39279D01*
X54161Y-38722D02*
X54161Y-38322D01*
X54161Y-38322D02*
X54839Y-38322D01*
X54839Y-38321D02*
X54839Y-38721D01*
X56778Y-42661D02*
X56777Y-42670D01*
X56774Y-42680D01*
X56769Y-42688D01*
X56763Y-42696D01*
X56755Y-42702D01*
X56747Y-42707D01*
X56738Y-42709D01*
X56728Y-42710D01*
X56719Y-42710D01*
X56710Y-42707D01*
X56701Y-42702D01*
X56694Y-42696D01*
X56687Y-42689D01*
X56683Y-42680D01*
X56680Y-42671D01*
X56679Y-42661D01*
X56679Y-42652D01*
X56682Y-42643D01*
X56686Y-42634D01*
X56693Y-42627D01*
X56700Y-42620D01*
X56708Y-42616D01*
X56718Y-42613D01*
X56727Y-42612D01*
X56736Y-42612D01*
X56746Y-42615D01*
X56754Y-42619D01*
X56762Y-42625D01*
X56768Y-42633D01*
X56773Y-42641D01*
X56776Y-42650D01*
X56777Y-42660D01*
X56778Y-42661D01*
X56278Y-42661D02*
X56678Y-42661D01*
X56678Y-42661D02*
X56678Y-43339D01*
X56679Y-43339D02*
X56279Y-43339D01*
X55722Y-43339D02*
X55322Y-43339D01*
X55322Y-43339D02*
X55322Y-42661D01*
X55321Y-42661D02*
X55721Y-42661D01*
X61889Y-37728D02*
X61888Y-37737D01*
X61885Y-37747D01*
X61880Y-37755D01*
X61874Y-37763D01*
X61866Y-37769D01*
X61858Y-37774D01*
X61849Y-37776D01*
X61839Y-37777D01*
X61830Y-37777D01*
X61821Y-37774D01*
X61812Y-37769D01*
X61805Y-37763D01*
X61798Y-37756D01*
X61794Y-37747D01*
X61791Y-37738D01*
X61790Y-37728D01*
X61790Y-37719D01*
X61793Y-37710D01*
X61797Y-37701D01*
X61804Y-37694D01*
X61811Y-37687D01*
X61819Y-37683D01*
X61829Y-37680D01*
X61838Y-37679D01*
X61847Y-37679D01*
X61857Y-37682D01*
X61865Y-37686D01*
X61873Y-37692D01*
X61879Y-37700D01*
X61884Y-37708D01*
X61887Y-37717D01*
X61888Y-37727D01*
X61889Y-37728D01*
X61839Y-37278D02*
X61839Y-37678D01*
X61839Y-37678D02*
X61161Y-37678D01*
X61161Y-37679D02*
X61161Y-37279D01*
X61161Y-36722D02*
X61161Y-36322D01*
X61161Y-36322D02*
X61839Y-36322D01*
X61839Y-36321D02*
X61839Y-36721D01*
X53278Y-33161D02*
X53277Y-33170D01*
X53274Y-33180D01*
X53269Y-33188D01*
X53263Y-33196D01*
X53255Y-33202D01*
X53247Y-33207D01*
X53238Y-33209D01*
X53228Y-33210D01*
X53219Y-33210D01*
X53210Y-33207D01*
X53201Y-33202D01*
X53194Y-33196D01*
X53187Y-33189D01*
X53183Y-33180D01*
X53180Y-33171D01*
X53179Y-33161D01*
X53179Y-33152D01*
X53182Y-33143D01*
X53186Y-33134D01*
X53193Y-33127D01*
X53200Y-33120D01*
X53208Y-33116D01*
X53218Y-33113D01*
X53227Y-33112D01*
X53236Y-33112D01*
X53246Y-33115D01*
X53254Y-33119D01*
X53262Y-33125D01*
X53268Y-33133D01*
X53273Y-33141D01*
X53276Y-33150D01*
X53277Y-33160D01*
X53278Y-33161D01*
X52778Y-33161D02*
X53178Y-33161D01*
X53178Y-33161D02*
X53178Y-33839D01*
X53179Y-33839D02*
X52779Y-33839D01*
X52222Y-33839D02*
X51822Y-33839D01*
X51822Y-33839D02*
X51822Y-33161D01*
X51821Y-33161D02*
X52221Y-33161D01*
X53278Y-37161D02*
X53277Y-37170D01*
X53274Y-37180D01*
X53269Y-37188D01*
X53263Y-37196D01*
X53255Y-37202D01*
X53247Y-37207D01*
X53238Y-37209D01*
X53228Y-37210D01*
X53219Y-37210D01*
X53210Y-37207D01*
X53201Y-37202D01*
X53194Y-37196D01*
X53187Y-37189D01*
X53183Y-37180D01*
X53180Y-37171D01*
X53179Y-37161D01*
X53179Y-37152D01*
X53182Y-37143D01*
X53186Y-37134D01*
X53193Y-37127D01*
X53200Y-37120D01*
X53208Y-37116D01*
X53218Y-37113D01*
X53227Y-37112D01*
X53236Y-37112D01*
X53246Y-37115D01*
X53254Y-37119D01*
X53262Y-37125D01*
X53268Y-37133D01*
X53273Y-37141D01*
X53276Y-37150D01*
X53277Y-37160D01*
X53278Y-37161D01*
X52778Y-37161D02*
X53178Y-37161D01*
X53178Y-37161D02*
X53178Y-37839D01*
X53179Y-37839D02*
X52779Y-37839D01*
X52222Y-37839D02*
X51822Y-37839D01*
X51822Y-37839D02*
X51822Y-37161D01*
X51821Y-37161D02*
X52221Y-37161D01*
G54D17*
X51646Y-39224D02*
X52354Y-39224D01*
X52354Y-39224D02*
X52354Y-39776D01*
X52354Y-39776D02*
X51646Y-39776D01*
X51646Y-39776D02*
X51646Y-39224D01*
X52197Y-39224D02*
X52197Y-39776D01*
G54D16*
X53950Y-41300D02*
X53950Y-41900D01*
X53950Y-41900D02*
X55050Y-41900D01*
X55050Y-41900D02*
X55050Y-41300D01*
X55050Y-40700D02*
X55050Y-40100D01*
X55050Y-40100D02*
X53950Y-40100D01*
X53950Y-40100D02*
X53950Y-40700D01*
G54D15*
X62876Y-33101D02*
X66025Y-30739D01*
X66025Y-30739D02*
X69962Y-30739D01*
X69962Y-30739D02*
X73112Y-33101D01*
X73112Y-33101D02*
X73112Y-42962D01*
X73112Y-42962D02*
X62876Y-42962D01*
X62876Y-42962D02*
X62876Y-33101D01*
G54D10*
X52500Y-44004D02*
X51500Y-44004D01*
X51500Y-44004D02*
X51500Y-43004D01*
X51500Y-43004D02*
X52500Y-43004D01*
X52500Y-43004D02*
X52500Y-44004D01*
X55000Y-36000D02*
X55000Y-35000D01*
X55000Y-35000D02*
X56000Y-35000D01*
X56000Y-35000D02*
X56000Y-36000D01*
X56000Y-36000D02*
X55000Y-36000D01*
G54D18*
G36*
X66672Y-37718D02*
X66695Y-37706D01*
X66746Y-37674D01*
X66819Y-37626D01*
X66906Y-37568D01*
X66993Y-37509D01*
X67064Y-37461D01*
X67114Y-37429D01*
X67135Y-37418D01*
X67146Y-37422D01*
X67187Y-37442D01*
X67247Y-37473D01*
X67282Y-37491D01*
X67337Y-37514D01*
X67364Y-37519D01*
X67369Y-37512D01*
X67389Y-37470D01*
X67420Y-37398D01*
X67462Y-37303D01*
X67509Y-37192D01*
X67560Y-37072D01*
X67611Y-36950D01*
X67659Y-36833D01*
X67702Y-36728D01*
X67736Y-36643D01*
X67759Y-36584D01*
X67767Y-36558D01*
X67765Y-36553D01*
X67737Y-36526D01*
X67689Y-36490D01*
X67586Y-36406D01*
X67483Y-36278D01*
X67421Y-36133D01*
X67400Y-35972D01*
X67418Y-35822D01*
X67477Y-35678D01*
X67577Y-35549D01*
X67698Y-35453D01*
X67840Y-35392D01*
X68000Y-35373D01*
X68153Y-35390D01*
X68299Y-35448D01*
X68429Y-35546D01*
X68483Y-35609D01*
X68558Y-35740D01*
X68601Y-35880D01*
X68606Y-35916D01*
X68599Y-36070D01*
X68554Y-36217D01*
X68473Y-36349D01*
X68360Y-36457D01*
X68346Y-36468D01*
X68293Y-36507D01*
X68258Y-36534D01*
X68231Y-36556D01*
X68427Y-37028D01*
X68458Y-37103D01*
X68512Y-37232D01*
X68559Y-37343D01*
X68597Y-37431D01*
X68623Y-37490D01*
X68635Y-37514D01*
X68636Y-37515D01*
X68653Y-37518D01*
X68689Y-37505D01*
X68755Y-37473D01*
X68799Y-37451D01*
X68849Y-37427D01*
X68871Y-37418D01*
X68890Y-37428D01*
X68938Y-37459D01*
X69008Y-37506D01*
X69093Y-37564D01*
X69173Y-37618D01*
X69247Y-37667D01*
X69301Y-37701D01*
X69327Y-37715D01*
X69331Y-37715D01*
X69354Y-37702D01*
X69396Y-37667D01*
X69461Y-37606D01*
X69552Y-37516D01*
X69566Y-37503D01*
X69640Y-37427D01*
X69701Y-37363D01*
X69742Y-37318D01*
X69756Y-37297D01*
X69756Y-37297D01*
X69743Y-37271D01*
X69709Y-37218D01*
X69660Y-37143D01*
X69600Y-37055D01*
X69444Y-36828D01*
X69530Y-36614D01*
X69556Y-36549D01*
X69590Y-36469D01*
X69615Y-36412D01*
X69627Y-36387D01*
X69651Y-36379D01*
X69709Y-36365D01*
X69794Y-36347D01*
X69896Y-36328D01*
X69992Y-36311D01*
X70079Y-36294D01*
X70143Y-36282D01*
X70171Y-36276D01*
X70178Y-36272D01*
X70183Y-36259D01*
X70187Y-36229D01*
X70189Y-36176D01*
X70190Y-36092D01*
X70190Y-35972D01*
X70190Y-35959D01*
X70189Y-35843D01*
X70187Y-35752D01*
X70184Y-35691D01*
X70180Y-35668D01*
X70180Y-35667D01*
X70153Y-35661D01*
X70091Y-35648D01*
X70004Y-35631D01*
X69900Y-35611D01*
X69893Y-35610D01*
X69790Y-35590D01*
X69703Y-35572D01*
X69642Y-35558D01*
X69616Y-35550D01*
X69611Y-35542D01*
X69590Y-35502D01*
X69560Y-35438D01*
X69526Y-35359D01*
X69492Y-35278D01*
X69463Y-35205D01*
X69443Y-35150D01*
X69437Y-35125D01*
X69438Y-35125D01*
X69453Y-35100D01*
X69489Y-35046D01*
X69539Y-34971D01*
X69600Y-34883D01*
X69604Y-34877D01*
X69664Y-34789D01*
X69712Y-34715D01*
X69744Y-34662D01*
X69756Y-34638D01*
X69756Y-34637D01*
X69736Y-34611D01*
X69692Y-34561D01*
X69628Y-34494D01*
X69551Y-34417D01*
X69527Y-34393D01*
X69442Y-34310D01*
X69382Y-34255D01*
X69346Y-34226D01*
X69328Y-34220D01*
X69327Y-34220D01*
X69301Y-34236D01*
X69246Y-34272D01*
X69171Y-34323D01*
X69082Y-34384D01*
X69076Y-34388D01*
X68988Y-34447D01*
X68915Y-34497D01*
X68863Y-34531D01*
X68841Y-34545D01*
X68837Y-34545D01*
X68801Y-34534D01*
X68739Y-34512D01*
X68662Y-34483D01*
X68581Y-34450D01*
X68508Y-34419D01*
X68452Y-34394D01*
X68426Y-34379D01*
X68426Y-34378D01*
X68416Y-34347D01*
X68401Y-34281D01*
X68383Y-34191D01*
X68362Y-34084D01*
X68359Y-34066D01*
X68339Y-33962D01*
X68322Y-33876D01*
X68310Y-33816D01*
X68304Y-33792D01*
X68289Y-33788D01*
X68238Y-33784D01*
X68160Y-33782D01*
X68066Y-33781D01*
X67967Y-33782D01*
X67870Y-33784D01*
X67787Y-33787D01*
X67728Y-33791D01*
X67704Y-33796D01*
X67703Y-33797D01*
X67694Y-33830D01*
X67679Y-33895D01*
X67661Y-33986D01*
X67640Y-34094D01*
X67636Y-34113D01*
X67617Y-34217D01*
X67599Y-34302D01*
X67587Y-34361D01*
X67580Y-34384D01*
X67571Y-34389D01*
X67528Y-34408D01*
X67458Y-34437D01*
X67372Y-34472D01*
X67171Y-34553D01*
X66925Y-34384D01*
X66902Y-34369D01*
X66814Y-34309D01*
X66741Y-34260D01*
X66691Y-34228D01*
X66670Y-34216D01*
X66668Y-34217D01*
X66644Y-34238D01*
X66595Y-34284D01*
X66528Y-34349D01*
X66451Y-34426D01*
X66394Y-34483D01*
X66326Y-34552D01*
X66283Y-34598D01*
X66260Y-34628D01*
X66251Y-34646D01*
X66253Y-34658D01*
X66269Y-34683D01*
X66305Y-34737D01*
X66356Y-34812D01*
X66416Y-34899D01*
X66465Y-34971D01*
X66518Y-35054D01*
X66553Y-35113D01*
X66565Y-35142D01*
X66562Y-35154D01*
X66545Y-35202D01*
X66516Y-35275D01*
X66479Y-35361D01*
X66393Y-35556D01*
X66266Y-35581D01*
X66188Y-35595D01*
X66080Y-35616D01*
X65977Y-35636D01*
X65815Y-35667D01*
X65809Y-36261D01*
X65834Y-36272D01*
X65858Y-36278D01*
X65918Y-36292D01*
X66004Y-36309D01*
X66104Y-36328D01*
X66190Y-36344D01*
X66277Y-36360D01*
X66339Y-36372D01*
X66367Y-36378D01*
X66374Y-36387D01*
X66395Y-36429D01*
X66426Y-36496D01*
X66460Y-36576D01*
X66495Y-36659D01*
X66525Y-36736D01*
X66547Y-36794D01*
X66555Y-36825D01*
X66543Y-36847D01*
X66510Y-36898D01*
X66462Y-36971D01*
X66404Y-37057D01*
X66345Y-37143D01*
X66295Y-37216D01*
X66261Y-37269D01*
X66246Y-37293D01*
X66253Y-37310D01*
X66288Y-37351D01*
X66353Y-37419D01*
X66449Y-37514D01*
X66465Y-37529D01*
X66542Y-37603D01*
X66607Y-37663D01*
X66652Y-37703D01*
X66672Y-37718D01*
X66672Y-37718D01*
G37*
G54D16*
X55778Y-45590D02*
X55778Y-45290D01*
X55850Y-45290D01*
X55893Y-45305D01*
X55921Y-45333D01*
X55936Y-45362D01*
X55950Y-45419D01*
X55950Y-45462D01*
X55936Y-45519D01*
X55921Y-45548D01*
X55893Y-45576D01*
X55850Y-45590D01*
X55778Y-45590D01*
X56064Y-45319D02*
X56078Y-45305D01*
X56107Y-45290D01*
X56178Y-45290D01*
X56207Y-45305D01*
X56221Y-45319D01*
X56236Y-45348D01*
X56236Y-45376D01*
X56221Y-45419D01*
X56050Y-45590D01*
X56236Y-45590D01*
X55807Y-46712D02*
X55664Y-46712D01*
X55664Y-46412D01*
X55907Y-46555D02*
X56007Y-46555D01*
X56050Y-46712D02*
X55907Y-46712D01*
X55907Y-46412D01*
X56050Y-46412D01*
X56178Y-46712D02*
X56178Y-46412D01*
X56250Y-46412D01*
X56293Y-46427D01*
X56321Y-46455D01*
X56336Y-46484D01*
X56350Y-46541D01*
X56350Y-46584D01*
X56336Y-46641D01*
X56321Y-46670D01*
X56293Y-46698D01*
X56250Y-46712D01*
X56178Y-46712D01*
X57778Y-45590D02*
X57778Y-45290D01*
X57850Y-45290D01*
X57893Y-45305D01*
X57921Y-45333D01*
X57936Y-45362D01*
X57950Y-45419D01*
X57950Y-45462D01*
X57936Y-45519D01*
X57921Y-45548D01*
X57893Y-45576D01*
X57850Y-45590D01*
X57778Y-45590D01*
X58050Y-45290D02*
X58236Y-45290D01*
X58136Y-45405D01*
X58178Y-45405D01*
X58207Y-45419D01*
X58221Y-45433D01*
X58236Y-45462D01*
X58236Y-45533D01*
X58221Y-45562D01*
X58207Y-45576D01*
X58178Y-45590D01*
X58093Y-45590D01*
X58064Y-45576D01*
X58050Y-45562D01*
X57807Y-46712D02*
X57664Y-46712D01*
X57664Y-46412D01*
X57907Y-46555D02*
X58007Y-46555D01*
X58050Y-46712D02*
X57907Y-46712D01*
X57907Y-46412D01*
X58050Y-46412D01*
X58178Y-46712D02*
X58178Y-46412D01*
X58250Y-46412D01*
X58293Y-46427D01*
X58321Y-46455D01*
X58336Y-46484D01*
X58350Y-46541D01*
X58350Y-46584D01*
X58336Y-46641D01*
X58321Y-46670D01*
X58293Y-46698D01*
X58250Y-46712D01*
X58178Y-46712D01*
G54D10*
X51371Y-45222D02*
X51071Y-45222D01*
X51071Y-45107D01*
X51086Y-45079D01*
X51100Y-45064D01*
X51129Y-45050D01*
X51171Y-45050D01*
X51200Y-45064D01*
X51214Y-45079D01*
X51229Y-45107D01*
X51229Y-45222D01*
X51371Y-44764D02*
X51371Y-44936D01*
X51371Y-44850D02*
X51071Y-44850D01*
X51114Y-44879D01*
X51143Y-44907D01*
X51157Y-44936D01*
X51371Y-42226D02*
X51071Y-42226D01*
X51071Y-42111D01*
X51086Y-42083D01*
X51100Y-42068D01*
X51129Y-42054D01*
X51171Y-42054D01*
X51200Y-42068D01*
X51214Y-42083D01*
X51229Y-42111D01*
X51229Y-42226D01*
X51100Y-41940D02*
X51086Y-41926D01*
X51071Y-41897D01*
X51071Y-41826D01*
X51086Y-41797D01*
X51100Y-41783D01*
X51129Y-41768D01*
X51157Y-41768D01*
X51200Y-41783D01*
X51371Y-41954D01*
X51371Y-41768D01*
X53778Y-32121D02*
X53778Y-31821D01*
X53893Y-31821D01*
X53921Y-31836D01*
X53936Y-31850D01*
X53950Y-31879D01*
X53950Y-31921D01*
X53936Y-31950D01*
X53921Y-31964D01*
X53893Y-31979D01*
X53778Y-31979D01*
X54050Y-31821D02*
X54236Y-31821D01*
X54136Y-31936D01*
X54178Y-31936D01*
X54207Y-31950D01*
X54221Y-31964D01*
X54236Y-31993D01*
X54236Y-32064D01*
X54221Y-32093D01*
X54207Y-32107D01*
X54178Y-32121D01*
X54093Y-32121D01*
X54064Y-32107D01*
X54050Y-32093D01*
X71778Y-43371D02*
X71778Y-43071D01*
X71893Y-43071D01*
X71921Y-43086D01*
X71936Y-43100D01*
X71950Y-43129D01*
X71950Y-43171D01*
X71936Y-43200D01*
X71921Y-43214D01*
X71893Y-43229D01*
X71778Y-43229D01*
X72207Y-43171D02*
X72207Y-43371D01*
X72136Y-43057D02*
X72064Y-43271D01*
X72250Y-43271D01*
X69778Y-43371D02*
X69778Y-43071D01*
X69893Y-43071D01*
X69921Y-43086D01*
X69936Y-43100D01*
X69950Y-43129D01*
X69950Y-43171D01*
X69936Y-43200D01*
X69921Y-43214D01*
X69893Y-43229D01*
X69778Y-43229D01*
X70207Y-43071D02*
X70150Y-43071D01*
X70121Y-43086D01*
X70107Y-43100D01*
X70078Y-43143D01*
X70064Y-43200D01*
X70064Y-43314D01*
X70078Y-43343D01*
X70093Y-43357D01*
X70121Y-43371D01*
X70178Y-43371D01*
X70207Y-43357D01*
X70221Y-43343D01*
X70236Y-43314D01*
X70236Y-43243D01*
X70221Y-43214D01*
X70207Y-43200D01*
X70178Y-43186D01*
X70121Y-43186D01*
X70093Y-43200D01*
X70078Y-43214D01*
X70064Y-43243D01*
X67778Y-43371D02*
X67778Y-43071D01*
X67893Y-43071D01*
X67921Y-43086D01*
X67936Y-43100D01*
X67950Y-43129D01*
X67950Y-43171D01*
X67936Y-43200D01*
X67921Y-43214D01*
X67893Y-43229D01*
X67778Y-43229D01*
X68050Y-43071D02*
X68250Y-43071D01*
X68121Y-43371D01*
X55778Y-32121D02*
X55778Y-31821D01*
X55893Y-31821D01*
X55921Y-31836D01*
X55936Y-31850D01*
X55950Y-31879D01*
X55950Y-31921D01*
X55936Y-31950D01*
X55921Y-31964D01*
X55893Y-31979D01*
X55778Y-31979D01*
X56093Y-32121D02*
X56150Y-32121D01*
X56178Y-32107D01*
X56193Y-32093D01*
X56221Y-32050D01*
X56236Y-31993D01*
X56236Y-31879D01*
X56221Y-31850D01*
X56207Y-31836D01*
X56178Y-31821D01*
X56121Y-31821D01*
X56093Y-31836D01*
X56078Y-31850D01*
X56064Y-31879D01*
X56064Y-31950D01*
X56078Y-31979D01*
X56093Y-31993D01*
X56121Y-32007D01*
X56178Y-32007D01*
X56207Y-31993D01*
X56221Y-31979D01*
X56236Y-31950D01*
X63635Y-43371D02*
X63635Y-43071D01*
X63750Y-43071D01*
X63778Y-43086D01*
X63793Y-43100D01*
X63807Y-43129D01*
X63807Y-43171D01*
X63793Y-43200D01*
X63778Y-43214D01*
X63750Y-43229D01*
X63635Y-43229D01*
X64093Y-43371D02*
X63921Y-43371D01*
X64007Y-43371D02*
X64007Y-43071D01*
X63978Y-43114D01*
X63950Y-43143D01*
X63921Y-43157D01*
X64279Y-43071D02*
X64307Y-43071D01*
X64336Y-43086D01*
X64350Y-43100D01*
X64364Y-43129D01*
X64379Y-43186D01*
X64379Y-43257D01*
X64364Y-43314D01*
X64350Y-43343D01*
X64336Y-43357D01*
X64307Y-43371D01*
X64279Y-43371D01*
X64250Y-43357D01*
X64236Y-43343D01*
X64221Y-43314D01*
X64207Y-43257D01*
X64207Y-43186D01*
X64221Y-43129D01*
X64236Y-43100D01*
X64250Y-43086D01*
X64279Y-43071D01*
G54D14*
X59705Y-32412D02*
X59705Y-32012D01*
X59858Y-32012D01*
X59896Y-32031D01*
X59915Y-32050D01*
X59934Y-32088D01*
X59934Y-32145D01*
X59915Y-32183D01*
X59896Y-32202D01*
X59858Y-32221D01*
X59705Y-32221D01*
X60162Y-32183D02*
X60124Y-32164D01*
X60105Y-32145D01*
X60086Y-32107D01*
X60086Y-32088D01*
X60105Y-32050D01*
X60124Y-32031D01*
X60162Y-32012D01*
X60239Y-32012D01*
X60277Y-32031D01*
X60296Y-32050D01*
X60315Y-32088D01*
X60315Y-32107D01*
X60296Y-32145D01*
X60277Y-32164D01*
X60239Y-32183D01*
X60162Y-32183D01*
X60124Y-32202D01*
X60105Y-32221D01*
X60086Y-32260D01*
X60086Y-32336D01*
X60105Y-32374D01*
X60124Y-32393D01*
X60162Y-32412D01*
X60239Y-32412D01*
X60277Y-32393D01*
X60296Y-32374D01*
X60315Y-32336D01*
X60315Y-32260D01*
X60296Y-32221D01*
X60277Y-32202D01*
X60239Y-32183D01*
G54D10*
X65778Y-43371D02*
X65778Y-43071D01*
X65893Y-43071D01*
X65921Y-43086D01*
X65936Y-43100D01*
X65950Y-43129D01*
X65950Y-43171D01*
X65936Y-43200D01*
X65921Y-43214D01*
X65893Y-43229D01*
X65778Y-43229D01*
X66221Y-43071D02*
X66078Y-43071D01*
X66064Y-43214D01*
X66078Y-43200D01*
X66107Y-43186D01*
X66178Y-43186D01*
X66207Y-43200D01*
X66221Y-43214D01*
X66236Y-43243D01*
X66236Y-43314D01*
X66221Y-43343D01*
X66207Y-43357D01*
X66178Y-43371D01*
X66107Y-43371D01*
X66078Y-43357D01*
X66064Y-43343D01*
G54D19*
X64840Y-48541D02*
X64808Y-48582D01*
X64743Y-48622D01*
X64645Y-48683D01*
X64613Y-48724D01*
X64613Y-48765D01*
X64775Y-48745D02*
X64743Y-48785D01*
X64678Y-48826D01*
X64548Y-48846D01*
X64321Y-48846D01*
X64191Y-48826D01*
X64127Y-48785D01*
X64094Y-48745D01*
X64094Y-48663D01*
X64127Y-48622D01*
X64191Y-48582D01*
X64321Y-48561D01*
X64548Y-48561D01*
X64678Y-48582D01*
X64743Y-48622D01*
X64775Y-48663D01*
X64775Y-48745D01*
X64775Y-48154D02*
X64775Y-48398D01*
X64775Y-48276D02*
X64094Y-48276D01*
X64191Y-48317D01*
X64256Y-48358D01*
X64289Y-48398D01*
G54D20*
X66628Y-48143D02*
X66705Y-48143D01*
X66743Y-48171D01*
X66781Y-48229D01*
X66800Y-48343D01*
X66800Y-48543D01*
X66781Y-48657D01*
X66743Y-48714D01*
X66705Y-48743D01*
X66628Y-48743D01*
X66590Y-48714D01*
X66552Y-48657D01*
X66533Y-48543D01*
X66533Y-48343D01*
X66552Y-48229D01*
X66590Y-48171D01*
X66628Y-48143D01*
X66971Y-48743D02*
X66971Y-48143D01*
X67124Y-48143D01*
X67162Y-48171D01*
X67181Y-48200D01*
X67200Y-48257D01*
X67200Y-48343D01*
X67181Y-48400D01*
X67162Y-48429D01*
X67124Y-48457D01*
X66971Y-48457D01*
X67314Y-48143D02*
X67543Y-48143D01*
X67428Y-48743D02*
X67428Y-48143D01*
X67752Y-48143D02*
X67829Y-48143D01*
X67867Y-48171D01*
X67905Y-48229D01*
X67924Y-48343D01*
X67924Y-48543D01*
X67905Y-48657D01*
X67867Y-48714D01*
X67829Y-48743D01*
X67752Y-48743D01*
X67714Y-48714D01*
X67676Y-48657D01*
X67657Y-48543D01*
X67657Y-48343D01*
X67676Y-48229D01*
X67714Y-48171D01*
X67752Y-48143D01*
X68000Y-48800D02*
X68305Y-48800D01*
X68400Y-48743D02*
X68400Y-48143D01*
X68629Y-48743D01*
X68629Y-48143D01*
X68819Y-48743D02*
X68819Y-48143D01*
X68972Y-48143D01*
X69010Y-48171D01*
X69029Y-48200D01*
X69048Y-48257D01*
X69048Y-48343D01*
X69029Y-48400D01*
X69010Y-48429D01*
X68972Y-48457D01*
X68819Y-48457D01*
X69219Y-48743D02*
X69219Y-48143D01*
X69448Y-48743D01*
X69448Y-48143D01*
G54D10*
X56621Y-48800D02*
X56836Y-48800D01*
X56879Y-48814D01*
X56907Y-48843D01*
X56921Y-48886D01*
X56921Y-48914D01*
X56921Y-48657D02*
X56621Y-48657D01*
X56621Y-48542D01*
X56636Y-48514D01*
X56650Y-48499D01*
X56679Y-48485D01*
X56721Y-48485D01*
X56750Y-48499D01*
X56764Y-48514D01*
X56779Y-48542D01*
X56779Y-48657D01*
X56921Y-48199D02*
X56921Y-48371D01*
X56921Y-48285D02*
X56621Y-48285D01*
X56664Y-48314D01*
X56693Y-48342D01*
X56707Y-48371D01*
X58621Y-48800D02*
X58836Y-48800D01*
X58879Y-48814D01*
X58907Y-48843D01*
X58921Y-48886D01*
X58921Y-48914D01*
X58921Y-48657D02*
X58621Y-48657D01*
X58621Y-48542D01*
X58636Y-48514D01*
X58650Y-48499D01*
X58679Y-48485D01*
X58721Y-48485D01*
X58750Y-48499D01*
X58764Y-48514D01*
X58779Y-48542D01*
X58779Y-48657D01*
X58650Y-48371D02*
X58636Y-48357D01*
X58621Y-48328D01*
X58621Y-48257D01*
X58636Y-48228D01*
X58650Y-48214D01*
X58679Y-48199D01*
X58707Y-48199D01*
X58750Y-48214D01*
X58921Y-48385D01*
X58921Y-48199D01*
G54D14*
X61419Y-47162D02*
X61419Y-46762D01*
X61590Y-47143D02*
X61647Y-47162D01*
X61743Y-47162D01*
X61781Y-47143D01*
X61800Y-47124D01*
X61819Y-47086D01*
X61819Y-47048D01*
X61800Y-47010D01*
X61781Y-46990D01*
X61743Y-46971D01*
X61666Y-46952D01*
X61628Y-46933D01*
X61609Y-46914D01*
X61590Y-46876D01*
X61590Y-46838D01*
X61609Y-46800D01*
X61628Y-46781D01*
X61666Y-46762D01*
X61762Y-46762D01*
X61819Y-46781D01*
X61990Y-47162D02*
X61990Y-46762D01*
X62143Y-46762D01*
X62181Y-46781D01*
X62200Y-46800D01*
X62219Y-46838D01*
X62219Y-46895D01*
X62200Y-46933D01*
X62181Y-46952D01*
X62143Y-46971D01*
X61990Y-46971D01*
X62600Y-47162D02*
X62371Y-47162D01*
X62485Y-47162D02*
X62485Y-46762D01*
X62447Y-46819D01*
X62409Y-46857D01*
X62371Y-46876D01*
G54D21*
X53576Y-35722D02*
X53799Y-35722D01*
X53825Y-35709D01*
X53839Y-35696D01*
X53852Y-35670D01*
X53852Y-35617D01*
X53839Y-35591D01*
X53825Y-35578D01*
X53799Y-35565D01*
X53576Y-35565D01*
X53852Y-35289D02*
X53852Y-35446D01*
X53852Y-35368D02*
X53576Y-35368D01*
X53615Y-35394D01*
X53641Y-35420D01*
X53655Y-35446D01*
G54D14*
X57695Y-35002D02*
X57695Y-35407D01*
X57714Y-35455D01*
X57733Y-35479D01*
X57771Y-35502D01*
X57848Y-35502D01*
X57886Y-35479D01*
X57905Y-35455D01*
X57924Y-35407D01*
X57924Y-35002D01*
X58095Y-35050D02*
X58114Y-35026D01*
X58152Y-35002D01*
X58248Y-35002D01*
X58286Y-35026D01*
X58305Y-35050D01*
X58324Y-35098D01*
X58324Y-35145D01*
X58305Y-35217D01*
X58076Y-35502D01*
X58324Y-35502D01*
X55954Y-41162D02*
X56145Y-41162D01*
X55916Y-41304D02*
X56049Y-40804D01*
X56183Y-41304D01*
X56259Y-40804D02*
X56488Y-40804D01*
X56373Y-41304D02*
X56373Y-40804D01*
X56621Y-41304D02*
X56621Y-40804D01*
X56755Y-41162D01*
X56888Y-40804D01*
X56888Y-41304D01*
X57078Y-41042D02*
X57212Y-41042D01*
X57269Y-41304D02*
X57078Y-41304D01*
X57078Y-40804D01*
X57269Y-40804D01*
X57650Y-40828D02*
X57612Y-40804D01*
X57555Y-40804D01*
X57497Y-40828D01*
X57459Y-40876D01*
X57440Y-40923D01*
X57421Y-41019D01*
X57421Y-41090D01*
X57440Y-41185D01*
X57459Y-41233D01*
X57497Y-41281D01*
X57555Y-41304D01*
X57593Y-41304D01*
X57650Y-41281D01*
X57669Y-41257D01*
X57669Y-41090D01*
X57593Y-41090D01*
X57821Y-41162D02*
X58012Y-41162D01*
X57783Y-41304D02*
X57916Y-40804D01*
X58050Y-41304D01*
X58240Y-41019D02*
X58202Y-40995D01*
X58183Y-40971D01*
X58164Y-40923D01*
X58164Y-40900D01*
X58183Y-40852D01*
X58202Y-40828D01*
X58240Y-40804D01*
X58317Y-40804D01*
X58355Y-40828D01*
X58374Y-40852D01*
X58393Y-40900D01*
X58393Y-40923D01*
X58374Y-40971D01*
X58355Y-40995D01*
X58317Y-41019D01*
X58240Y-41019D01*
X58202Y-41042D01*
X58183Y-41066D01*
X58164Y-41114D01*
X58164Y-41209D01*
X58183Y-41257D01*
X58202Y-41281D01*
X58240Y-41304D01*
X58317Y-41304D01*
X58355Y-41281D01*
X58374Y-41257D01*
X58393Y-41209D01*
X58393Y-41114D01*
X58374Y-41066D01*
X58355Y-41042D01*
X58317Y-41019D01*
X58621Y-41019D02*
X58583Y-40995D01*
X58564Y-40971D01*
X58545Y-40923D01*
X58545Y-40900D01*
X58564Y-40852D01*
X58583Y-40828D01*
X58621Y-40804D01*
X58698Y-40804D01*
X58736Y-40828D01*
X58755Y-40852D01*
X58774Y-40900D01*
X58774Y-40923D01*
X58755Y-40971D01*
X58736Y-40995D01*
X58698Y-41019D01*
X58621Y-41019D01*
X58583Y-41042D01*
X58564Y-41066D01*
X58545Y-41114D01*
X58545Y-41209D01*
X58564Y-41257D01*
X58583Y-41281D01*
X58621Y-41304D01*
X58698Y-41304D01*
X58736Y-41281D01*
X58755Y-41257D01*
X58774Y-41209D01*
X58774Y-41114D01*
X58755Y-41066D01*
X58736Y-41042D01*
X58698Y-41019D01*
X58945Y-41114D02*
X59250Y-41114D01*
X59421Y-41162D02*
X59612Y-41162D01*
X59383Y-41304D02*
X59516Y-40804D01*
X59650Y-41304D01*
X59783Y-40804D02*
X59783Y-41209D01*
X59802Y-41257D01*
X59821Y-41281D01*
X59859Y-41304D01*
X59936Y-41304D01*
X59974Y-41281D01*
X59993Y-41257D01*
X60012Y-41209D01*
X60012Y-40804D01*
G54D16*
X61089Y-41041D02*
X61089Y-41160D01*
X60839Y-41160D01*
X61089Y-40828D02*
X61089Y-40970D01*
X61089Y-40899D02*
X60839Y-40899D01*
X60875Y-40923D01*
X60899Y-40947D01*
X60911Y-40970D01*
X57113Y-33542D02*
X56994Y-33625D01*
X57113Y-33684D02*
X56863Y-33684D01*
X56863Y-33589D01*
X56875Y-33565D01*
X56887Y-33554D01*
X56911Y-33542D01*
X56947Y-33542D01*
X56970Y-33554D01*
X56982Y-33565D01*
X56994Y-33589D01*
X56994Y-33684D01*
X56863Y-33327D02*
X56863Y-33375D01*
X56875Y-33399D01*
X56887Y-33411D01*
X56923Y-33434D01*
X56970Y-33446D01*
X57066Y-33446D01*
X57089Y-33434D01*
X57101Y-33423D01*
X57113Y-33399D01*
X57113Y-33351D01*
X57101Y-33327D01*
X57089Y-33315D01*
X57066Y-33304D01*
X57006Y-33304D01*
X56982Y-33315D01*
X56970Y-33327D01*
X56958Y-33351D01*
X56958Y-33399D01*
X56970Y-33423D01*
X56982Y-33434D01*
X57006Y-33446D01*
X57958Y-44089D02*
X57875Y-43970D01*
X57816Y-44089D02*
X57816Y-43839D01*
X57911Y-43839D01*
X57935Y-43851D01*
X57946Y-43863D01*
X57958Y-43887D01*
X57958Y-43923D01*
X57946Y-43946D01*
X57935Y-43958D01*
X57911Y-43970D01*
X57816Y-43970D01*
X58185Y-43839D02*
X58066Y-43839D01*
X58054Y-43958D01*
X58066Y-43946D01*
X58089Y-43934D01*
X58149Y-43934D01*
X58173Y-43946D01*
X58185Y-43958D01*
X58196Y-43982D01*
X58196Y-44042D01*
X58185Y-44065D01*
X58173Y-44077D01*
X58149Y-44089D01*
X58089Y-44089D01*
X58066Y-44077D01*
X58054Y-44065D01*
X55958Y-44089D02*
X55875Y-43970D01*
X55816Y-44089D02*
X55816Y-43839D01*
X55911Y-43839D01*
X55935Y-43851D01*
X55946Y-43863D01*
X55958Y-43887D01*
X55958Y-43923D01*
X55946Y-43946D01*
X55935Y-43958D01*
X55911Y-43970D01*
X55816Y-43970D01*
X56173Y-43923D02*
X56173Y-44089D01*
X56113Y-43827D02*
X56054Y-44006D01*
X56208Y-44006D01*
X60113Y-33542D02*
X59994Y-33625D01*
X60113Y-33684D02*
X59863Y-33684D01*
X59863Y-33589D01*
X59875Y-33565D01*
X59887Y-33554D01*
X59911Y-33542D01*
X59947Y-33542D01*
X59970Y-33554D01*
X59982Y-33565D01*
X59994Y-33589D01*
X59994Y-33684D01*
X59863Y-33458D02*
X59863Y-33304D01*
X59958Y-33387D01*
X59958Y-33351D01*
X59970Y-33327D01*
X59982Y-33315D01*
X60006Y-33304D01*
X60066Y-33304D01*
X60089Y-33315D01*
X60101Y-33327D01*
X60113Y-33351D01*
X60113Y-33423D01*
X60101Y-33446D01*
X60089Y-33458D01*
X61613Y-33542D02*
X61494Y-33625D01*
X61613Y-33684D02*
X61363Y-33684D01*
X61363Y-33589D01*
X61375Y-33565D01*
X61387Y-33554D01*
X61411Y-33542D01*
X61447Y-33542D01*
X61470Y-33554D01*
X61482Y-33565D01*
X61494Y-33589D01*
X61494Y-33684D01*
X61387Y-33446D02*
X61375Y-33434D01*
X61363Y-33411D01*
X61363Y-33351D01*
X61375Y-33327D01*
X61387Y-33315D01*
X61411Y-33304D01*
X61435Y-33304D01*
X61470Y-33315D01*
X61613Y-33458D01*
X61613Y-33304D01*
X55613Y-33542D02*
X55494Y-33625D01*
X55613Y-33684D02*
X55363Y-33684D01*
X55363Y-33589D01*
X55375Y-33565D01*
X55387Y-33554D01*
X55411Y-33542D01*
X55447Y-33542D01*
X55470Y-33554D01*
X55482Y-33565D01*
X55494Y-33589D01*
X55494Y-33684D01*
X55613Y-33304D02*
X55613Y-33446D01*
X55613Y-33375D02*
X55363Y-33375D01*
X55399Y-33399D01*
X55423Y-33423D01*
X55435Y-33446D01*
X58589Y-33542D02*
X58601Y-33554D01*
X58613Y-33589D01*
X58613Y-33613D01*
X58601Y-33649D01*
X58577Y-33673D01*
X58554Y-33684D01*
X58506Y-33696D01*
X58470Y-33696D01*
X58423Y-33684D01*
X58399Y-33673D01*
X58375Y-33649D01*
X58363Y-33613D01*
X58363Y-33589D01*
X58375Y-33554D01*
X58387Y-33542D01*
X58613Y-33423D02*
X58613Y-33375D01*
X58601Y-33351D01*
X58589Y-33339D01*
X58554Y-33315D01*
X58506Y-33304D01*
X58411Y-33304D01*
X58387Y-33315D01*
X58375Y-33327D01*
X58363Y-33351D01*
X58363Y-33399D01*
X58375Y-33423D01*
X58387Y-33434D01*
X58411Y-33446D01*
X58470Y-33446D01*
X58494Y-33434D01*
X58506Y-33423D01*
X58518Y-33399D01*
X58518Y-33351D01*
X58506Y-33327D01*
X58494Y-33315D01*
X58470Y-33304D01*
X61065Y-39042D02*
X61077Y-39054D01*
X61089Y-39089D01*
X61089Y-39113D01*
X61077Y-39149D01*
X61053Y-39173D01*
X61030Y-39184D01*
X60982Y-39196D01*
X60946Y-39196D01*
X60899Y-39184D01*
X60875Y-39173D01*
X60851Y-39149D01*
X60839Y-39113D01*
X60839Y-39089D01*
X60851Y-39054D01*
X60863Y-39042D01*
X60946Y-38899D02*
X60934Y-38923D01*
X60923Y-38934D01*
X60899Y-38946D01*
X60887Y-38946D01*
X60863Y-38934D01*
X60851Y-38923D01*
X60839Y-38899D01*
X60839Y-38851D01*
X60851Y-38827D01*
X60863Y-38815D01*
X60887Y-38804D01*
X60899Y-38804D01*
X60923Y-38815D01*
X60934Y-38827D01*
X60946Y-38851D01*
X60946Y-38899D01*
X60958Y-38923D01*
X60970Y-38934D01*
X60994Y-38946D01*
X61042Y-38946D01*
X61065Y-38934D01*
X61077Y-38923D01*
X61089Y-38899D01*
X61089Y-38851D01*
X61077Y-38827D01*
X61065Y-38815D01*
X61042Y-38804D01*
X60994Y-38804D01*
X60970Y-38815D01*
X60958Y-38827D01*
X60946Y-38851D01*
X54065Y-37042D02*
X54077Y-37054D01*
X54089Y-37089D01*
X54089Y-37113D01*
X54077Y-37149D01*
X54053Y-37173D01*
X54030Y-37184D01*
X53982Y-37196D01*
X53946Y-37196D01*
X53899Y-37184D01*
X53875Y-37173D01*
X53851Y-37149D01*
X53839Y-37113D01*
X53839Y-37089D01*
X53851Y-37054D01*
X53863Y-37042D01*
X53839Y-36958D02*
X53839Y-36792D01*
X54089Y-36899D01*
X57958Y-42565D02*
X57946Y-42577D01*
X57911Y-42589D01*
X57887Y-42589D01*
X57851Y-42577D01*
X57827Y-42553D01*
X57816Y-42530D01*
X57804Y-42482D01*
X57804Y-42446D01*
X57816Y-42399D01*
X57827Y-42375D01*
X57851Y-42351D01*
X57887Y-42339D01*
X57911Y-42339D01*
X57946Y-42351D01*
X57958Y-42363D01*
X58173Y-42339D02*
X58125Y-42339D01*
X58101Y-42351D01*
X58089Y-42363D01*
X58066Y-42399D01*
X58054Y-42446D01*
X58054Y-42542D01*
X58066Y-42565D01*
X58077Y-42577D01*
X58101Y-42589D01*
X58149Y-42589D01*
X58173Y-42577D01*
X58185Y-42565D01*
X58196Y-42542D01*
X58196Y-42482D01*
X58185Y-42458D01*
X58173Y-42446D01*
X58149Y-42434D01*
X58101Y-42434D01*
X58077Y-42446D01*
X58066Y-42458D01*
X58054Y-42482D01*
X54065Y-39042D02*
X54077Y-39054D01*
X54089Y-39089D01*
X54089Y-39113D01*
X54077Y-39149D01*
X54053Y-39173D01*
X54030Y-39184D01*
X53982Y-39196D01*
X53946Y-39196D01*
X53899Y-39184D01*
X53875Y-39173D01*
X53851Y-39149D01*
X53839Y-39113D01*
X53839Y-39089D01*
X53851Y-39054D01*
X53863Y-39042D01*
X53839Y-38815D02*
X53839Y-38934D01*
X53958Y-38946D01*
X53946Y-38934D01*
X53934Y-38911D01*
X53934Y-38851D01*
X53946Y-38827D01*
X53958Y-38815D01*
X53982Y-38804D01*
X54042Y-38804D01*
X54065Y-38815D01*
X54077Y-38827D01*
X54089Y-38851D01*
X54089Y-38911D01*
X54077Y-38934D01*
X54065Y-38946D01*
X55958Y-42577D02*
X55946Y-42589D01*
X55911Y-42601D01*
X55887Y-42601D01*
X55851Y-42589D01*
X55827Y-42565D01*
X55816Y-42542D01*
X55804Y-42494D01*
X55804Y-42458D01*
X55816Y-42411D01*
X55827Y-42387D01*
X55851Y-42363D01*
X55887Y-42351D01*
X55911Y-42351D01*
X55946Y-42363D01*
X55958Y-42375D01*
X56173Y-42435D02*
X56173Y-42601D01*
X56113Y-42339D02*
X56054Y-42518D01*
X56208Y-42518D01*
X61065Y-37042D02*
X61077Y-37054D01*
X61089Y-37089D01*
X61089Y-37113D01*
X61077Y-37149D01*
X61053Y-37173D01*
X61030Y-37184D01*
X60982Y-37196D01*
X60946Y-37196D01*
X60899Y-37184D01*
X60875Y-37173D01*
X60851Y-37149D01*
X60839Y-37113D01*
X60839Y-37089D01*
X60851Y-37054D01*
X60863Y-37042D01*
X60839Y-36958D02*
X60839Y-36804D01*
X60934Y-36887D01*
X60934Y-36851D01*
X60946Y-36827D01*
X60958Y-36815D01*
X60982Y-36804D01*
X61042Y-36804D01*
X61065Y-36815D01*
X61077Y-36827D01*
X61089Y-36851D01*
X61089Y-36923D01*
X61077Y-36946D01*
X61065Y-36958D01*
X52458Y-34089D02*
X52446Y-34101D01*
X52411Y-34113D01*
X52387Y-34113D01*
X52351Y-34101D01*
X52327Y-34077D01*
X52316Y-34054D01*
X52304Y-34006D01*
X52304Y-33970D01*
X52316Y-33923D01*
X52327Y-33899D01*
X52351Y-33875D01*
X52387Y-33863D01*
X52411Y-33863D01*
X52446Y-33875D01*
X52458Y-33887D01*
X52554Y-33887D02*
X52566Y-33875D01*
X52589Y-33863D01*
X52649Y-33863D01*
X52673Y-33875D01*
X52685Y-33887D01*
X52696Y-33911D01*
X52696Y-33935D01*
X52685Y-33970D01*
X52542Y-34113D01*
X52696Y-34113D01*
X52458Y-38089D02*
X52446Y-38101D01*
X52411Y-38113D01*
X52387Y-38113D01*
X52351Y-38101D01*
X52327Y-38077D01*
X52316Y-38054D01*
X52304Y-38006D01*
X52304Y-37970D01*
X52316Y-37923D01*
X52327Y-37899D01*
X52351Y-37875D01*
X52387Y-37863D01*
X52411Y-37863D01*
X52446Y-37875D01*
X52458Y-37887D01*
X52696Y-38113D02*
X52554Y-38113D01*
X52625Y-38113D02*
X52625Y-37863D01*
X52601Y-37899D01*
X52577Y-37923D01*
X52554Y-37935D01*
X51816Y-39089D02*
X51816Y-38839D01*
X51875Y-38839D01*
X51911Y-38851D01*
X51935Y-38875D01*
X51946Y-38899D01*
X51958Y-38946D01*
X51958Y-38982D01*
X51946Y-39030D01*
X51935Y-39053D01*
X51911Y-39077D01*
X51875Y-39089D01*
X51816Y-39089D01*
X52196Y-39089D02*
X52054Y-39089D01*
X52125Y-39089D02*
X52125Y-38839D01*
X52101Y-38875D01*
X52077Y-38899D01*
X52054Y-38911D01*
X53534Y-41243D02*
X53834Y-41043D01*
X53534Y-41043D02*
X53834Y-41243D01*
X53834Y-40771D02*
X53834Y-40943D01*
X53834Y-40857D02*
X53534Y-40857D01*
X53577Y-40886D01*
X53606Y-40914D01*
X53620Y-40943D01*
X55420Y-41693D02*
X55434Y-41707D01*
X55448Y-41750D01*
X55448Y-41779D01*
X55434Y-41822D01*
X55406Y-41850D01*
X55377Y-41865D01*
X55320Y-41879D01*
X55277Y-41879D01*
X55220Y-41865D01*
X55191Y-41850D01*
X55163Y-41822D01*
X55148Y-41779D01*
X55148Y-41750D01*
X55163Y-41707D01*
X55177Y-41693D01*
X55448Y-41393D02*
X55306Y-41493D01*
X55448Y-41565D02*
X55148Y-41565D01*
X55148Y-41450D01*
X55163Y-41422D01*
X55177Y-41407D01*
X55206Y-41393D01*
X55248Y-41393D01*
X55277Y-41407D01*
X55291Y-41422D01*
X55306Y-41450D01*
X55306Y-41565D01*
X55306Y-41207D02*
X55448Y-41207D01*
X55148Y-41307D02*
X55306Y-41207D01*
X55148Y-41107D01*
X55434Y-41022D02*
X55448Y-40979D01*
X55448Y-40908D01*
X55434Y-40879D01*
X55420Y-40865D01*
X55391Y-40850D01*
X55363Y-40850D01*
X55334Y-40865D01*
X55320Y-40879D01*
X55306Y-40908D01*
X55291Y-40965D01*
X55277Y-40993D01*
X55263Y-41008D01*
X55234Y-41022D01*
X55206Y-41022D01*
X55177Y-41008D01*
X55163Y-40993D01*
X55148Y-40965D01*
X55148Y-40893D01*
X55163Y-40850D01*
X55148Y-40764D02*
X55148Y-40593D01*
X55448Y-40679D02*
X55148Y-40679D01*
X55363Y-40507D02*
X55363Y-40364D01*
X55448Y-40535D02*
X55148Y-40435D01*
X55448Y-40335D01*
X55448Y-40093D02*
X55448Y-40236D01*
X55148Y-40236D01*
G54D11*
X67131Y-41643D02*
X67465Y-42243D01*
X67465Y-41643D02*
X67131Y-42243D01*
X67822Y-41929D02*
X67893Y-41957D01*
X67917Y-41986D01*
X67941Y-42043D01*
X67941Y-42129D01*
X67917Y-42186D01*
X67893Y-42214D01*
X67846Y-42243D01*
X67655Y-42243D01*
X67655Y-41643D01*
X67822Y-41643D01*
X67869Y-41671D01*
X67893Y-41700D01*
X67917Y-41757D01*
X67917Y-41814D01*
X67893Y-41871D01*
X67869Y-41900D01*
X67822Y-41929D01*
X67655Y-41929D01*
X68155Y-41929D02*
X68322Y-41929D01*
X68393Y-42243D02*
X68155Y-42243D01*
X68155Y-41643D01*
X68393Y-41643D01*
X68607Y-41929D02*
X68774Y-41929D01*
X68845Y-42243D02*
X68607Y-42243D01*
X68607Y-41643D01*
X68845Y-41643D01*
G54D10*
X51371Y-43869D02*
X51071Y-43869D01*
X51071Y-43754D01*
X51086Y-43726D01*
X51100Y-43711D01*
X51129Y-43697D01*
X51171Y-43697D01*
X51200Y-43711D01*
X51214Y-43726D01*
X51229Y-43754D01*
X51229Y-43869D01*
X51371Y-43411D02*
X51371Y-43583D01*
X51371Y-43497D02*
X51071Y-43497D01*
X51114Y-43526D01*
X51143Y-43554D01*
X51157Y-43583D01*
X51371Y-43125D02*
X51371Y-43297D01*
X51371Y-43211D02*
X51071Y-43211D01*
X51114Y-43240D01*
X51143Y-43268D01*
X51157Y-43297D01*
X55135Y-34871D02*
X55135Y-34571D01*
X55250Y-34571D01*
X55278Y-34586D01*
X55293Y-34600D01*
X55307Y-34629D01*
X55307Y-34671D01*
X55293Y-34700D01*
X55278Y-34714D01*
X55250Y-34729D01*
X55135Y-34729D01*
X55593Y-34871D02*
X55421Y-34871D01*
X55507Y-34871D02*
X55507Y-34571D01*
X55478Y-34614D01*
X55450Y-34643D01*
X55421Y-34657D01*
X55707Y-34600D02*
X55721Y-34586D01*
X55750Y-34571D01*
X55821Y-34571D01*
X55850Y-34586D01*
X55864Y-34600D01*
X55879Y-34629D01*
X55879Y-34657D01*
X55864Y-34700D01*
X55693Y-34871D01*
X55879Y-34871D01*
%LPC*%
G54D22*
X55587Y-46000D03*
X56413Y-46000D03*
X57587Y-46000D03*
X58413Y-46000D03*
G54D23*
X52000Y-45000D03*
X52000Y-42004D03*
X54000Y-31250D03*
X72000Y-44000D03*
X70000Y-44000D03*
X68000Y-44000D03*
X56000Y-31250D03*
X64000Y-44000D03*
X62000Y-31250D03*
X61000Y-31250D03*
X60000Y-31250D03*
X59000Y-31250D03*
X58000Y-31250D03*
X66000Y-44000D03*
G54D24*
X51969Y-31634D03*
X72835Y-31634D03*
X51969Y-48563D03*
X72835Y-48563D03*
G54D25*
X52000Y-46000D03*
G54D23*
X52000Y-41000D03*
G54D26*
X65500Y-49000D03*
G54D27*
X65500Y-48000D03*
G54D25*
X56000Y-48000D03*
G54D23*
X56000Y-49000D03*
G54D25*
X58000Y-48000D03*
G54D23*
X58000Y-49000D03*
G54D25*
X61000Y-49000D03*
G54D23*
X61000Y-48000D03*
X62000Y-49000D03*
X62000Y-48000D03*
X63000Y-49000D03*
X63000Y-48000D03*
G54D28*
X53150Y-35500D03*
X53150Y-36091D03*
X53150Y-34909D03*
G54D10*
G36*
X52953Y-35675D02*
X52559Y-35975D01*
X52559Y-35025D01*
X52953Y-35325D01*
X52953Y-35675D01*
X52953Y-35675D01*
G37*
G54D29*
X52189Y-35500D03*
G54D10*
G36*
X51819Y-35975D02*
X51425Y-35675D01*
X51425Y-35325D01*
X51819Y-35025D01*
X51819Y-35975D01*
X51819Y-35975D01*
G37*
G54D30*
X56169Y-39093D03*
X56169Y-38778D03*
X56169Y-38463D03*
X56169Y-38148D03*
X56169Y-37833D03*
X56169Y-37518D03*
X56169Y-37203D03*
X56169Y-36888D03*
X59831Y-36890D03*
X59831Y-39100D03*
X59831Y-38780D03*
X59831Y-38460D03*
X59831Y-38150D03*
X59831Y-37830D03*
X59831Y-37520D03*
X59831Y-37200D03*
G54D31*
X56888Y-36169D03*
X57202Y-36169D03*
X57518Y-36169D03*
X57832Y-36169D03*
X58148Y-36169D03*
X58462Y-36169D03*
X58778Y-36169D03*
X59092Y-36169D03*
X56890Y-39831D03*
X57200Y-39831D03*
X57520Y-39831D03*
X57830Y-39831D03*
X58140Y-39831D03*
X58460Y-39831D03*
X58780Y-39831D03*
X59100Y-39831D03*
G54D32*
X61500Y-41375D03*
X61500Y-40625D03*
X56500Y-33125D03*
X56500Y-33875D03*
G54D33*
X57625Y-44500D03*
X58375Y-44500D03*
X55625Y-44500D03*
X56375Y-44500D03*
G54D32*
X59500Y-33125D03*
X59500Y-33875D03*
X61000Y-33125D03*
X61000Y-33875D03*
X55000Y-33125D03*
X55000Y-33875D03*
X58000Y-33125D03*
X58000Y-33875D03*
X61500Y-39375D03*
X61500Y-38625D03*
X54500Y-37375D03*
X54500Y-36625D03*
G54D33*
X57625Y-43000D03*
X58375Y-43000D03*
G54D32*
X54500Y-39375D03*
X54500Y-38625D03*
G54D33*
X56375Y-43000D03*
X55625Y-43000D03*
G54D32*
X61500Y-37375D03*
X61500Y-36625D03*
G54D33*
X52875Y-33500D03*
X52125Y-33500D03*
X52875Y-37500D03*
X52125Y-37500D03*
G54D34*
X51272Y-39500D03*
X52728Y-39500D03*
G54D35*
X54500Y-41531D03*
X54500Y-40469D03*
G54D36*
X63663Y-34676D03*
X63663Y-35463D03*
X63663Y-36250D03*
X63663Y-37038D03*
X63663Y-37825D03*
X63663Y-38613D03*
X63663Y-39400D03*
X63663Y-40187D03*
X63663Y-40975D03*
X72324Y-40975D03*
X72324Y-40187D03*
X72324Y-39400D03*
X72324Y-38613D03*
X72324Y-37825D03*
X72324Y-37038D03*
X72324Y-36250D03*
X72324Y-35463D03*
X72324Y-34676D03*
X72324Y-33888D03*
G54D37*
X63663Y-33888D03*
G54D23*
X52000Y-43504D03*
X55500Y-35500D03*
M02*
