G04 (created by PCBNEW-RS274X (2011-07-12 BZR 3047)-stable) date Sun 02 Oct 2011 19:30:14 BST*
G01*
G70*
G90*
%MOIN*%
G04 Gerber Fmt 3.4, Leading zero omitted, Abs format*
%FSLAX34Y34*%
G04 APERTURE LIST*
%ADD10C,0.006000*%
%ADD11C,0.012000*%
%ADD12C,0.003900*%
%ADD13C,0.068600*%
%ADD14C,0.174000*%
%ADD15R,0.068600X0.068600*%
%ADD16R,0.067700X0.067700*%
%ADD17C,0.067700*%
%ADD18C,0.070600*%
%ADD19R,0.070600X0.070600*%
G04 APERTURE END LIST*
G54D10*
G54D11*
X71815Y-31790D02*
X71701Y-32324D01*
X71587Y-31943D01*
X71472Y-32324D01*
X71358Y-31790D01*
X71186Y-31790D02*
X71072Y-32324D01*
X70958Y-31943D01*
X70843Y-32324D01*
X70729Y-31790D01*
X70557Y-31790D02*
X70443Y-32324D01*
X70329Y-31943D01*
X70214Y-32324D01*
X70100Y-31790D01*
X69871Y-32248D02*
X69843Y-32286D01*
X69871Y-32324D01*
X69900Y-32286D01*
X69871Y-32248D01*
X69871Y-32324D01*
X69328Y-32324D02*
X69328Y-31524D01*
X69328Y-32286D02*
X69385Y-32324D01*
X69499Y-32324D01*
X69557Y-32286D01*
X69585Y-32248D01*
X69614Y-32171D01*
X69614Y-31943D01*
X69585Y-31867D01*
X69557Y-31829D01*
X69499Y-31790D01*
X69385Y-31790D01*
X69328Y-31829D01*
X69042Y-32324D02*
X69042Y-31790D01*
X69042Y-31943D02*
X69014Y-31867D01*
X68985Y-31829D01*
X68928Y-31790D01*
X68871Y-31790D01*
X68443Y-32286D02*
X68500Y-32324D01*
X68614Y-32324D01*
X68671Y-32286D01*
X68700Y-32210D01*
X68700Y-31905D01*
X68671Y-31829D01*
X68614Y-31790D01*
X68500Y-31790D01*
X68443Y-31829D01*
X68414Y-31905D01*
X68414Y-31981D01*
X68700Y-32057D01*
X68186Y-32286D02*
X68129Y-32324D01*
X68014Y-32324D01*
X67957Y-32286D01*
X67929Y-32210D01*
X67929Y-32171D01*
X67957Y-32095D01*
X68014Y-32057D01*
X68100Y-32057D01*
X68157Y-32019D01*
X68186Y-31943D01*
X68186Y-31905D01*
X68157Y-31829D01*
X68100Y-31790D01*
X68014Y-31790D01*
X67957Y-31829D01*
X67414Y-32286D02*
X67471Y-32324D01*
X67585Y-32324D01*
X67643Y-32286D01*
X67671Y-32248D01*
X67700Y-32171D01*
X67700Y-31943D01*
X67671Y-31867D01*
X67643Y-31829D01*
X67585Y-31790D01*
X67471Y-31790D01*
X67414Y-31829D01*
X67071Y-32324D02*
X67129Y-32286D01*
X67157Y-32248D01*
X67186Y-32171D01*
X67186Y-31943D01*
X67157Y-31867D01*
X67129Y-31829D01*
X67071Y-31790D01*
X66986Y-31790D01*
X66929Y-31829D01*
X66900Y-31867D01*
X66871Y-31943D01*
X66871Y-32171D01*
X66900Y-32248D01*
X66929Y-32286D01*
X66986Y-32324D01*
X67071Y-32324D01*
X66614Y-32248D02*
X66586Y-32286D01*
X66614Y-32324D01*
X66643Y-32286D01*
X66614Y-32248D01*
X66614Y-32324D01*
X66071Y-32286D02*
X66128Y-32324D01*
X66242Y-32324D01*
X66300Y-32286D01*
X66328Y-32248D01*
X66357Y-32171D01*
X66357Y-31943D01*
X66328Y-31867D01*
X66300Y-31829D01*
X66242Y-31790D01*
X66128Y-31790D01*
X66071Y-31829D01*
X65728Y-32324D02*
X65786Y-32286D01*
X65814Y-32248D01*
X65843Y-32171D01*
X65843Y-31943D01*
X65814Y-31867D01*
X65786Y-31829D01*
X65728Y-31790D01*
X65643Y-31790D01*
X65586Y-31829D01*
X65557Y-31867D01*
X65528Y-31943D01*
X65528Y-32171D01*
X65557Y-32248D01*
X65586Y-32286D01*
X65643Y-32324D01*
X65728Y-32324D01*
X65271Y-32248D02*
X65243Y-32286D01*
X65271Y-32324D01*
X65300Y-32286D01*
X65271Y-32248D01*
X65271Y-32324D01*
X64728Y-31790D02*
X64728Y-32324D01*
X64985Y-31790D02*
X64985Y-32210D01*
X64957Y-32286D01*
X64899Y-32324D01*
X64814Y-32324D01*
X64757Y-32286D01*
X64728Y-32248D01*
X64442Y-32324D02*
X64442Y-31524D01*
X64385Y-32019D02*
X64214Y-32324D01*
X64214Y-31790D02*
X64442Y-32095D01*
G54D12*
X62991Y-34194D02*
X62979Y-34308D01*
X62946Y-34419D01*
X62892Y-34521D01*
X62819Y-34610D01*
X62730Y-34683D01*
X62629Y-34738D01*
X62518Y-34772D01*
X62404Y-34784D01*
X62290Y-34774D01*
X62179Y-34741D01*
X62077Y-34688D01*
X61987Y-34616D01*
X61913Y-34527D01*
X61857Y-34426D01*
X61822Y-34316D01*
X61810Y-34202D01*
X61819Y-34088D01*
X61851Y-33977D01*
X61904Y-33874D01*
X61975Y-33784D01*
X62063Y-33709D01*
X62164Y-33653D01*
X62274Y-33617D01*
X62388Y-33604D01*
X62502Y-33612D01*
X62613Y-33643D01*
X62716Y-33696D01*
X62807Y-33767D01*
X62882Y-33854D01*
X62939Y-33954D01*
X62976Y-34064D01*
X62990Y-34178D01*
X62991Y-34194D01*
X62991Y-46006D02*
X62979Y-46120D01*
X62946Y-46231D01*
X62892Y-46333D01*
X62819Y-46422D01*
X62730Y-46495D01*
X62629Y-46550D01*
X62518Y-46584D01*
X62404Y-46596D01*
X62290Y-46586D01*
X62179Y-46553D01*
X62077Y-46500D01*
X61987Y-46428D01*
X61913Y-46339D01*
X61857Y-46238D01*
X61822Y-46128D01*
X61810Y-46014D01*
X61819Y-45900D01*
X61851Y-45789D01*
X61904Y-45686D01*
X61975Y-45596D01*
X62063Y-45521D01*
X62164Y-45465D01*
X62274Y-45429D01*
X62388Y-45416D01*
X62502Y-45424D01*
X62613Y-45455D01*
X62716Y-45508D01*
X62807Y-45579D01*
X62882Y-45666D01*
X62939Y-45766D01*
X62976Y-45876D01*
X62990Y-45990D01*
X62991Y-46006D01*
X58463Y-33801D02*
X57676Y-33801D01*
X57676Y-33801D02*
X57676Y-34588D01*
X57676Y-34588D02*
X58463Y-34588D01*
X66337Y-39706D02*
X67124Y-39706D01*
X67124Y-39706D02*
X67124Y-40494D01*
X67124Y-40494D02*
X66337Y-40494D01*
X58463Y-45612D02*
X57676Y-45612D01*
X57676Y-45612D02*
X57676Y-46399D01*
X57676Y-46399D02*
X58463Y-46399D01*
X58463Y-44824D02*
X58463Y-47187D01*
X58463Y-47187D02*
X66337Y-47187D01*
X66337Y-47187D02*
X66337Y-44824D01*
X66337Y-44824D02*
X58463Y-44824D01*
X66337Y-38919D02*
X58463Y-38919D01*
X58463Y-38919D02*
X58463Y-41281D01*
X58463Y-41281D02*
X66337Y-41281D01*
X66337Y-41281D02*
X66337Y-38919D01*
X66337Y-33013D02*
X58463Y-33013D01*
X58463Y-33013D02*
X58463Y-35376D01*
X58463Y-35376D02*
X66337Y-35376D01*
X66337Y-35376D02*
X66337Y-33013D01*
X73817Y-43250D02*
X50983Y-43250D01*
X73817Y-36950D02*
X50983Y-36950D01*
X73818Y-49548D02*
X73818Y-30651D01*
X50983Y-30651D02*
X50983Y-49548D01*
X73818Y-49548D02*
X50983Y-49548D01*
X73818Y-30651D02*
X50983Y-30651D01*
G54D10*
X62636Y-48964D02*
X62593Y-48979D01*
X62578Y-48993D01*
X62564Y-49021D01*
X62564Y-49064D01*
X62578Y-49093D01*
X62593Y-49107D01*
X62621Y-49121D01*
X62736Y-49121D01*
X62736Y-48821D01*
X62636Y-48821D01*
X62607Y-48836D01*
X62593Y-48850D01*
X62578Y-48879D01*
X62578Y-48907D01*
X62593Y-48936D01*
X62607Y-48950D01*
X62636Y-48964D01*
X62736Y-48964D01*
X62478Y-48821D02*
X62307Y-48821D01*
X62393Y-49121D02*
X62393Y-48821D01*
X62049Y-49121D02*
X62221Y-49121D01*
X62135Y-49121D02*
X62135Y-48821D01*
X62164Y-48864D01*
X62192Y-48893D01*
X62221Y-48907D01*
%LPC*%
G54D13*
X52000Y-45000D03*
X51972Y-42126D03*
X54000Y-31000D03*
X72000Y-44000D03*
X70000Y-44000D03*
X68000Y-44000D03*
X56000Y-31000D03*
X64000Y-44000D03*
X62000Y-31000D03*
X61000Y-31000D03*
X60000Y-31000D03*
X59000Y-31000D03*
X58000Y-31000D03*
X66000Y-44000D03*
G54D14*
X52000Y-31000D03*
X73000Y-31000D03*
X52000Y-49000D03*
X73000Y-49000D03*
G54D15*
X52000Y-46000D03*
G54D13*
X52000Y-41000D03*
G54D16*
X65500Y-49000D03*
G54D17*
X65500Y-48000D03*
G54D15*
X56000Y-48000D03*
G54D13*
X56000Y-49000D03*
G54D15*
X58000Y-48000D03*
G54D13*
X58000Y-49000D03*
G54D15*
X61000Y-49000D03*
G54D13*
X61000Y-48000D03*
X62000Y-49000D03*
X62000Y-48000D03*
X63000Y-49000D03*
X63000Y-48000D03*
G54D18*
X63563Y-34276D03*
X63563Y-35063D03*
X63563Y-35850D03*
X63563Y-36638D03*
X63563Y-37425D03*
X63563Y-38213D03*
X63563Y-39000D03*
X63563Y-39787D03*
X63563Y-40575D03*
X72224Y-40575D03*
X72224Y-39787D03*
X72224Y-39000D03*
X72224Y-38213D03*
X72224Y-37425D03*
X72224Y-36638D03*
X72224Y-35850D03*
X72224Y-35063D03*
X72224Y-34276D03*
X72224Y-33488D03*
G54D19*
X63563Y-33488D03*
M02*
